<svg xmlns="http://www.w3.org/2000/svg" width="399" height="552"><defs><linearGradient id="a" x1="146.92" x2="107.84" y1="218.1" y2="218.1" gradientUnits="userSpaceOnUse"><stop offset="0" stop-color="#86005b"/><stop offset="1" stop-color="#d41747"/></linearGradient><linearGradient id="b" x1="103.96" x2="87.83" y1="186.01" y2="298.33" gradientUnits="userSpaceOnUse"><stop offset="0" stop-color="#d41747"/><stop offset="1" stop-color="#86005b"/></linearGradient><linearGradient id="c" x1="107.95" x2="68.87" y1="216.6" y2="216.6" gradientUnits="userSpaceOnUse"><stop offset="0" stop-color="#86005b"/><stop offset="1" stop-color="#d41747"/></linearGradient></defs><path fill="#d7d7d7" d="M0 536.785c0 8.32 88.75 15.068 198.222 15.068 109.48 0 198.23-6.748 198.23-15.068 0-8.33-88.75-15.077-198.23-15.077C88.75 521.708 0 528.456 0 536.785zm195.248-49.798c0 2.47 26.336 4.472 58.821 4.472 32.488 0 58.823-2.003 58.823-4.472 0-2.471-26.335-4.474-58.823-4.474-32.485 0-58.82 2.003-58.82 4.474zm-146.85 5.792c0 2.469 26.336 4.471 58.821 4.471 32.488 0 58.824-2.002 58.824-4.471 0-2.472-26.336-4.474-58.824-4.474-32.485 0-58.82 2.002-58.82 4.474z" opacity=".5"/><path fill="#dc3667" d="M110.505.328H193.6a8.197 8.197 0 018.206 8.193v44.892a8.197 8.197 0 01-8.206 8.193h-4.473v20.54l-20.54-20.54h-58.082a8.197 8.197 0 01-8.207-8.193V8.521a8.198 8.198 0 018.207-8.193z" opacity=".4"/><path fill="#fff" d="M181.938 44.303h-19.604a2.738 2.738 0 100 5.476h19.604a2.738 2.738 0 000-5.476zm0-13.713h-36.124a2.738 2.738 0 000 5.476h36.124a2.738 2.738 0 100-5.476zm0-13.33h-62.104a2.738 2.738 0 000 5.476h62.104a2.738 2.738 0 100-5.476z"/><path fill="#a7a2f4" d="M162.016 385.531H65.797c-19.308 0-35.521-14.532-37.627-33.725L14.293 207.378h96.168l1.964 83.742z"/><path fill="#3a1a7e" d="M162.016 384.175c-24.719-.864-49.437-1.244-74.156-1.59l-18.538-.128c-1.504-.033-3.182.03-4.543-.083l-2.126-.113c-.704-.078-1.402-.205-2.103-.302a36.55 36.55 0 01-4.147-.897 39.418 39.418 0 01-3.984-1.447 35.108 35.108 0 01-20.556-25.254c-.5-2.642-.744-5.857-1.051-8.91l-.902-9.224-1.804-18.448c-1.163-12.302-2.492-24.588-3.779-36.879a5678.44 5678.44 0 00-8.118-73.707 1.924 1.924 0 10-3.832.369 4703.18 4703.18 0 006.067 73.924c1.078 12.314 2.113 24.634 3.313 36.936l1.743 18.46.871 9.23c.311 3.095.486 6.053 1.107 9.495a40.76 40.76 0 0024.464 29.913 45.666 45.666 0 004.745 1.645c1.618.429 3.26.762 4.918.999.83.105 1.657.237 2.488.317l2.505.103c1.723.097 3.139.009 4.724.022l18.538-.127c24.719-.347 49.437-.728 74.156-1.59a1.358 1.358 0 000-2.714z"/><path fill="none" stroke="#3a1a7e" stroke-miterlimit="20" stroke-width="2.5" d="M106.997 388.26v102"/><path fill="#3a1a7e" d="M88.83 297.525V292.7h310.167v4.825z"/><path fill="#e3bc9a" d="M125.41 509.514l-3.294 11.8 16.026 4.857 5.016-14.57zm96.762-8.565v9.476H207.98l-1.584-9.476z"/><path fill="#d8ac89" d="M113.181 226.85l21.433 52.901.476 1.176a8.09 8.09 0 007.53 5.035l61.028-.437a4.468 4.468 0 00.614-8.89l-60.39-8.818 8.006 6.21-14.427-55.226c-1.789-6.846-8.788-10.946-15.634-9.158-6.845 1.789-10.945 8.788-9.157 15.634.143.534.317 1.059.522 1.572z"/><path fill="#d8ac89" d="M197.018 275.578l20.84-.431c5.437.308 9.605 4.95 9.328 10.39h-30.434z"/><path fill="url(#a)" d="M146.925 233.288l-33.369 8.148-5.475-29.74a14.405 14.405 0 0112.277-16.773 14.668 14.668 0 0115.897 9.34z"/><path fill="#9e7e3e" d="M112.425 291.12l102.811 52.174a26.897 26.897 0 0114.68 25.56L222.17 500.95h-15.774l-21.282-141.336-80.044-56.2z"/><path fill="#d41747" d="M130.566 110.707s-28.57-9.713-43.58 17.342a27.344 27.344 0 01-2.99 4.458c-3.049 3.6-9.404 10.23-16.412 12.38-27.804 8.531-45.4 61.107 9.946 65.786 69.259 5.855 88.926-7.803 79.018-35.413-7.067-19.69-.757-33.669-.757-33.669z"/><path fill="url(#b)" d="M107.759 181.269l14.783 6.577a24.12 24.12 0 0114.336 22.311c-.228 19.41-4.632 67.604-21.03 86.046H65.865c-7.74-34.145-3.28-86.62-3.28-86.62-.5-12.867 8.962-23.961 21.746-25.498z"/><path fill="#ddb28d" d="M106.383 197.184a9.57 9.57 0 0010.598-8.291l4.067-31.768-19.014-2.211-4.038 31.549a9.57 9.57 0 008.387 10.721z"/><path fill="#e3bc9a" d="M122.082 180.832l.759.1c12.672 1.651 24.283-7.282 25.935-19.954l3.609-27.681-46.648-6.081-3.608 27.681c-1.652 12.672 7.28 24.283 19.953 25.935z"/><path fill="#d41747" d="M100.617 144.265l3.977 8.252s5.3 4.591 6.802-6.948c1.273-9.775 8.366-8.077 8.366-8.077s24.308 18.389 38.586 5.77c11.27-9.958-6.942-28.185-27.781-32.555l-27.335 11.941z"/><path fill="#e3bc9a" d="M107.349 152.85a7.714 7.714 0 11-15.317-1.853 7.714 7.714 0 0115.317 1.853z"/><path fill="#fff" d="M101.07 155.53a1.39 1.39 0 11-2.76-.333 1.39 1.39 0 012.76.334zm39.422 11.9l-13.093-2.785s-.63 5.688 6.54 6.714a5.317 5.317 0 006.553-3.928z"/><path fill="#ecb334" d="M65.865 296.203h49.983l79.961 48.315c9.428 5.696 13.164 17.505 8.728 27.588l-61.38 139.496-17.747-2.088 32.99-134.611c-27.687-1.17-79.1-5.353-92.535-20.325-22.735-25.34 0-58.375 0-58.375z"/><path fill="#a7a2f4" d="M236.33 208.671l-28.52 76.645h92.687l26.385-72.197a3.31 3.31 0 00-3.11-4.448z"/><path fill="#8c8cdd" d="M236.33 208.671h-4.437a5.69 5.69 0 00-5.339 3.722l-26.892 72.923h8.148z"/><path fill="#9595e8" d="M300.242 285.316H207.81v7.384h85.741a6.691 6.691 0 006.691-6.691v-.693z"/><path fill="#8b8bd8" d="M207.81 292.7h-57.2a3.692 3.692 0 110-7.384h57.2z"/><path fill="#ecf2f5" d="M259.548 246.768c-1.754 5.296.362 10.76 4.725 12.205 4.363 1.444 9.322-1.678 11.075-6.973 1.754-5.296-.362-10.76-4.725-12.205-4.363-1.444-9.321 1.677-11.075 6.973z"/><path fill="#e3bc9a" d="M74.07 225.403l21.471 53.916.474 1.191a8.161 8.161 0 007.61 5.125l61.038-.401a4.51 4.51 0 00.63-8.974l-60.38-8.938 8.084 6.314-14.389-56.222c-1.77-6.918-8.813-11.091-15.731-9.32-6.918 1.77-11.09 8.813-9.32 15.73.14.536.312 1.063.513 1.58z"/><path fill="#e3bc9a" d="M158.04 275.142l20.84-.439c5.489.368 9.653 5.092 9.329 10.583h-30.434z"/><path fill="url(#c)" d="M107.947 232.065l-33.368 8.3-5.475-30.293a14.637 14.637 0 0112.276-17.085 14.638 14.638 0 0115.897 9.513z"/><path fill="#d41747" d="M148.548 514.85l7.786 7.687 17.495 4.258a5.48 5.48 0 013.875 3.51l.89 2.532a1.91 1.91 0 01-1.843 2.542l-56.316-1.368a3.183 3.183 0 01-3.106-3.44l4.44-15.953 8.51 2.035c2.845.946 5.96.623 8.552-.886l3.026-1.763a5.549 5.549 0 016.691.846z"/><path fill="#70263b" d="M229.377 503.785l7.786 7.687 17.495 4.258a5.482 5.482 0 013.875 3.51l.89 2.532a1.91 1.91 0 01-1.844 2.543l-50.973-1.076a3.184 3.184 0 01-3.106-3.44l1.323-16.299 6.284 2.088c2.846.946 5.961.623 8.553-.886l3.026-1.763a5.55 5.55 0 016.69.846z"/><path fill="#d41747" d="M347.058 269.472s-23.583.084-18.683-24.19m21.639 22.888s23.875.085 18.915-24.489"/><path fill="#70263b" d="M348.918 268.254s17.387-17.52-3.118-32.963"/><path fill="#f0c459" d="M329.842 266.2h38.153l-6.076 26.49h-25.517z"/><path fill="none" stroke="#3a1a7e" stroke-miterlimit="20" stroke-width="2" d="M254.027 297.525v186.83"/></svg>