<svg xmlns="http://www.w3.org/2000/svg" width="87" height="81"><defs><clipPath id="a"><path fill="#fff" d="M15.333 57.67h53.334c.736 0 1.333.597 1.333 1.333L78 71c0 .737-.597 1.333-1.333 1.333H7.333A1.333 1.333 0 016 71l8-11.997c0-.736.597-1.333 1.333-1.333z"/></clipPath><clipPath id="b"><path fill="#fff" d="M14.998 61.656a1 1 0 01-1-1V20a1 1 0 011-1h54.004a1 1 0 011 1v40.656a1 1 0 01-1 1z"/></clipPath><clipPath id="c"><path fill="#fff" d="M0 70c0-6.075 4.925-11 11-11s11 4.925 11 11-4.925 11-11 11S0 76.075 0 70z"/></clipPath></defs><path fill="none" stroke="#252f5a" stroke-linecap="round" stroke-linejoin="round" stroke-miterlimit="20" stroke-width="3" d="M30.47 46.017v0l7.77-7.073v0l4.235 3.863v0l11.54-10.535v0"/><path fill="none" stroke="#252f5a" stroke-linecap="round" stroke-linejoin="round" stroke-miterlimit="20" stroke-width="6" d="M15.333 57.67v0h53.334c.736 0 1.333.597 1.333 1.333L78 71c0 .737-.597 1.333-1.333 1.333H7.333A1.333 1.333 0 016 71l8-11.997c0-.736.597-1.333 1.333-1.333z" clip-path="url(&quot;#a&quot;)"/><path fill="none" stroke="#252f5a" stroke-miterlimit="20" stroke-width="6" d="M14.998 61.656a1 1 0 01-1-1V20a1 1 0 011-1h54.004a1 1 0 011 1v40.656a1 1 0 01-1 1z" clip-path="url(&quot;#b&quot;)"/><path fill="none" stroke="#252f5a" stroke-linecap="round" stroke-linejoin="round" stroke-miterlimit="20" stroke-width="3" d="M48.223 31.417v0l6.113.347v0l.525 5.826v0"/><path fill="none" stroke="#462be2" stroke-miterlimit="20" d="M69.508 33.856v0L52.905 17.253v0L69.508.649v0l16.604 16.604v0z"/><path fill="#252f5a" d="M68.41 77.923L31.047 40.56l.614-.614 37.363 37.363z"/><path fill="none" stroke="#ffa76c" stroke-miterlimit="20" stroke-width="2" d="M0 70c0-6.075 4.925-11 11-11s11 4.925 11 11-4.925 11-11 11S0 76.075 0 70z" clip-path="url(&quot;#c&quot;)"/></svg>