<svg xmlns="http://www.w3.org/2000/svg" width="90" height="100"><defs><clipPath id="a"><path fill="#fff" d="M0 50c0-19.882 16.118-36 36-36s36 16.118 36 36-16.118 36-36 36S0 69.882 0 50z"/></clipPath><clipPath id="b"><path fill="#fff" d="M16 11.35c0-6.075 4.925-11 11-11s11 4.925 11 11c0 6.076-4.925 11-11 11s-11-4.924-11-11z"/></clipPath></defs><path fill="none" stroke="#252f5a" stroke-miterlimit="20" stroke-width="6" d="M0 50c0-19.882 16.118-36 36-36s36 16.118 36 36-16.118 36-36 36S0 69.882 0 50z" clip-path="url(&quot;#a&quot;)"/><path fill="none" stroke="#252f5a" stroke-linecap="round" stroke-miterlimit="20" stroke-width="3" d="M36 62.338v0-12.825 0L19.702 34.795v0"/><path fill="none" stroke="#462be2" stroke-miterlimit="20" d="M72.603 71.207v0L56 54.603v0L72.603 38v0l16.604 16.603v0z"/><path fill="#252f5a" d="M53.363 99.273L16 61.91l.614-.613L53.977 98.66z"/><path fill="none" stroke="#ffa76c" stroke-miterlimit="20" stroke-width="2" d="M16 11.35c0-6.075 4.925-11 11-11s11 4.925 11 11c0 6.076-4.925 11-11 11s-11-4.924-11-11z" clip-path="url(&quot;#b&quot;)"/></svg>