<svg xmlns="http://www.w3.org/2000/svg" width="72" height="54"><defs><clipPath id="a"><path fill="#fff" d="M9.333 38.67h53.334c.736 0 1.333.597 1.333 1.333L72 52c0 .737-.597 1.333-1.333 1.333H1.333A1.333 1.333 0 010 52l8-11.997c0-.736.597-1.333 1.333-1.333z"/></clipPath><clipPath id="b"><path fill="#fff" d="M8.998 42.656a1 1 0 01-1-1V1a1 1 0 011-1h54.004a1 1 0 011 1v40.656a1 1 0 01-1 1z"/></clipPath></defs><path fill="none" stroke="#252f5a" stroke-linecap="round" stroke-linejoin="round" stroke-miterlimit="20" stroke-width="6" d="M9.333 38.67v0h53.334c.736 0 1.333.597 1.333 1.333L72 52c0 .737-.597 1.333-1.333 1.333H1.333A1.333 1.333 0 010 52l8-11.997c0-.736.597-1.333 1.333-1.333z" clip-path="url(&quot;#a&quot;)"/><path fill="none" stroke="#252f5a" stroke-miterlimit="20" stroke-width="6" d="M8.998 42.656a1 1 0 01-1-1V1a1 1 0 011-1h54.004a1 1 0 011 1v40.656a1 1 0 01-1 1z" clip-path="url(&quot;#b&quot;)"/><path fill="#252f5a" d="M25 31a1 1 0 01-1-1v-6a1 1 0 011-1h1a1 1 0 011 1v6a1 1 0 01-1 1zm7 0a1 1 0 01-1-1V20a1 1 0 011-1h1a1 1 0 011 1v10a1 1 0 01-1 1zm7 0a1 1 0 01-1-1V16a1 1 0 011-1h1a1 1 0 011 1v14a1 1 0 01-1 1zm7 0a1 1 0 01-1-1V12a1 1 0 011-1h1a1 1 0 011 1v18a1 1 0 01-1 1z"/></svg>