<svg xmlns="http://www.w3.org/2000/svg" width="368" height="257"><defs><linearGradient id="a" x1="247.27" x2="189.69" y1="298.42" y2="199.48" gradientUnits="userSpaceOnUse"><stop offset="0" stop-color="#97cbec"/><stop offset=".69" stop-color="#ccc2f5"/></linearGradient><linearGradient id="c" x1="207.78" x2="217.66" y1="77.83" y2="155.96" gradientUnits="userSpaceOnUse"><stop offset=".01" stop-color="#ffdd91"/><stop offset="1" stop-color="#fff"/></linearGradient><linearGradient id="d" x1="245.95" x2="255.04" y1="204.84" y2="126.6" gradientUnits="userSpaceOnUse"><stop offset=".01" stop-color="#ffdd91"/><stop offset="1" stop-color="#fff"/></linearGradient><linearGradient id="e" x1="234.51" x2="234.51" y1="77.33" y2="156.09" gradientUnits="userSpaceOnUse"><stop offset=".01" stop-color="#ffdd91"/><stop offset="1" stop-color="#fff"/></linearGradient><linearGradient id="f" x1="194.5" x2="271.4" y1="173.13" y2="173.13" gradientUnits="userSpaceOnUse"><stop offset="0" stop-color="#40d5e6"/><stop offset="1" stop-color="#57f"/></linearGradient><linearGradient id="g" x1="-16741.79" x2="-16960.86" y1="204.46" y2="204.46" gradientUnits="userSpaceOnUse"><stop offset="0" stop-color="#ff9f55"/><stop offset="1" stop-color="#ffd255"/></linearGradient><radialGradient id="b" cx="167.73" cy="0" r="3935.48" gradientUnits="userSpaceOnUse"><stop offset=".01" stop-color="#ffdd91"/><stop offset=".99" stop-color="#ffe655"/></radialGradient></defs><path fill="url(#a)" d="M367.789 247.697c0 4.777-67.178 8.65-150.045 8.65-82.869 0-150.047-3.873-150.047-8.65s67.178-8.652 150.047-8.652c82.867 0 150.045 3.875 150.045 8.652z" opacity=".72"/><path fill="url(#b)" d="M297.173 54.59C297.024 24.265 267.925-.176 232.18 0c-35.745.178-64.601 24.905-64.451 55.23a47.785 47.785 0 005.731 22.383c.02.04 19.956 38.54 22.934 75.142.085 17.121 16.513 30.918 36.692 30.82 20.182-.1 36.472-14.06 36.389-31.18 2.616-36.65 22.191-75.366 22.191-75.366a47.808 47.808 0 005.508-22.44z"/><path fill="url(#c)" d="M219.298 177.158l-8.99-71.102 2.046-.259 8.99 71.102z"/><path fill="url(#d)" d="M258.496 105.813l-8.274 71.189-2.048-.238 8.274-71.19z"/><path fill="url(#e)" d="M249.601 116.787l-7.772-7.695-7.566 7.644-7.515-7.439-7.31 7.385-8.148-8.066.998-1.007 7.14 7.068 7.31-7.385 7.514 7.439 7.566-7.645 7.775 7.696 7.13-7.205 1.009.998z"/><path fill="#d46946" d="M253.84 203.032l-41.431.205a8.327 8.327 0 01-8.368-8.285l-.08-16.305 58.084-.288.08 16.306a8.327 8.327 0 01-8.284 8.367z"/><path fill="url(#f)" d="M258.95 192.864l-51.751.255c-6.908.035-12.535-5.537-12.568-12.445l-.135-27.144 76.764-.38.135 27.146c.034 6.907-5.538 12.534-12.445 12.568z"/><path fill="url(#g)" d="M182.207 247.39v-85.87h135.377v85.868z"/><path fill="#fff" d="M237.461 216.362a26.558 26.558 0 00-4.09 4.79c-1.935 2.903-7.072 3.058-7.292 7.02-.222 3.963 6.984 4.084 10.764 2.795 3.784-1.29 4.356-5.16 6.642-6.13 2.288-.966 3.476-1.75 3.303-3.638-.296-1.7-.78-3.362-1.445-4.955a15.71 15.71 0 01-2.256.546 18.745 18.745 0 01-5.626-.428z"/><path fill="#e64053" d="M263.389 109.008s-1.452 8.62-2.621 14.315a34.008 34.008 0 01-1.165 4.712 66.537 66.537 0 01-6.385 7.074c-5.845 6.017-13.565 13.592-13.565 13.592l-3.02-5.73s6.858-8.039 11.508-13.401c2.15-2.485 3.83-4.392 4.138-4.667.972-.87 2.1-9.437 3.685-16.495a28.433 28.433 0 014.763-10.96z"/><path fill="#eea886" d="M253.218 135.11c-5.845 6.016-13.565 13.591-13.565 13.591l-3.02-5.73s6.858-8.039 11.508-13.401a9.755 9.755 0 015.077 5.54z"/><path fill="#fff" d="M290.69 214s1.984 2.195 3.157 3.525c1.176 1.33 5.668 3.709 5.693 7.659.028 4.283-3.316 3.908-6.288 3.752a8.212 8.212 0 01-6.641-4.636c-1.256-2.426-4.586-3.063-4.822-5.02-.232-1.955 1.546-5.477 1.546-5.477z"/><path fill="#5f8cc9" d="M283.718 210.156l-.383 3.647s6.205 2.705 7.355.198l-.269-3.247zm-45.919 3.567l-.338 2.64c2.577.775 5.33.733 7.882-.12l.083-2.347z"/><path fill="#e64053" d="M291.04 147.535c.215.766-39.726 0-39.726 0s11.048-8.042 11.763-10.19c.72-2.148-2.811-15.037-3.27-19.232-.368-3.357-1.293-18.37.92-20.664 2.313-2.398 10.64-4.912 10.64-4.912l12.138.451a19.09 19.09 0 013.437 1.085c1.433.665 9.622 3.58 10.95 7.673 1.334 4.094-8.17 17.25-8.17 17.25s-.017.59-.048 1.56c-.036 1.292-.091 3.256-.14 5.385-.066 2.76-.119 5.795-.119 8.015a79.19 79.19 0 001.626 13.579z"/><path fill="#1b4d8f" d="M291.04 147.535s5.434 7.979 5.51 13.427c.078 5.447-2.011 20.55-2.165 23.543-.154 2.992-2.969 27.93-2.969 27.93s-2.172 2.02-8.694-.514l-1.594-26.179c-.154-2.532-.154-14.193-1.612-15.881-1.458-1.688-10.28-6.981-11.428-7.979-1.152-.996-21.204 3.788-23.3 4.333-5.442 1.411-2.963 10.875-1.76 15.118 2.015 7.1 3.773 32.737 3.773 32.737s-3.876 1.65-10.362.256c0 0-12.744-46.291-13.155-50.894-.408-4.605-.608-12.193 30.796-17.965z"/><path fill="#eea886" d="M274.699 66.162s-10.537-2.376-8.134 10.884c2.409 13.263 4.942 14.305 11.298 11.56 6.359-2.744 5.791-11.24 6.11-15.406.322-4.166-5.915-6.893-9.274-7.038z"/><path fill="#eea886" d="M271.907 95.942s4.668 4.947 12.046.45c0 0-1.65-10.721-.783-15.943.869-5.224-9.622 8.091-9.622 8.091.137.072.227.571.247 1.278a14.39 14.39 0 01-.106 2.127c-.217 1.736-.76 3.57-1.782 3.997z"/><path fill="#eea886" d="M280.348 75.289a1.345 1.345 0 012.64.155c.186 1.754-1.052 4.834-1.932 4.53-.879-.302-.898-3.074-.708-4.685z"/><path fill="#3a3f47" d="M283.46 80.004s-.272-4.179-1.8-4.309c-1.524-.131-1.756 1.553-1.756 1.553l-1.544.29s.488-3.662-1.038-4.301c-1.525-.64-9.872 2.016-11.096.94-1.224-1.074-.647-8.504 1.562-9.52 2.214-1.016 8.326-3.295 12.802-.264 0 0 3.489-.398 4.007 2.417.516 2.816-.187 11.1-1.138 13.194z"/><path fill="#a77860" d="M273.689 91.945c7.61-2.347 8.18-6.927 8.189-7-2.504 4.306-8.083 4.873-8.083 4.873.017.71-.018 1.422-.106 2.127z"/><path fill="#eea886" d="M287.066 94.13s-5.573 11.093-14.574 10.377c-9.003-.716-1.534-11.866-1.125-11.97.447-.113 9.234-2.3 15.699 1.592z"/><path fill="#e64053" d="M246.747 146.973s27.58 3.4 44.294.562l-31.932-3.989s-.19.815-12.362 3.427z"/><path fill="#eea886" d="M267.379 142.29l-2.06 1.04s.471 3.264 1.595 4.253l2.307-.588s-.482-3.58-1.842-4.705z"/><path fill="#e64053" d="M299.295 135.606c-.412.476-5.834 2.655-11.962 5.015-8.367 3.225-17.81 6.275-17.81 6.275l-2.144-4.606s9.883-5.37 16.564-9.138c3.153-1.78 5.596-3.203 5.94-3.53 1.074-1.025 1.35-2.664.563-5.524-.79-2.861-2.61-16.01-2.814-17.544-.205-1.535.512-5.627 4.347-5.832a11.52 11.52 0 015.79.879s.962.398 1.677 9.71c.718 9.307.819 23.169-.15 24.295z"/><path fill="#a32d3b" d="M289.674 120.556c-.036 1.292-.091 3.256-.14 5.385a26.908 26.908 0 01-1.545-16.625c-.404 2.49 1.656 11.116 1.685 11.24zm-28.906 2.767a34.01 34.01 0 01-1.165 4.712 48.663 48.663 0 01-.128-14.111 79.367 79.367 0 001.293 9.4z"/><path fill="#eea886" d="M287.333 140.621c-8.367 3.225-18.112 6.374-18.112 6.374l-1.842-4.705s9.883-5.37 16.564-9.138c0 0 2.43 1.181 3.39 7.47z"/><path fill="#5e5853" d="M266.782 147.268l-39.204-.578 19.79 10.05z"/><path fill="#91887f" d="M247.368 156.74l19.414-7.517v-1.955l-20.946 7.557z"/><path fill="#eea886" d="M265.767 143.4s-2.45-.378-4.143-.774c-1.31-.304-4.568.115-5.397.956-.831.84-3.468 6.698-3.965 7.056-.5.356.253 1.184 1.13.768 0 0 .806 2.562 2.79 1.605 1.988-.96 3.334-3.056 4.373-3.424 1.04-.37 7.096-2.23 7.096-2.23s-.325-4.58-1.884-3.956z"/><path fill="#eea886" d="M256.825 143.199a16.96 16.96 0 00-1.984 1.098c-.408.338-2.074 1.585-2.478 1.878-.402.293.607 1.126 3.583-.163 2.978-1.288.879-2.813.879-2.813z"/><path fill="#6e6760" d="M247.368 156.74l-11.658-31.836-37.594.612 11.114 29.342z"/><path fill="#807066" d="M223.683 138.989c1.145 2.292.8 4.79-.777 5.578-1.575.787-3.778-.434-4.927-2.727-1.148-2.294-.8-4.791.772-5.578 1.576-.789 3.783.433 4.932 2.727z"/><path fill="#83b6ec" d="M131.018 223.316s10.852-5.382 7.9-13.542c-2.951-8.16-4.774-8.507.868-13.108 5.643-4.6 13.803-16.146 3.473-17.015-10.33-.868-9.81 12.848-18.404 14.758-8.594 1.91-13.282 37.849 6.163 28.907z"/><path fill="#476488" d="M122.478 224.125c2.084.966 4.886.872 8.54-.809 0 0 10.852-5.382 7.9-13.542-2.951-8.16-4.774-8.507.868-13.108 5.643-4.6 13.803-16.146 3.473-17.015a9.496 9.496 0 00-2.754.148c2.907 1.208 5.799 3.603 2.061 8.037-6.224 7.381-9.553 9.987-8.829 14.763.706 4.658.305 15.232-11.259 21.526z" opacity=".25"/><path fill="#83b6ec" d="M112.615 223.056s-9.549-.347-9.028-7.205c.52-6.858.786-7.127-5.209-9.289-10.59-3.82-2.206-24.16 6.424-11.372 5.99 8.877 8.594 6.88 12.5 7.574 3.907.695 12.414 23.33-4.687 20.292z"/><path fill="#476488" d="M117.303 202.764c-3.907-.694-6.511 1.302-12.5-7.574-4.518-6.694-8.963-4.307-10.66.032 2.542-.778 6.402-1.245 6.883 2.89.624 5.366 13.176 14.176 12.92 25.128.167.017.328.03.49.042a2598.09 2598.09 0 016.3-16.387c-1.104-2.295-2.422-3.951-3.433-4.13z" opacity=".29"/><path fill="#476488" d="M114.829 222.752s-11.85-11.589-7.813-13.542c4.036-1.953 11.98 4.427 7.552-2.474-4.427-6.901-9.582-17.651-3.462-15.959 6.12 1.693 6.563 3.553 5.806-4.485-.98-10.397 4.818-15.755 10.287-12.37 5.469 3.386-4.688 26.303-.912 23.83 3.776-2.475 6.902-4.558 7.683-1.563.781 2.994-10.811 14.753-6.51 12.76 5.338-2.474 6.12 1.954 4.427 4.688-1.693 2.735-8.725 19.011-17.058 9.115z"/><path fill="#2c3c4d" d="M131.887 213.637c1.692-2.734.911-7.162-4.428-4.688-4.3 1.993 7.292-9.766 6.511-12.76-.781-2.995-3.906-.912-7.683 1.562-3.776 2.474 6.38-20.443.912-23.829a5.581 5.581 0 00-7.12.598c2.83.692 5.098 2.97 3.526 9.118-3.329 13.027-5.355 23.882.724 20.698 5.726-3-6.65 10.823-6.776 20.785 7.105 4.06 12.829-9.053 14.334-11.484z" opacity=".48"/><path fill="#d3e3eb" d="M106.624 224.111l2.293 20.763a5.122 5.122 0 005.091 4.56h13.236a5.122 5.122 0 005.091-4.56l2.293-20.763a1.908 1.908 0 00-1.896-2.117H108.52a1.908 1.908 0 00-1.896 2.117z"/><path fill="#b0c4cb" d="M132.732 221.994h-8.395a1.908 1.908 0 011.897 2.117l-2.294 20.763a5.122 5.122 0 01-5.091 4.56h8.395a5.122 5.122 0 005.091-4.56l2.293-20.763a1.908 1.908 0 00-1.896-2.117z"/><path fill="#23d87d" d="M26.33 86.967c14.116.016 25.556 11.456 25.572 25.573 0 14.123-11.45 25.571-25.573 25.571-14.122 0-25.571-11.449-25.571-25.572s11.449-25.572 25.571-25.572zm0 52.008c14.592-.017 26.418-11.843 26.435-26.436 0-14.6-11.835-26.435-26.435-26.435-14.6 0-26.436 11.835-26.436 26.435 0 14.6 11.836 26.436 26.435 26.436z"/><path fill="#252f5a" d="M326.098 67.285a8.419 8.419 0 11-16.837-.001 8.419 8.419 0 0116.837.001z"/><path fill="#ffa76c" d="M339.884 205.54l-13.786 23.884h27.575z"/><path fill="#23d87d" d="M110.121 223.323l-18.443 18.44-6.748-25.191zm1.14.081l.526-.53-28.078-7.523 7.328 27.359.196.723z"/><path fill="#252f5a" d="M103.24 33.576L86.638 16.972 103.241.37l16.603 16.603zm56.292 124.59l-37.363-37.363.614-.614 37.363 37.363z"/></svg>