<svg xmlns="http://www.w3.org/2000/svg" width="560" height="503"><path fill="#d3e3eb" d="M0 491.258c0-6.097 125.36-11.039 280-11.039s280 4.942 280 11.039c0 6.096-125.36 11.038-280 11.038S0 497.354 0 491.258z" opacity=".43"/><path fill="#b0c4cb" d="M371.366 480.274V358.461h12.738v121.813z"/><path fill="#91adb7" d="M371.366 375.585v-17.124h12.738v17.124z"/><path fill="#b0c4cb" d="M429.13 480.316H322.337a7.38 7.38 0 00-7.38 7.38v3.798H436.51v-3.798a7.38 7.38 0 00-7.38-7.38zm-21.197-121.734H319.66c32.12-11.535 19.694-120.201 13.757-161.393a13.768 13.768 0 0113.637-15.724h58.797c12.034-.007 22.226 8.869 23.874 20.789 5.16 37.426 13.29 115.035-2.814 145.08a21.496 21.496 0 01-18.978 11.248z"/><path fill="#82bbf1" d="M475.401.557H369.803C364.39.557 360 4.946 360 10.36v47.576c0 5.414 4.39 9.803 9.803 9.803h7.375v11.504a1.844 1.844 0 003.08 1.37l14.277-12.874h80.866c5.415 0 9.804-4.39 9.803-9.804V10.36c0-5.415-4.389-9.804-9.803-9.803z"/><path fill="#476488" d="M401.246 34.87a4.318 4.318 0 11-8.635 0 4.318 4.318 0 018.635 0zm26.56 0a4.317 4.317 0 11-8.635 0 4.317 4.317 0 018.635 0zm16.152 0a4.317 4.317 0 118.635 0 4.317 4.317 0 01-8.635 0z"/><path fill="#83b6ec" d="M450.254 241.38c0-11.645 8.223-23.314 18.368-23.314 10.144 0 18.367 11.67 18.367 23.313 0 11.645-8.223 21.084-18.367 21.084-10.145 0-18.368-9.44-18.368-21.084z"/><path fill="#476488" d="M468.622 218.066c1.611.013 3.208.313 4.714.887-7.855 2.897-13.653 12.656-13.653 22.426 0 9.77 5.798 17.964 13.653 20.357a16.13 16.13 0 01-4.714.727c-10.145 0-18.368-9.44-18.368-21.084s8.223-23.313 18.368-23.313z" opacity=".25"/><path fill="#d3e3eb" d="M489.555 255.156l-3.292 29.803a7.353 7.353 0 01-7.308 6.545h-18.998a7.353 7.353 0 01-7.309-6.545l-3.291-29.803a2.739 2.739 0 012.722-3.04h34.754a2.738 2.738 0 012.722 3.04z"/><path fill="#b0c4cb" d="M486.833 256.57H452.08a2.693 2.693 0 00-2.398 1.527l-.324-2.941a2.739 2.739 0 012.722-3.04h34.754a2.738 2.738 0 012.722 3.04l-.325 2.94a2.692 2.692 0 00-2.397-1.526z"/><path fill="#b0c4cb" d="M452.079 252.117h12.05a2.738 2.738 0 00-2.722 3.039l3.292 29.803a7.352 7.352 0 007.308 6.545h-12.05a7.353 7.353 0 01-7.309-6.545l-3.291-29.803a2.739 2.739 0 012.722-3.04z"/><path fill="#e3bd78" d="M299.874 462.294l1.245 8.613-6.554 8.387-16.621-8.139-1.8-7.876 20.69-3.128z"/><path fill="#2c3c4d" d="M286.457 490.013l-1.716-2.125a.8.8 0 00-1.232-.016l-1.723 2.02a3.594 3.594 0 01-2.796 1.262l-38.62-.658a2.073 2.073 0 01-.067-2.92c5.66-5.712 36.125-15.588 37.64-16.42 1.517-.833 10.834 6.406 23.177-.25a130.752 130.752 0 012.29 15.933 4.41 4.41 0 01-4.46 4.655l-9.801-.167a3.538 3.538 0 01-2.692-1.314zm84.292-173.271s16.035 17.726-13.329 36.99c-20.6 13.516-36.835 9.387-49.765 17.579a10.89 10.89 0 00-5.551 8.364l-.657 82.872-1.563.776a28.472 28.472 0 01-24.763.27l-11.694-94.556c-.418-6.517 3.104-12.013 7.14-17.147 22.452-28.562 62.21-38.24 72.273-39.89 13.082-2.146 27.909 4.742 27.909 4.742z"/><path fill="#e3bd78" d="M363.733 462.284l1.365 8.596-6.44 8.474-16.731-7.908-1.909-7.853 20.646-3.41z"/><path fill="#2c3c4d" d="M350.697 490.184l-1.745-2.1a.8.8 0 00-1.231 0l-1.695 2.044a3.597 3.597 0 01-2.78 1.3l-38.625-.13a2.074 2.074 0 01-.107-2.918c5.582-5.79 35.908-16.082 37.413-16.934 1.504-.853 10.92 6.257 23.17-.566a130.755 130.755 0 012.507 15.899 4.41 4.41 0 01-4.396 4.715l-9.802-.032a3.537 3.537 0 01-2.709-1.278zm68.798-188.898s19.43 21.656-8.665 46.116c-19.71 17.161-37.397 9.823-49.81 20.288a11.552 11.552 0 00-4.633 9.587l8.872 84.296-.669.434a26.705 26.705 0 01-25.906 1.766l-21.968-88.828c-1.376-6.789 1.537-13.07 5.042-19.045 19.496-33.24 50.108-53.051 60.447-56.23 13.44-4.132 37.29 1.616 37.29 1.616z"/><path fill="#1f2e40" d="M312.301 368.937a38.551 38.551 0 014.526-1.572 38.66 38.66 0 014.935-11.472 152.137 152.137 0 0133.38-39.132c-7.04-1.195-10.624-2.703-12.572-4.684a132.358 132.358 0 00-21.091 5.721c-9.555 15.967-9.524 41.898-9.178 51.139z"/><path fill="#d3e3eb" d="M367.18 186.682s28.024-3.737 39.67 18.099c11.646 21.835 29.037 107.434 13.83 110.037-6.733 1.153-24.687 5.672-44.583 4.216-27.353-2.002-33.3-4.519-35.272-9.721l-17.426-79.77a33.732 33.732 0 0113.229-28.163 95.012 95.012 0 0130.553-14.698z"/><path fill="#b0c4cb" d="M323.508 222.53s-.364 48.04-15.467 50.951c-15.104 2.912-55.32 2.002-55.32 2.002v15.285h86.254z"/><path fill="#d4904f" d="M344.392 200.736l-3.398-16.991 22.037-16.785 4.223 20.029s-6.951 30.584-22.862 13.747z"/><path fill="#2c3c4d" d="M316.279 151.362s11.53 5.61 28.422-4.683c0 0 3.918 7.043 15.237 13.334 0 0 5.882-9.862 9.268-2.472a15.612 15.612 0 011.557 6.03c10.603-13.692 3.127-31.734-6.76-41.459-9.366-9.23-29.645-5.56-42.311-.47-13.445 5.413-15.917-4.003-15.917-4.003-16.991 23.936 10.504 33.723 10.504 33.723z"/><path fill="#e3bd78" d="M359.942 160.008s5.883-9.86 9.268-2.471c4.107 8.963-.527 14.584-6.088 14.584 0 0-4.416 23.312-25.835 21.664-21.42-1.647-24.51-36.042-21.008-42.427 0 0 11.534 5.613 28.422-4.685 0 0 3.914 7.053 15.241 13.335z"/><path fill="#d3e3eb" d="M174.288 214.534h89.407a9.273 9.273 0 019.086 7.419l11.902 58.34H176.35l-11.146-54.632a9.273 9.273 0 019.085-11.127z"/><path fill="#8ba6af" d="M324.452 280.3H176.694a4.413 4.413 0 00-4.413 4.412v1.43a4.413 4.413 0 004.413 4.412h147.758a4.413 4.413 0 004.413-4.413v-1.429a4.413 4.413 0 00-4.413-4.413z"/><path fill="#b0c4cb" d="M176.694 280.299H285.87a4.414 4.414 0 00-4.413 4.413v1.43a4.413 4.413 0 004.413 4.412H176.694a4.413 4.413 0 01-4.413-4.413v-1.429a4.414 4.414 0 014.413-4.413z"/><path fill="#d3e3eb" d="M319.687 277.17c17.407-2.027 66.239-7.009 74.607-7.875 10.555-1.091-12.374-43.672-14.921-58.23-2.548-14.557 8.552-15.103 8.552-15.103 6.266-.783 13.102 0 18.925 8.819 11.918 18.05 25.193 70.813 18.197 83.84a4.714 4.714 0 01-4.163 2.465H319.687z"/><path fill="#b0c4cb" d="M319.687 277.171s62.87-4.327 76.427-6.147c10.516-1.411-11.404-45.037-13.951-59.595-2.547-14.557 8.734-13.95 8.734-13.95a27.012 27.012 0 019.817.921 18.194 18.194 0 00-12.796-2.445s-11.093.553-8.545 15.11c2.547 14.558 22.2 56.23 15.558 57.867-8.17 2.014-57.833 6.216-75.244 8.24z"/><path fill="#e3bd78" d="M319.687 291.314h-23.452a2.215 2.215 0 01-1.86-3.424c2.197-3.375 5.666-8.142 8.206-8.95 1.517-.482 12.92-.057 17.106.387z"/><path fill="#d4904f" d="M316.279 151.358a18.7 18.7 0 005.311 1.325c.285 1.587.796 4.638 1.072 7.53.392 4.125-1.67 16.894-.393 16.992a37.24 37.24 0 003.929-.098s1.964 18.466 20.43 15.52c.175-.029.313-.047.479-.073a23.342 23.342 0 01-9.82 1.231c-21.42-1.647-24.51-36.042-21.008-42.427z" opacity=".67"/><path fill="#83b6ec" d="M47.452 419.674s-29.455-14.61-21.443-36.76c8.012-22.15 12.96-23.093-2.357-35.582-15.316-12.49-37.466-43.83-9.425-46.186 28.04-2.357 26.627 34.875 49.956 40.059 23.329 5.184 36.053 102.74-16.73 78.469z"/><path fill="#476488" d="M70.635 421.869c-5.657 2.623-13.262 2.366-23.183-2.195 0 0-29.455-14.61-21.443-36.76 8.012-22.151 12.96-23.094-2.357-35.582-15.316-12.49-37.466-43.83-9.425-46.186a25.777 25.777 0 017.475.4c-7.891 3.278-15.742 9.781-5.596 21.815 16.895 20.038 25.931 27.11 23.967 40.076-1.916 12.643-.827 41.347 30.562 58.432z" opacity=".25"/><path fill="#83b6ec" d="M97.408 418.967s25.921-.943 24.507-19.559c-1.414-18.615-2.134-19.345 14.139-25.214 28.748-10.367 5.989-65.584-17.438-30.868-16.26 24.094-23.328 18.674-33.932 20.56-10.604 1.885-33.697 63.328 12.724 55.08z"/><path fill="#476488" d="M84.684 363.885c10.604-1.885 17.673 3.535 33.932-20.56 12.262-18.17 24.327-11.691 28.933.088-6.9-2.112-17.377-3.382-18.682 7.844-1.694 14.565-35.768 38.48-35.071 68.208-.454.049-.89.08-1.329.114-4.957-13.074-11.501-30.032-17.102-44.481 2.997-6.23 6.573-10.725 9.319-11.213z" opacity=".29"/><path fill="#476488" d="M91.4 418.142s32.165-31.458 21.207-36.76c-10.957-5.302-32.518 12.018-20.5-6.716 12.017-18.734 26.01-47.914 9.398-43.319-16.613 4.595-17.816 9.643-15.76-12.175 2.658-28.222-13.079-42.769-27.924-33.579-14.846 9.19 12.724 71.4 2.474 64.684-10.25-6.716-18.734-12.371-20.855-4.242-2.12 8.13 29.347 40.05 17.674 34.64-14.492-6.716-16.613 5.302-12.018 12.725 4.595 7.422 23.682 51.605 46.303 24.742z"/><path fill="#2c3c4d" d="M45.096 393.4c-4.595-7.423-2.474-19.44 12.018-12.725 11.673 5.41-19.794-26.51-17.674-34.64 2.121-8.13 10.604-2.474 20.855 4.242 10.25 6.716-17.32-55.494-2.474-64.684a15.15 15.15 0 0119.327 1.623c-7.685 1.88-13.838 8.06-9.573 24.752 9.037 35.36 14.537 64.827-1.964 56.183-15.544-8.142 18.052 29.38 18.394 56.42-19.288 11.023-34.825-24.574-38.91-31.171z" opacity=".48"/><path fill="#d3e3eb" d="M113.672 421.831l-6.225 56.361a13.904 13.904 0 01-13.82 12.378h-35.93a13.905 13.905 0 01-13.82-12.378l-6.225-56.361a5.179 5.179 0 015.147-5.747h65.724a5.179 5.179 0 015.148 5.747z"/><path fill="#b0c4cb" d="M42.8 416.084h22.788a5.179 5.179 0 00-5.147 5.747l6.224 56.361a13.905 13.905 0 0013.821 12.378H57.698a13.905 13.905 0 01-13.82-12.378l-6.225-56.36a5.179 5.179 0 015.147-5.748z"/><path fill="#5d8ac8" d="M497.896 291.132H112.67a7.83 7.83 0 00-7.83 7.83v2.537a7.83 7.83 0 007.83 7.83h385.225a7.83 7.83 0 007.83-7.83v-2.537a7.83 7.83 0 00-7.83-7.83z"/><path fill="#4772a6" d="M112.67 291.132h385.226a7.83 7.83 0 017.83 7.83v2.537a7.75 7.75 0 01-.406 2.37 7.803 7.803 0 00-7.425-5.459H112.671a7.804 7.804 0 00-7.425 5.46 7.748 7.748 0 01-.405-2.37v-2.538a7.83 7.83 0 017.83-7.83z"/><path fill="#476488" d="M376.138 490.843h12.874l89.573-181.424H465.71z"/><path fill="#476488" d="M517.891 490.843h-12.876L415.444 309.42h12.874zm-419.075 0h12.874l89.573-181.424h-12.874z"/><path fill="#476488" d="M240.57 490.843h-12.877l-89.57-181.424h12.874z"/><path fill="#293951" d="M462.161 316.607l3.55-7.188h12.874l-3.55 7.188zm-43.17 0l-3.547-7.188h12.874l3.55 7.188zm-234.151 0l3.549-7.188h12.874l-3.547 7.188zm-43.17 0l-3.548-7.188h12.875l3.549 7.188z"/></svg>