<svg xmlns="http://www.w3.org/2000/svg" width="860" height="899"><path fill="#e2e2f7" d="M753.818 813.024H53.773a7.085 7.085 0 01-7.065-7.063 7.085 7.085 0 017.065-7.063h700.045a7.085 7.085 0 017.065 7.063 7.085 7.085 0 01-7.065 7.063z"/><path fill="#fff" d="M546.138 152.72c-.17.171-16.403 16.235-33.48 16.235a25.695 25.695 0 01-2.703-.14 28.62 28.62 0 01-20.997-14.427c-9.537-14.659-3.267-38.717 17.657-67.742a259.775 259.775 0 0159.141-58.777c1.122 29.415 16.619 54.622 30.304 76.888 16.153 26.274 28.91 47.027 9.27 62.617a31.49 31.49 0 01-24.055 7.342c-19.134-2.342-34.28-21.753-34.433-21.95l-.327-.423zm38.914 23.167a33.105 33.105 0 0020.865-7.777c20.29-16.108 7.338-37.174-9.057-63.845-13.755-22.377-29.344-47.738-30.194-77.261l-.026-.838-.7.458a259.248 259.248 0 00-60.088 59.473c-14.972 20.772-30.194 49.569-17.679 68.804a29.514 29.514 0 0021.687 14.85c17.008 1.776 33.857-13.436 36.567-16.003 2.329 2.853 16.773 19.699 34.73 21.9a31.42 31.42 0 003.895.24z"/><path fill="#fff" d="M570.143 255.083c-.205-.264-20.344-27.265-24.143-102.006-3.788-74.68 12.163-111.286 12.324-111.648l.859.386c-.162.357-16.021 36.789-12.245 111.214 3.781 74.396 23.748 101.22 23.95 101.482z"/><path fill="#fff" d="M591.9 140.978c-12.59-14.131-37.041-15.961-45.74-9.626l-.55-.76c9.157-6.686 33.87-4.968 46.993 9.762zm-45.908-28.112c-.172-.126-17.755-12.634-42.35-.905l-.403-.847c25.122-11.983 43.127.865 43.311.995zm25.446-27.214a19.528 19.528 0 00-21.895-5.622l-.323-.883a20.492 20.492 0 0122.966 5.933zm-18.397-26.276c-.044-.035-4.151-3.47-12.684-.32l-.323-.88c9.083-3.356 13.443.335 13.627.494zm-52.622 72.746l-.455-.822a50.535 50.535 0 0146.138-3.012l-.447.825a49.585 49.585 0 00-45.236 3.009zM581.81 110.5a35.452 35.452 0 00-34.921-4.93l-.403-.846a36.392 36.392 0 0135.896 5.03zm-33.814-22.66a26.21 26.21 0 00-27.066-2.766l-.359-.869a27.166 27.166 0 0128.056 2.943zm18.121-23.864c-5.361-4.928-13.396-.53-13.476-.486l-.463-.817c.089-.048 8.706-4.78 14.577.61zm-10.112-15.405c-.066-.071-1.642-1.66-5.625-.471l-.271-.898c4.605-1.372 6.505.645 6.59.731l-.697.634.348-.317z"/><path fill="#33ff9d" d="M80.333 570.04c.426-.004.855-.007 1.295-.007 27.527.834 54.75 6 80.67 15.31 33.634 12.218 52.353 28.576 52.717 46.064a28.62 28.62 0 01-9.23 23.737c-13.84 11.69-38.727 7.11-38.973 7.062l-.525-.099-.033.536c-.014.245-1.602 24.803-16.105 37.517a31.497 31.497 0 01-24.019 7.47c-25.009-1.834-26.142-26.168-27.576-56.979-1.217-26.105-2.596-55.66-18.22-80.611zm48.845 138.642a31.726 31.726 0 0021.59-7.818c13.606-11.926 16.066-33.979 16.385-37.646 3.682.59 26.179 3.67 39.233-7.356a29.502 29.502 0 009.567-24.477c-.477-22.94-29.266-38.18-53.332-46.923a259.57 259.57 0 00-83.142-15.346l-.836.018.45.704c15.912 24.885 17.298 54.62 18.523 80.857 1.455 31.272 2.607 55.977 28.448 57.873a43.46 43.46 0 003.114.114z"/><path fill="#33ff9d" d="M204.582 760.339l-.939-.051c.019-.33 1.427-33.744-37.319-97.363-38.778-63.677-72.379-84.84-72.713-85.045l.492-.799c.337.21 34.129 21.489 73.02 85.353 38.926 63.92 37.477 97.575 37.459 97.905z"/><path fill="#33ff9d" d="M122.38 678.252l-.932-.125c2.526-19.332 21.554-34.521 32.947-34.521.136 0 .272.004.404.007l-.03.94a8.705 8.705 0 00-.362-.008c-10.818 0-29.604 15.148-32.028 33.707zm22.148-49.079l-.887-.316c.077-.208 7.734-20.964 35.243-25.195l.14.931c-26.93 4.14-34.426 24.375-34.496 24.58zm-36.377-8.183l-.939-.05a20.475 20.475 0 0115.647-17.83l.228.91a19.505 19.505 0 00-14.936 16.97zm.418-32.078l-.91-.234c.06-.235 1.581-5.736 10.99-8.075l.228.91c-8.826 2.196-10.293 7.348-10.308 7.4zm45.386 53.506l-.836-.433a50.502 50.502 0 0139.835-23.472l.088.931a49.536 49.536 0 00-39.087 22.974zm-40.388 4.955l-.895-.293a36.4 36.4 0 0126.84-24.36l.146.924a35.452 35.452 0 00-26.09 23.729zm15.189-37.764l-.91-.22a27.153 27.153 0 0121.53-18.217l.198.916a26.18 26.18 0 00-20.818 17.521zm-28.404-9.532l-.917-.212c1.818-7.76 11.606-8.702 11.705-8.713l.08.939c-.091.007-9.208.894-10.868 7.986zm-.312-18.43l-.932-.136c.019-.117.463-2.86 5.031-4.313l.286.895c-3.967 1.258-4.37 3.462-4.385 3.554z"/><path fill="#252f5a" d="M445.999 160.737s-21.506 65.626-72.784 47.956C309.925 186.883 387.88 88.837 359.433.141c56.674 13.779 179.15 78.543 165.42 135.193-13.73 56.65-78.854 25.403-78.854 25.403z"/><path fill="#fff" d="M462.426 309.544l-.895-.294c.147-.449 14.339-46.164-15.988-148.38-30.33-102.231-69.082-143.84-69.47-144.25l.681-.645c.39.409 39.288 42.152 69.691 144.628 30.422 102.55 16.128 148.488 15.981 148.94z"/><path fill="#fff" d="M378.794 165.99l-.866-.356c10.65-26.024 42.996-40.047 58.489-35.404l-.272.898c-14.785-4.424-47.058 9.725-57.351 34.862zm48.559-59.79l-.778-.528c.176-.263 18.265-26.05 57.748-21.86l-.103.934c-38.877-4.144-56.691 21.199-56.867 21.454zm-47.297-24.547l-.895-.29a29.066 29.066 0 0127.572-18.791l.381.001-.007.94c-.125-.003-.25-.003-.37-.003a28.086 28.086 0 00-26.681 18.143zm12.326-44.228l-.821-.46c.168-.295 4.184-7.252 17.968-7.044l-.015.939c-13.135-.198-17.095 6.498-17.132 6.565zm43.176 90.505l-.696-.63c.227-.246 22.937-24.674 63.471-17.822l-.154.924c-40.017-6.744-62.397 17.286-62.62 17.528zm-57.642-7.88l-.785-.514a51.883 51.883 0 0145.826-23.772l-.095.935a50.897 50.897 0 00-44.946 23.35zm34.814-46.63l-.83-.443A38.242 38.242 0 01445.558 55.7c.85 0 1.708.02 2.592.065l-.044.938c-25.423-1.288-35.28 16.537-35.375 16.717zm-35.8-23.565l-.829-.44c5.28-9.942 19.002-7.681 19.149-7.655l-.161.924c-.125-.02-13.198-2.158-18.16 7.17zm6.296-25.572l-.862-.37c.063-.15 1.636-3.671 8.361-4l.044.94c-6.09.296-7.484 3.302-7.543 3.43z"/><path fill="#252f5a" d="M104.443 682.692s9.33 37.439-20.18 44.319c-36.423 8.492-28.684-61.06-68.503-94.566 30.907-10.325 108.096-16.087 118.438 14.794 10.341 30.88-29.755 35.453-29.755 35.453z"/><path fill="#fff" d="M155.734 748.389c-.066-.257-6.941-26.054-51.602-65.339-44.708-39.332-75.345-47.473-75.65-47.55l.23-.91c.307.078 31.165 8.277 76.043 47.756 44.917 39.516 51.826 65.559 51.889 65.815z"/><path fill="#fff" d="M73.494 705.273c-2.713-15.577 8.526-31.94 17.298-34.367l.249.902c-8.25 2.284-19.208 18.452-16.623 33.304zm6.124-42.84l-.938-.037c.007-.176.909-17.884 20.938-27.682l.41.843c-19.504 9.542-20.403 26.704-20.41 26.876zm-30.581 2.608a16.451 16.451 0 017.732-17.421l.492.799a15.26 15.26 0 00-7.314 16.395zm-7.336-24.731c-.009-.195-.164-4.804 6.506-8.86l.487.8c-6.154 3.743-6.056 7.975-6.054 8.016zm48.251 29.998l-.924-.165a40.465 40.465 0 0124.858-27.455l.36.865a39.516 39.516 0 00-24.294 26.754zm-29.598 13.365l-.94-.014a29.203 29.203 0 0114.73-25.053l.417.843a28.232 28.232 0 00-14.207 24.224zm1.672-32.364a21.789 21.789 0 0112.136-19.113l.462.822a20.814 20.814 0 00-11.663 18.225zM38.09 650.8c-.466-6.418 6.839-9.487 6.912-9.516l.356.865c-.068.03-6.748 2.85-6.333 8.584zm-4.613-13.912c-.015-.092-.34-2.35 2.85-4.576l.536.77c-2.67 1.862-2.468 3.59-2.459 3.663z"/><path fill="#33ff9d" d="M736.752 686.35s-11.892 53.052 29.91 61.757c51.595 10.745 38.366-86.976 93.338-135.51-43.885-13.512-152.816-19.045-166.35 24.804-13.536 43.848 43.102 48.948 43.102 48.948z"/><path fill="#252f5a" d="M666.51 780.605l-.917-.205c.084-.367 8.929-37.227 70.839-94.355 61.865-57.084 105.019-69.651 105.444-69.772l.257.902c-.43.121-43.388 12.648-105.063 69.56-61.697 56.93-70.48 93.507-70.56 93.87z"/><path fill="#252f5a" d="M780.916 717.094l-.932-.14c3.161-21.103-12.904-43.615-24.667-46.57l.227-.91c12.369 3.106 28.658 25.676 25.372 47.62zm-9.677-60.127c-.015-.242-1.86-24.503-29.765-37.34l.389-.852c28.437 13.077 30.3 37.884 30.314 38.133zm42.79 2.62l-.917-.205a22.047 22.047 0 00-10.942-23.059l.47-.814a22.993 22.993 0 0111.389 24.078zm9.497-35.049l-.938-.022c0-.062.015-6.128-8.893-11.254l.47-.814c9.427 5.427 9.369 11.822 9.361 12.09zm-66.589 43.836c-.054-.253-5.5-25.475-35.232-37.01l.338-.874c30.23 11.727 35.76 37.44 35.811 37.7zm42.149 17.874a39.972 39.972 0 00-20.935-33.817l.396-.85a40.924 40.924 0 0121.478 34.63zm-3.817-45.54l-.939-.044a29.583 29.583 0 00-17.14-25.46l.44-.828a30.511 30.511 0 0117.639 26.332zm33.699-1.518l-.938-.043c.4-8.237-9.234-12.032-9.333-12.068l.338-.88c.102.04 10.366 4.074 9.933 12.992zm6.036-19.769l-.931-.124.466.062-.466-.058c.011-.107.264-2.652-3.675-5.263l.521-.785c4.466 2.963 4.104 6.04 4.085 6.168z"/><path fill="#252f5a" d="M703.502 585.909c-.34.121-34.54 11.877-60.007-.605a46.472 46.472 0 01-23.78-28.393c-11.698-35.042 20.653-50.352 61.61-69.737 34.7-16.425 74-35.026 98.872-70.403 10.931 25.155 23.553 73.061 25.757 119.93 2.468 52.479-9.13 87.11-32.662 97.513-13.997 6.183-26.619 6.495-37.51.91-23.717-12.164-31.59-48.503-31.667-48.867l-.11-.524zm48.9 54.129a52.746 52.746 0 0021.272-4.966c30.645-13.55 34.979-60.996 33.219-98.414-2.233-47.47-15.134-96.015-26.171-121.031l-.338-.767-.477.688c-24.704 35.617-64.168 54.297-98.986 70.776-41.375 19.582-74.058 35.053-62.093 70.887a47.353 47.353 0 0024.257 28.936c24.114 11.816 55.881 2.223 60.226.815 1.06 4.513 9.483 37.429 32.039 48.994a36.868 36.868 0 0017.051 4.082z"/><path fill="#252f5a" d="M592.873 692.5l-.308-.888c.454-.161 46.486-17.124 110.71-105.521 64.238-88.415 73.912-145.879 74.003-146.449l.924.147c-.088.572-9.78 58.233-74.164 146.852-64.433 88.679-110.703 105.697-111.165 105.858z"/><path fill="#252f5a" d="M721.573 559.876c-5.622-14.807-37.26-32.225-64.122-24.91l-.249-.91c27.818-7.542 59.372 10.015 65.25 25.49zm67.726 10.174c-20.887-34.22-52.574-32.918-52.922-32.882l-.051-.938c.337.003 32.603-1.354 53.772 33.329zm-30.807-75.964a28.813 28.813 0 00-31.63-10.695l-.316-.884a29.772 29.772 0 0132.694 11.014zm28.057-18.406c-8.038-10.817-15.963-9.847-16.032-9.847l-.133-.928c.349-.048 8.508-1.096 16.92 10.214zm-9.417 121.72c-19.468-36.765-52.974-39.98-53.311-40.006l.08-.939c.342.03 34.346 3.271 54.06 40.506zm-35.805-69.804a52.318 52.318 0 00-47.025-21.996l-.074-.936a53.09 53.09 0 0147.899 22.44zm48.262-4.412c-14.822-21.456-35.457-18.38-35.666-18.35l-.15-.928c.22-.035 21.434-3.188 36.585 18.742zm-21.647-51.857c-.062-.123-6.505-12.116-17.169-10.306l-.154-.928c11.324-1.89 18.09 10.67 18.152 10.797zm15.061-17.132c-4.049-4.78-7.46-4.002-7.503-3.999l-.231-.91c.161-.041 3.993-.963 8.452 4.3z"/><path fill="#f5f5f7" d="M83.06 791.404c14.526 0 14.526-115.822 0-115.822h433.465c14.524 0 14.524 115.822 0 115.822z"/><path fill="#ebebed" d="M524.98 695.407H90.755a1.878 1.878 0 010-3.755H524.98a1.877 1.877 0 110 3.755zm0 22.814H90.755a1.878 1.878 0 010-3.755H524.98a1.878 1.878 0 010 3.755zm0 34.254H90.755a1.877 1.877 0 110-3.755H524.98a1.877 1.877 0 110 3.755zm0 22.809H90.755a1.878 1.878 0 010-3.755H524.98a1.878 1.878 0 010 3.755zm0-68.47H90.755a1.878 1.878 0 010-3.755H524.98a1.878 1.878 0 010 3.755zm0 22.853H90.755a1.878 1.878 0 010-3.755H524.98a1.878 1.878 0 010 3.755zm0 11.403H90.755a1.878 1.878 0 010-3.754H524.98a1.878 1.878 0 010 3.755zm0 22.81H90.755a1.878 1.878 0 010-3.755H524.98a1.878 1.878 0 010 3.755z"/><path fill="#3021bf" d="M516.72 791.404c14.524 0 14.524-115.822 0-115.822h211.63c14.524 0 14.524 115.822 0 115.822z"/><path fill="#3021bf" d="M726.155 783.877H530.22c2.816-9.5 4.919-25.007 4.919-50.392 0-25.346-2.103-40.891-4.919-50.391h195.935c7.51 13.48 7.51 87.34 0 100.783zm2.178-115.803H516.702a7.507 7.507 0 00-2.44 14.606c7.847 12.43 7.847 89.181 0 101.61a7.507 7.507 0 002.44 14.607h211.631c4.582 0 18.437 0 18.437-65.412s-13.855-65.411-18.437-65.411z"/><path fill="#3932d6" d="M686.799 783.877a81.067 81.067 0 01-3.792 15.02h-55.725a81.12 81.12 0 003.793-15.02 371.282 371.282 0 000-100.783 81.1 81.1 0 00-3.793-15.02h55.724a81.054 81.054 0 013.793 15.02 368.237 368.237 0 010 100.783z"/><path fill="#462be2" d="M516.524 798.914H83.061a7.51 7.51 0 010-15.02h431.256c7.528-13.469 7.528-87.333 0-100.802H83.061a7.51 7.51 0 010-15.02h433.463c4.551 0 18.405 0 18.405 65.423 0 65.419-13.854 65.419-18.405 65.419z"/><path fill="#ebebed" d="M463.538 706.234v50.7a2.787 2.787 0 003.677 2.641l12.106-4.082 12.106 4.082a2.787 2.787 0 003.678-2.64v-50.701a2.445 2.445 0 00-2.445-2.445h-26.677a2.445 2.445 0 00-2.445 2.445z"/><path fill="#ebebed" d="M479.322 753.615c-.205 0-.408.034-.602.1l-12.108 4.08a.862.862 0 01-.817-.124.886.886 0 01-.378-.737v-50.7c0-.312.252-.566.565-.568h26.677a.571.571 0 01.568.568v50.7a.886.886 0 01-.378.737.859.859 0 01-.82.125l-12.105-4.082a1.874 1.874 0 00-.602-.099zm-12.996 7.983a4.62 4.62 0 001.489-.245l11.507-3.88 11.507 3.88a4.663 4.663 0 006.153-4.419v-50.7a4.329 4.329 0 00-4.323-4.323h-26.677a4.326 4.326 0 00-4.32 4.323v50.7a4.665 4.665 0 004.664 4.664z"/><path fill="#33ff9d" d="M461.742 704.872v50.7a2.787 2.787 0 003.677 2.64l12.106-4.081 12.107 4.082a2.786 2.786 0 003.677-2.64v-50.701a2.445 2.445 0 00-2.445-2.445h-26.677a2.445 2.445 0 00-2.445 2.445z"/><path fill="#33ff9d" d="M490.865 704.305a.568.568 0 01.565.569v50.7a.909.909 0 01-1.196.861l-12.108-4.081a1.873 1.873 0 00-1.203 0l-12.1 4.081a.911.911 0 01-1.203-.862v-50.7a.571.571 0 01.568-.568zm-.344 55.933a4.666 4.666 0 004.664-4.665v-50.7a4.326 4.326 0 00-4.32-4.323h-26.677a4.329 4.329 0 00-4.323 4.324v50.7a4.664 4.664 0 006.156 4.418l11.504-3.88 11.506 3.88c.48.163.983.246 1.49.246z"/><path fill="#ebebed" d="M749.515 660.5c-14.525 0-14.525-115.822 0-115.822h-269.71c-14.526 0-14.526 115.822 0 115.822z"/><path fill="#f5f5f7" d="M471.348 564.536h270.474a1.878 1.878 0 000-3.755H471.348a1.877 1.877 0 100 3.755zm0 22.814h270.474a1.877 1.877 0 000-3.755H471.348a1.878 1.878 0 000 3.755zm0 34.22h270.474a1.878 1.878 0 000-3.755H471.348a1.878 1.878 0 000 3.755zm0 22.814h270.474a1.878 1.878 0 000-3.755H471.348a1.877 1.877 0 100 3.755zm0-68.441h270.474a1.877 1.877 0 000-3.755H471.348a1.877 1.877 0 100 3.755zm0 22.813h270.474a1.877 1.877 0 100-3.755H471.348a1.877 1.877 0 100 3.755zm0 11.407h270.474a1.877 1.877 0 000-3.755H471.348a1.878 1.878 0 000 3.755zm0 22.814h270.474a1.878 1.878 0 000-3.755H471.348a1.877 1.877 0 100 3.755z"/><path fill="#ff8a33" d="M479.67 660.5c-14.525 0-14.525-115.822 0-115.822H181.163c-14.525 0-14.525 115.822 0 115.822z"/><path fill="#ff8a33" d="M183.356 652.975c-7.51-13.443-7.51-87.304 0-100.785h282.812c-2.816 9.5-4.92 25.046-4.92 50.392 0 25.384 2.104 40.892 4.92 50.392H183.356zm-20.615-50.393c0 65.412 13.856 65.412 18.437 65.412h298.508a7.507 7.507 0 002.44-14.607c-7.847-12.429-7.847-89.18 0-101.61a7.507 7.507 0 00-2.44-14.607H181.178c-4.581 0-18.437 0-18.437 65.412z"/><path fill="#ffa76c" d="M222.663 652.975a81.082 81.082 0 003.793 15.02h28.828a81.08 81.08 0 01-3.793-15.02 371.259 371.259 0 010-100.785 81.08 81.08 0 013.793-15.02h-28.828a81.081 81.081 0 00-3.793 15.02 368.274 368.274 0 000 100.784zm169.817 0a81.052 81.052 0 003.792 15.02H425.1a81.107 81.107 0 01-3.793-15.02 371.262 371.262 0 010-100.785 81.106 81.106 0 013.793-15.02h-28.828a81.049 81.049 0 00-3.793 15.02 368.244 368.244 0 000 100.785zm-129.262 0a81.076 81.076 0 003.792 15.02h18.043a81.077 81.077 0 01-3.793-15.02 371.26 371.26 0 010-100.785 81.077 81.077 0 013.793-15.02H267.01a81.082 81.082 0 00-3.792 15.02 368.272 368.272 0 000 100.785z"/><path fill="#ffa76c" d="M288.522 652.975a81.082 81.082 0 003.793 15.02h18.042a81.11 81.11 0 01-3.792-15.02 371.258 371.258 0 010-100.785 81.11 81.11 0 013.792-15.02h-18.042a81.076 81.076 0 00-3.793 15.02 368.27 368.27 0 000 100.784z"/><path fill="#d86212" d="M479.804 668.011h269.71a7.51 7.51 0 000-15.02H482.013c-7.529-13.469-7.529-87.333 0-100.802h267.503a7.51 7.51 0 000-15.02h-269.71c-4.551 0-18.406 0-18.406 65.423 0 65.42 13.855 65.42 18.405 65.42z"/><path fill="#ebebed" d="M532.823 575.36v50.7a2.787 2.787 0 01-3.678 2.642l-12.105-4.082-12.106 4.082a2.787 2.787 0 01-3.678-2.641v-50.7a2.445 2.445 0 012.445-2.445h26.677a2.445 2.445 0 012.445 2.444z"/><path fill="#ebebed" d="M517.039 622.742a1.88 1.88 0 00-.602.099l-12.104 4.081a.86.86 0 01-.822-.124.885.885 0 01-.377-.738v-50.7a.57.57 0 01.568-.568h26.677a.568.568 0 01.565.568v50.7a.886.886 0 01-.378.738.864.864 0 01-.817.124l-12.109-4.081a1.893 1.893 0 00-.601-.1zm12.996 7.983a4.666 4.666 0 004.664-4.665v-50.7a4.325 4.325 0 00-4.32-4.323h-26.677a4.328 4.328 0 00-4.323 4.323v50.7a4.663 4.663 0 006.153 4.42l11.507-3.88 11.507 3.88c.48.163.982.245 1.489.245z"/><path fill="#3021bf" d="M534.619 573.998v50.7a2.787 2.787 0 01-3.678 2.641l-12.106-4.082-12.106 4.082a2.787 2.787 0 01-3.677-2.64v-50.7a2.445 2.445 0 012.444-2.446h26.678a2.445 2.445 0 012.445 2.445z"/><path fill="#3021bf" d="M532.173 573.432a.57.57 0 01.568.568v50.7a.911.911 0 01-1.202.862l-12.101-4.082a1.873 1.873 0 00-1.203 0l-12.109 4.082a.909.909 0 01-1.195-.862V574c0-.313.252-.567.565-.568zm-26.333 55.932c.507 0 1.01-.082 1.49-.245l11.506-3.88 11.504 3.88a4.664 4.664 0 006.156-4.42V574a4.329 4.329 0 00-4.323-4.323h-26.677a4.326 4.326 0 00-4.32 4.324v50.7a4.666 4.666 0 004.664 4.664z"/><path fill="#23d87d" d="M215.764 460.98h495.699c26.76 0 26.76 70.615 0 70.615h-495.7"/><path fill="#23d87d" d="M711.464 537.54h-495.7a5.945 5.945 0 010-11.89h495.7c9.175 0 14.124-15.128 14.124-29.362 0-14.235-4.949-29.363-14.124-29.363h-495.7a5.945 5.945 0 010-11.889h495.7c17.874 0 26.013 21.383 26.013 41.252 0 19.868-8.139 41.251-26.013 41.251z"/><path fill="#f5f5f7" d="M68.126 531.595c26.76 0 26.76-70.615 0-70.615h343.108c26.76 0 26.76 70.615 0 70.615z"/><path fill="#ebebed" d="M417.928 484.229H85.353a1.486 1.486 0 110-2.972h332.575a1.486 1.486 0 110 2.972zm0 27.088H85.353a1.486 1.486 0 010-2.973h332.575a1.486 1.486 0 010 2.973zm0-36.117H83.248a1.486 1.486 0 010-2.972h334.68a1.486 1.486 0 110 2.972zm0 18.058H87.46a1.486 1.486 0 010-2.972h330.468a1.486 1.486 0 110 2.972zm0 9.029H87.46a1.486 1.486 0 110-2.972h330.468a1.486 1.486 0 110 2.972zm0 18.059H83.248a1.486 1.486 0 010-2.973h334.68a1.486 1.486 0 010 2.973z"/><path fill="#33ff9d" d="M411.234 537.54H68.126a5.945 5.945 0 110-11.89h343.108c9.175 0 14.124-15.128 14.124-29.362 0-14.235-4.949-29.363-14.124-29.363H68.126a5.945 5.945 0 010-11.889h343.108c17.875 0 26.013 21.383 26.013 41.252 0 19.868-8.139 41.251-26.013 41.251z"/><path fill="#ebebed" d="M372.259 476.93v24.27a2.206 2.206 0 002.91 2.09l9.583-3.231 9.582 3.231a2.206 2.206 0 002.911-2.09v-24.27a1.936 1.936 0 00-1.936-1.935h-21.115c-1.07 0-1.936.867-1.935 1.936z"/><path fill="#ebebed" d="M395.31 476.48c.248.002.45.203.45.45v24.27a.721.721 0 01-.949.681l-9.585-3.23a1.486 1.486 0 00-.951 0l-9.582 3.23a.721.721 0 01-.95-.681v-24.27a.453.453 0 01.45-.45zm-20.844 28.412c.401 0 .8-.066 1.179-.195l9.105-3.07 9.109 3.07a3.693 3.693 0 004.873-3.497v-24.27a3.426 3.426 0 00-3.422-3.421h-21.116a3.426 3.426 0 00-3.422 3.422V501.2a3.694 3.694 0 003.694 3.692z"/><path fill="#ff8a33" d="M370.837 475.852v24.27a2.206 2.206 0 002.91 2.09l9.583-3.231 9.583 3.231a2.206 2.206 0 002.91-2.09v-24.27a1.935 1.935 0 00-1.935-1.935h-21.116a1.935 1.935 0 00-1.935 1.935z"/><path fill="#ff8a33" d="M383.33 497.494c-.161 0-.322.026-.475.078l-9.585 3.232a.717.717 0 01-.946-.683v-24.269c0-.247.2-.447.447-.448h21.116c.248 0 .45.2.45.448v24.269a.72.72 0 01-.949.684l-9.581-3.233a1.487 1.487 0 00-.476-.078zm-10.283 6.32c.4-.001.797-.066 1.175-.194l9.109-3.071 9.108 3.071a3.691 3.691 0 004.87-3.5v-24.268a3.425 3.425 0 00-3.422-3.42h-21.116a3.423 3.423 0 00-3.42 3.42v24.269a3.69 3.69 0 003.696 3.692z"/><path fill="#33ff9d" d="M702.015 505.493h-231.38a9.234 9.234 0 01-9.207-9.206 9.234 9.234 0 019.207-9.207h231.381a9.234 9.234 0 019.207 9.207 9.233 9.233 0 01-9.206 9.206z"/><path fill="#462be2" d="M171.571 447.465h134.443c18.442-10.01 32.183-32.663 32.231-62.196l63.742-226.423H785.74L721.998 385.27c-.049 29.533-13.79 52.187-32.232 62.196h-218.37"/><path fill="#462be2" d="M689.767 454.973h-218.37a7.51 7.51 0 010-15.02H687.78c16.484-9.862 26.667-30.62 26.707-54.699a7.4 7.4 0 01.282-2.022l61.056-216.877H407.676L345.748 386.33c-.363 29.91-14.154 55.797-36.153 67.735-1.1.597-2.33.91-3.582.91H171.57a7.51 7.51 0 010-15.02h132.455c16.483-9.863 26.67-30.618 26.71-54.7a7.4 7.4 0 01.283-2.022l63.743-226.422a7.508 7.508 0 017.228-5.475h383.75a7.507 7.507 0 017.228 9.545l-63.468 225.45c-.363 29.907-14.155 55.796-36.15 67.734a7.524 7.524 0 01-3.582.91z"/><path fill="#f5f5f7" d="M337.207 416.865c-10.151-11.225 59.419-253.36 79.72-253.36h363.604l-69.723 252.41z"/><path fill="#ebebed" d="M367.123 375.293a1.875 1.875 0 01-1.863-2.132c7.986-58.252 27.253-121.44 58.906-193.174a1.876 1.876 0 113.432 1.515c-31.506 71.41-50.68 134.269-58.62 192.169a1.875 1.875 0 01-1.855 1.622z"/><path fill="#ebebed" d="M378.739 375.293a1.88 1.88 0 01-1.863-2.13c7.972-58.56 27.238-121.75 58.906-193.18a1.877 1.877 0 113.433 1.523c-31.522 71.1-50.697 133.958-58.62 192.163a1.875 1.875 0 01-1.856 1.624z"/><path fill="#ebebed" d="M390.355 375.293a1.877 1.877 0 01-1.863-2.129c7.95-58.842 27.22-122.033 58.907-193.184a1.879 1.879 0 113.432 1.53c-31.544 70.818-50.718 133.674-58.62 192.157a1.874 1.874 0 01-1.856 1.626z"/><path fill="#ebebed" d="M401.971 375.293a1.876 1.876 0 01-1.863-2.127c7.814-58.301 27.638-123.3 58.91-193.188a1.876 1.876 0 113.426 1.533c-31.126 69.56-50.847 134.21-58.617 192.154a1.875 1.875 0 01-1.856 1.628z"/><path fill="#ebebed" d="M413.588 375.293a1.88 1.88 0 01-1.867-2.125c7.803-58.597 27.623-123.596 58.914-193.193a1.878 1.878 0 013.425 1.54c-31.14 69.265-50.862 133.913-58.613 192.148a1.882 1.882 0 01-1.86 1.63z"/><path fill="#ebebed" d="M425.203 375.293a1.878 1.878 0 01-1.866-2.123c7.778-58.866 27.602-123.867 58.914-193.2a1.88 1.88 0 013.425 1.548c-31.166 68.997-50.884 133.642-58.613 192.143a1.879 1.879 0 01-1.86 1.632z"/><path fill="#ebebed" d="M436.816 375.293a1.878 1.878 0 01-1.866-2.121c7.759-59.149 27.583-124.152 58.92-193.203a1.876 1.876 0 113.418 1.551c-31.184 68.714-50.905 133.36-58.613 192.14a1.878 1.878 0 01-1.86 1.633z"/><path fill="#ebebed" d="M448.432 375.293a1.885 1.885 0 01-1.866-2.12c7.74-59.423 27.565-124.426 58.92-193.208a1.878 1.878 0 113.419 1.559c-31.203 68.439-50.924 133.082-58.614 192.134a1.88 1.88 0 01-1.859 1.635z"/><path fill="#ebebed" d="M460.049 375.293a1.88 1.88 0 01-1.867-2.118c7.715-59.683 27.54-124.69 58.925-193.212a1.876 1.876 0 013.41 1.563c-31.224 68.18-50.945 132.822-58.61 192.13a1.88 1.88 0 01-1.859 1.637z"/><path fill="#ebebed" d="M471.662 375.304a1.877 1.877 0 01-1.867-2.116 609.665 609.665 0 0137.044-141.409 1.877 1.877 0 113.506 1.343 606.027 606.027 0 00-36.824 140.542 1.88 1.88 0 01-1.86 1.64zm11.618-.011a1.878 1.878 0 01-1.866-2.114c7.668-60.223 27.495-125.231 58.925-193.223a1.879 1.879 0 113.41 1.577c-31.272 67.641-50.99 132.28-58.61 192.12a1.878 1.878 0 01-1.858 1.64z"/><path fill="#ebebed" d="M494.897 375.293a1.878 1.878 0 01-1.867-2.112c7.639-60.47 27.466-125.483 58.925-193.227a1.876 1.876 0 113.403 1.58c-31.294 67.395-51.011 132.03-58.602 192.116a1.878 1.878 0 01-1.859 1.643z"/><path fill="#ebebed" d="M506.513 375.293a1.878 1.878 0 01-1.867-2.11c7.62-60.746 27.444-125.758 58.926-193.232a1.878 1.878 0 013.402 1.588c-31.315 67.118-51.033 131.753-58.602 192.11a1.877 1.877 0 01-1.859 1.644z"/><path fill="#ebebed" d="M518.13 375.293a1.876 1.876 0 01-1.866-2.108c7.59-60.995 27.413-126.009 58.924-193.238a1.88 1.88 0 113.403 1.595c-31.346 66.87-51.06 131.504-58.602 192.105a1.877 1.877 0 01-1.86 1.646z"/><path fill="#ebebed" d="M529.746 375.293a1.876 1.876 0 01-1.867-2.107c7.561-61.24 27.389-126.256 58.929-193.24a1.876 1.876 0 113.395 1.598c-31.37 66.626-51.085 131.256-58.598 192.1a1.878 1.878 0 01-1.86 1.65z"/><path fill="#ebebed" d="M541.362 375.293a1.874 1.874 0 01-1.867-2.107c7.54-61.506 27.367-126.524 58.929-193.244a1.878 1.878 0 013.396 1.606c-31.394 66.356-51.107 130.986-58.599 192.097a1.875 1.875 0 01-1.86 1.648z"/><path fill="#ebebed" d="M552.974 375.306a1.878 1.878 0 01-1.867-2.105 579.832 579.832 0 0131.22-127.24 1.876 1.876 0 113.528 1.28 576.279 576.279 0 00-31.022 126.415 1.874 1.874 0 01-1.86 1.65zm11.62-.013a1.877 1.877 0 01-1.866-2.103c7.477-61.989 27.304-127.01 58.932-193.254a1.877 1.877 0 113.388 1.617c-31.451 65.876-51.165 130.505-58.594 192.088a1.876 1.876 0 01-1.86 1.652z"/><path fill="#ebebed" d="M576.207 375.293a1.876 1.876 0 01-1.866-2.101c7.454-62.25 27.286-127.272 58.935-193.26a1.879 1.879 0 113.388 1.625c-31.473 65.615-51.187 130.24-58.598 192.083a1.876 1.876 0 01-1.86 1.653z"/><path fill="#ebebed" d="M587.823 375.293a1.876 1.876 0 01-1.867-2.1c7.426-62.488 27.257-127.511 58.94-193.264a1.877 1.877 0 013.38 1.631c-31.502 65.378-51.216 130-58.594 192.078a1.878 1.878 0 01-1.859 1.655z"/><path fill="#ebebed" d="M599.44 375.293a1.875 1.875 0 01-1.868-2.097c7.4-62.733 27.232-127.758 58.94-193.269a1.878 1.878 0 113.381 1.635c-31.529 65.135-51.242 129.757-58.595 192.074a1.872 1.872 0 01-1.859 1.657z"/><path fill="#ebebed" d="M611.055 375.293a1.882 1.882 0 01-1.87-2.096c7.37-62.975 27.202-128.001 58.947-193.274a1.876 1.876 0 013.374 1.643c-31.555 64.891-51.268 129.513-58.588 192.068a1.88 1.88 0 01-1.863 1.66z"/><path fill="#ebebed" d="M622.671 375.293a1.879 1.879 0 01-1.87-2.094c7.338-63.207 27.173-128.236 58.947-193.278a1.877 1.877 0 113.374 1.647c-31.587 64.66-51.301 129.28-58.588 192.064a1.88 1.88 0 01-1.863 1.661z"/><path fill="#ebebed" d="M634.288 375.293a1.876 1.876 0 01-1.87-2.092c7.311-63.442 27.143-128.473 58.943-193.283a1.879 1.879 0 113.374 1.654c-31.614 64.425-51.328 129.043-58.584 192.058a1.88 1.88 0 01-1.863 1.663z"/><path fill="#ebebed" d="M645.904 375.293a1.877 1.877 0 01-1.87-2.09c7.279-63.679 27.11-128.711 58.947-193.289a1.877 1.877 0 113.366 1.661c-31.643 64.19-51.353 128.805-58.58 192.053a1.88 1.88 0 01-1.863 1.665z"/><path fill="#ebebed" d="M657.52 375.293a1.875 1.875 0 01-1.87-2.089c7.246-63.906 27.077-128.94 58.947-193.292a1.878 1.878 0 013.366 1.665c-31.679 63.963-51.385 128.578-58.58 192.05a1.878 1.878 0 01-1.863 1.666z"/><path fill="#ebebed" d="M669.128 375.314a1.883 1.883 0 01-1.87-2.089 536.282 536.282 0 0116.722-84.885 1.878 1.878 0 113.615 1.016 532.613 532.613 0 00-16.604 84.291 1.878 1.878 0 01-1.863 1.667z"/><path fill="#ddd" d="M776.541 163.504c-15.35 8.913-37.45 54.304-56.005 118.03-35.56 122.127-33.248 110.642-13.442 123.363 18.974 12.186 12.194 2.076 12.194 2.076l63.45-244.088z"/><path fill="#fff" d="M111.217 447.507s19.039-19.89 27.589-36.438a5.465 5.465 0 015.529-2.92 1155.522 1155.522 0 00203.57 4.412c60.2-4.271 261.775-33.555 351.86-13.239a17.63 17.63 0 0111.75 25.222c-5.197 10.041-12.719 20.71-21.943 22.963z"/><path fill="#ddd" d="M481.173 405.7a232.386 232.386 0 01-7.163 41.79h215.725c9.218-2.247 16.735-12.895 21.93-22.923a17.668 17.668 0 00-11.904-25.273c-50.541-11.355-136.029-7.16-212.016-.495a7.19 7.19 0 00-6.572 6.9z"/><path fill="#5e4ef9" d="M583.13 455.023H87.45a7.51 7.51 0 010-15.02h495.68a7.51 7.51 0 010 15.02z"/><path fill="#462be2" d="M689.767 454.973h-218.37a7.51 7.51 0 010-15.02H687.78c16.484-9.862 26.667-30.62 26.707-54.699a7.4 7.4 0 01.282-2.022l63.744-226.422a7.509 7.509 0 1114.455 4.07L729.5 386.33c-.363 29.907-14.155 55.794-36.15 67.734a7.524 7.524 0 01-3.582.91z"/><path fill="#c0c0ce" d="M254.084 622.715c-8.894 0-18.238-10.505-20.765-23.344l-28.338-144.024c-2.525-12.84 2.685-23.345 11.58-23.345 8.894 0 18.238 10.505 20.764 23.345l28.338 144.024c2.526 12.839-2.684 23.344-11.579 23.344zm-44.914 0c-8.894 0-19.256-10.505-23.027-23.344l-42.295-144.024c-3.77-12.84.421-23.345 9.316-23.345 8.894 0 19.257 10.505 23.027 23.345l42.296 144.024c3.77 12.839-.422 23.344-9.317 23.344z"/><path fill="#ef9d7f" d="M254.341 222.732a316.821 316.821 0 012.166 51.562 199.968 199.968 0 01-2.745 26.292c-.819 4.554-1.9 9.057-3.24 13.486a84.043 84.043 0 01-5.38 13.27 119.1 119.1 0 01-15.117 22.797 124.601 124.601 0 01-19.366 18.781 101.165 101.165 0 01-23.482 13.937 62.843 62.843 0 01-27.633 4.98 6.698 6.698 0 01-.13-13.352l.165-.014a52.451 52.451 0 0020.61-6.626 89.36 89.36 0 0018.276-13.325 119.528 119.528 0 0026.69-36.683 64.952 64.952 0 003.543-10.059 97.54 97.54 0 002.12-10.927 227.037 227.037 0 001.87-23.483c.33-7.988.336-16.074.105-24.175-.091-8.058-.489-16.343-.867-24.191l-.015-.313a11.266 11.266 0 0122.43-1.957z"/><path fill="#3021bf" d="M250.579 196.485c7.473-1.92 12.205 22.09 15.357 34.913a283.442 283.442 0 013.937 39.865 6.63 6.63 0 01-7.137 6.926l-31.43-2.445a6.638 6.638 0 01-6.109-6.285c-.894-17.084-1.1-66.173 25.382-72.974z"/><path fill="#ffbea4" d="M177.705 582.886c4.57 9.408 12.246 30.452 12.246 30.452l13.122-3.218s-6.19-25.501-8.666-32.928zm52.321 10.842c3.527 9.408 9.108 30.453 9.108 30.453l12.105-3.22s-3.942-25.5-5.7-32.928z"/><path fill="#462be2" d="M346.717 215.436c-3.73-18.104-19.66-31.101-38.144-31.12-.246 0-.495.004-.74.008l-34.503.647a11.248 11.248 0 00-4.97 1.261l-19.244 9.967v.002c-13.815 7.215-21.074 22.8-17.708 38.018a612.96 612.96 0 0114.449 138.352 11.269 11.269 0 0012.526 11.631l87.652-9.928a11.268 11.268 0 009.97-10.412 560.314 560.314 0 00-9.288-148.426z"/><path fill="#fff" d="M295.033 197.215c0 11.291-9.153 20.444-20.444 20.444-11.29 0-20.444-9.153-20.444-20.444 0-11.291 9.153-20.444 20.445-20.444 11.286.013 20.43 9.158 20.443 20.444zm-20.443 21.383c11.804-.014 21.368-9.58 21.382-21.382 0-11.81-9.573-21.384-21.382-21.384-11.81 0-21.384 9.573-21.384 21.382 0 11.81 9.573 21.384 21.384 21.384zm.618 5.419zm0 0a4.86 4.86 0 013.824 2.16 9.607 9.607 0 011.779 5.557 9.585 9.585 0 01-1.551 5.625 4.836 4.836 0 01-3.818 2.314l-.08.002a4.865 4.865 0 01-3.825-2.16 9.607 9.607 0 01-1.778-5.558c-.088-4.316 2.32-7.876 5.368-7.938zm.256 16.595a5.736 5.736 0 004.566-2.72 10.511 10.511 0 001.72-6.176 10.533 10.533 0 00-1.97-6.106 5.761 5.761 0 00-4.572-2.532l-.103.002c-3.56.073-6.38 4.063-6.285 8.896.005 2.19.694 4.325 1.969 6.106a5.763 5.763 0 004.573 2.532zm2.883 4.986a4.863 4.863 0 013.825 2.158 9.61 9.61 0 011.779 5.558 9.582 9.582 0 01-1.552 5.625 4.835 4.835 0 01-3.817 2.314l-.08.002c-3.008-.002-5.516-3.438-5.604-7.716a9.579 9.579 0 011.555-5.625 4.823 4.823 0 013.814-2.314l.08-.002zm.257 16.593a5.736 5.736 0 004.565-2.719 10.505 10.505 0 001.72-6.177 10.53 10.53 0 00-1.969-6.103 5.762 5.762 0 00-4.573-2.532l-.102.002a5.739 5.739 0 00-4.566 2.717 10.538 10.538 0 00-1.72 6.179c.1 4.789 3.026 8.635 6.546 8.635z"/><path fill="#17203a" d="M257.27 380.608l-10.014-.01c-6.655.058-13.3.247-19.936.568-13.291.666-26.605 1.773-40.017 3.65a305.054 305.054 0 00-40.544 8.214 176.251 176.251 0 00-41.2 16.807l-.002.001-2.576 1.434a23.31 23.31 0 00-6.316 35.318c.645.763 1.714 2.266 2.607 3.515l2.808 4.025c1.864 2.755 3.738 5.533 5.566 8.39 3.693 5.667 7.273 11.51 10.812 17.394 7.054 11.797 13.78 23.92 20.296 36.202a952.065 952.065 0 0118.715 37.441c6.015 12.638 11.72 25.454 17.317 38.352l23.383-7.803c-3.484-13.916-7.11-27.833-11.093-41.681a1070.267 1070.267 0 00-12.793-41.421c-4.611-13.748-9.495-27.456-14.86-41.1a713.82 713.82 0 00-5.742-14.05c2.373-.779 4.785-1.52 7.247-2.2a253.27 253.27 0 0133.584-6.765c11.574-1.625 23.43-2.616 35.331-3.213 5.955-.29 11.93-.459 17.89-.511l8.907.009.086.001a8.695 8.695 0 008.806-8.257l2.179-44.038c-3.902-.17-7-.223-10.441-.272z"/><path fill="#252f5a" d="M361.904 389.65l-2.234-27.831a11.262 11.262 0 00-12.497-10.294l-93.545 10.596a11.263 11.263 0 00-9.989 11.562l.387 11.816c-8.441 1.945-16.893 4.047-25.385 6.532a307.573 307.573 0 00-40.099 14.385l-2.114.898a23.601 23.601 0 00-11.035 33.483c.59 1.018 1.433 2.703 2.165 4.152l2.265 4.6 4.446 9.474c2.939 6.375 5.766 12.878 8.56 19.408 5.562 13.085 10.825 26.396 15.909 39.811 5.083 13.42 9.895 26.984 14.568 40.624 4.664 13.644 9.085 27.394 13.414 41.2l24.392-5.485c-2.136-14.525-4.381-29.06-6.897-43.574-2.524-14.513-5.21-29.026-8.213-43.519-3.005-14.494-6.222-28.982-9.829-43.473a970.097 970.097 0 00-4.664-17.815c3.85-1.27 7.744-2.5 11.698-3.657 11.543-3.39 23.593-6.137 35.684-8.724 12.115-2.572 24.444-4.707 36.795-6.67 3.62-.565 7.281-1.108 10.95-1.637l14.556-.77a32.546 32.546 0 0010.74-2.451c.219-.024.448-.053.668-.077l-.02-.2a32.466 32.466 0 0019.324-32.365z"/><path fill="#3021bf" d="M243.447 355.996c-.05 4.092-.155 11.696-.289 16.164a.924.924 0 00.987.954c9.642-.492 85.123-4.491 115.022-10.534a.902.902 0 00.739-.89 155.82 155.82 0 00-.696-16.126 5.209 5.209 0 00-5.896-4.672c-16.402 2.265-67.61 9.125-107.056 12.096a3.035 3.035 0 00-2.81 3.008z"/><path fill="#ffbea4" d="M273.535 211.235a14.972 14.972 0 01-10.091-3.898c-20.1-18.241-22.204-46.937-22.38-50.148-.467-8.282 5.868-15.375 14.15-15.842 8.282-.468 15.375 5.868 15.842 14.15.348 5.377 3.282 21.158 12.578 29.596a15.02 15.02 0 01-10.099 26.142z"/><path fill="#dd8b66" d="M266.078 172.704s-38.612 9.043-12.758 28.129"/><path fill="#ffbea4" d="M265.379 140.139c.11 2.633.357 5.836.59 8.758l.84 8.867c.321 2.896.662 5.787 1.058 8.485a161.67 161.67 0 001.227 7.354l.39 2.01c2.626 13.53-5.451 26.842-18.664 30.76-13.214 3.918-27.242-2.838-32.416-15.612-1.64-4.05-2.897-7.678-4.075-11.247-1.171-3.558-2.183-6.975-3.17-10.393a386.5 386.5 0 01-2.752-10.142c-.875-3.431-1.677-6.591-2.504-10.339l-.164-.746c-3.59-16.28 6.698-32.389 22.979-35.979 16.28-3.59 32.389 6.698 35.979 22.979a32.39 32.39 0 01.682 5.245z"/><path fill="#252f5a" d="M237.778 164.72a2.296 2.296 0 104.423-1.237 2.296 2.296 0 00-4.423 1.236zm-24.164 6.616a2.296 2.296 0 104.423-1.236 2.296 2.296 0 00-4.423 1.236zm19.147-14.724l-.755-1.328c.352-.202 8.819-4.937 15.214-.73l-.843 1.277c-5.633-3.71-13.535.735-13.616.78zm11.433 31.844l-.88-1.246a31.08 31.08 0 008.485-9.934l1.364.692a32.199 32.199 0 01-8.97 10.488zm-38.01-25.496l-1.474-.399a9.3 9.3 0 0110.278-6.443l-.169 1.519a7.583 7.583 0 00-8.636 5.322z"/><path fill="#dd8b66" d="M232.381 184.244h-6.611l.168-.906a30.106 30.106 0 00-2.233-17.869l1.4-.612a31.74 31.74 0 012.49 17.858h4.786z"/><path fill="#252f5a" d="M275.778 140.523c-.232-12.795-.52-18.528-7.242-18.736l5.213-2.983a6.253 6.253 0 00-5.399.514 7.741 7.741 0 00-.408-7.954l-2.51 8.65c-4.235-9.483-17.024-17.48-36.866-8.141a74.03 74.03 0 01-29.959 8.244 20.778 20.778 0 006.711 4.996c-4.94.401-9.902.448-14.848.14a17.024 17.024 0 009.507 7.36c-5.825.54-10.482.475-10.482.475a19.292 19.292 0 0013.767 7.998c-4.423 2.196-7.596 3.5-7.596 3.5 9 8.118 32.316 1.715 45.231-10.091 7.358 14.305 20.22 30.539 25.92 30.036 9.234-.816 9.333-3.58 8.961-24.008z"/><path fill="#ffbea4" d="M254.87 159.861c3.107-9.354 8.187-14.616 14.02-7.305 8.469 10.617-.806 27.857-6.967 21.814a26.378 26.378 0 01-7.053-14.509z"/><path fill="#fff" d="M244.395 594.898a1289.803 1289.803 0 00-38.768-157.254 9.738 9.738 0 015.574-11.952c52.944-21.643 127.996-30.013 128.748-30.094l.103.932c-.752.082-75.676 8.437-128.499 30.03a8.795 8.795 0 00-5.031 10.794 1291.435 1291.435 0 0138.797 157.375z" opacity=".2"/><path fill="#3932d6" d="M249.288 611.085a34.076 34.076 0 01-11.425 7.401 2.608 2.608 0 00-1.596 1.809c-1.471 5.723-8.373 26.17-16.165 31.748-8.691 6.221 13.248 6.183 20.304-4.6a87.942 87.942 0 0117.298-21.116c3.997-3.145 1.919-9.858-4.458-15.522a2.789 2.789 0 00-3.958.28z"/><path fill="#3021bf" d="M201.565 604.865a34.07 34.07 0 01-12.805 4.62 2.608 2.608 0 00-1.964 1.4c-2.73 5.24-14.085 23.592-22.94 27.26-9.874 4.09 11.504 9.024 20.82.12a87.94 87.94 0 0121.633-16.647c4.605-2.158 4.102-9.167-.825-16.129a2.79 2.79 0 00-3.92-.624z"/><path fill="#fff" d="M231.912 621.246a6.732 6.732 0 014.229 1.599c-1.302 1.173-5.706 4.752-8.856 2.742a.938.938 0 01-.455-.953 4.375 4.375 0 012.897-2.97 6 6 0 012.185-.418zm-2.493 5.889a13.517 13.517 0 007.763-3.979.467.467 0 00-.026-.682 7.425 7.425 0 00-7.777-1.683 5.307 5.307 0 00-3.484 3.751 1.878 1.878 0 00.884 1.838 4.843 4.843 0 002.64.755z"/><path fill="#fff" d="M236.24 622.3a11.619 11.619 0 01-6.788-2.665 3.263 3.263 0 01-.832-2.541 1.502 1.502 0 011.397-1.592c.044-.004.092-.004.14-.004 1.851 0 4.895 2.344 6.083 6.803zm.609.995a.47.47 0 00.458-.569c-1.177-5.416-4.844-8.166-7.165-8.166a2.414 2.414 0 00-2.46 2.46 4.236 4.236 0 001.063 3.235 13.495 13.495 0 008.078 3.04h.026zm-55.93-12.539a6.466 6.466 0 014.899 2.38c-1.482.935-6.429 3.722-9.193 1.191a.936.936 0 01-.286-1.015 4.371 4.371 0 013.355-2.432 6.137 6.137 0 011.225-.124zm-1.397 5.548a14.904 14.904 0 007.267-2.684.468.468 0 00.095-.675 7.421 7.421 0 00-7.38-2.981 5.29 5.29 0 00-4.071 3.098 1.885 1.885 0 00.56 1.962 5.068 5.068 0 003.529 1.28z"/><path fill="#fff" d="M181.037 604.858c1.833.191 4.554 3.048 4.972 7.756a11.608 11.608 0 01-6.234-3.78 3.283 3.283 0 01-.385-2.645 1.526 1.526 0 011.452-1.342c.065 0 .13.004.195.011zm5.482 8.849a.454.454 0 00.3-.11.46.46 0 00.17-.378c-.243-5.687-3.554-9.054-5.853-9.296a2.401 2.401 0 00-2.655 2.032 4.21 4.21 0 00.495 3.366 13.473 13.473 0 007.44 4.375.48.48 0 00.103.01z"/><path fill="#ffbea4" d="M357.49 255.704a255.72 255.72 0 00-16.804-50.238c-2.499-5.534-8.935-8.091-14.55-5.78-5.616 2.31-8.388 8.657-6.268 14.347l.147.395c2.73 7.327 5.585 15.234 7.908 22.98 2.453 7.764 4.661 15.575 6.345 23.375a147.444 147.444 0 013.34 23 42.665 42.665 0 01-2.5 19.225c-.341.837-1.601 2.987-2.59 4.65l-3.153 5.187a197.8 197.8 0 01-6.675 9.99 137.016 137.016 0 01-15.051 18.037 70.353 70.353 0 01-38.86 20.8 130.386 130.386 0 01-18.583-3.918 8.084 8.084 0 00-3.893-.127c-7.316 1.329-15.04 16.106-13.066 23.276 1.224 4.445 7.39 1.247 14.236.248 14.835-2.165 32.811-2.23 33.052-5.819.032-.48.014-.882.023-1.327a76.793 76.793 0 0015.989-4.313 94.995 94.995 0 0023.888-14.526 137.159 137.159 0 0019.113-19.451c2.828-3.49 5.5-7.067 8.064-10.687l3.762-5.465a63.319 63.319 0 003.877-6.271 50.36 50.36 0 004.943-15.623 77.863 77.863 0 00.881-14.713 144.065 144.065 0 00-3.575-27.252z"/><path fill="#462be2" d="M317.427 185.302c-7.67-.848-3.033 25.377-2.29 38.56.743 13.185 4.965 37.881 4.965 37.881l38.529-6.221a4.885 4.885 0 004.057-5.642c-2.605-15.208-13.09-61.02-45.26-64.578z"/><path fill="#fff" d="M319.636 261.824c-.044-.247-4.236-24.873-4.973-37.933a482.572 482.572 0 00-.264-4.322c-.392-6.219-.883-13.958-.645-20.414l.939.033c-.239 6.41.25 14.124.645 20.323.095 1.542.187 2.997.264 4.329.734 13.007 4.917 37.579 4.958 37.826z"/><path fill="#37477c" d="M222.438 595.264l2.696 9.905 29.612-4.953-1.76-12.184z"/><path fill="#252f5a" d="M169.206 585.036l3.072 9.793 29.401-6.072-2.223-12.11z"/><path fill="#fff" d="M290.595 141.148v-21.892h.938v21.892z"/><path fill="#fff" d="M291.064 139.42a1.73 1.73 0 011.632 2.31l-.004.001a1.724 1.724 0 01-2.208 1.047 1.73 1.73 0 01.58-3.359zm.004 4.4c.394 0 .784-.088 1.14-.259a2.669 2.669 0 10-3.557-1.273 2.686 2.686 0 002.417 1.531zm-19.24-2.208a103.024 103.024 0 01-30.297-6.634c-17.202-6.142-33.839-15.733-31.91-21.151l5.016-14.044.888.315-5.017 14.044c-1.338 3.754 10.935 12.666 31.338 19.953 20.404 7.286 35.548 8.172 36.887 4.413l5.016-14.045.888.315-5.017 14.045c-.696 1.943-3.582 2.787-7.792 2.789z"/><path fill="#fff" d="M202.896 79.785c.08 0 .159.004.238.012l52.702 5.453c2.188.23 4.29.98 6.128 2.188l44.234 29.163a1.934 1.934 0 01.774 2.314 1.898 1.898 0 01-2.068 1.302l-52.702-5.456a13.739 13.739 0 01-6.124-2.188l-44.239-29.16a1.98 1.98 0 011.057-3.628zm102.243 41.383a2.916 2.916 0 001.573-5.352l-44.235-29.163a14.687 14.687 0 00-6.546-2.338l-52.702-5.453a2.84 2.84 0 00-3.047 1.922 2.88 2.88 0 001.144 3.414l44.239 29.16a14.685 14.685 0 006.542 2.337l52.702 5.457c.113.01.223.016.33.016z"/><path fill="#fff" d="M293.826 114.716l-39.89-4.13a14.68 14.68 0 01-6.545-2.338l-22.864-15.072.513-.784 22.864 15.071a13.77 13.77 0 006.128 2.187l39.89 4.131z"/><path fill="#252f5a" d="M279.347 377.237l-.125-.004a1.88 1.88 0 01-1.75-2 11.822 11.822 0 00-2.196-9.148 13.936 13.936 0 00-10.52-3 1.877 1.877 0 110-3.754 17.19 17.19 0 0113.263 4.19 15.225 15.225 0 013.201 11.965 1.878 1.878 0 01-1.873 1.75z"/><path fill="#f5f5f7" d="M282.592 361.088c.145 1.751-4.416 3.556-10.186 4.03-5.77.476-10.564-.56-10.709-2.311l-.121-1.478 20.895-1.72z"/><path fill="#252f5a" d="M282.47 359.609c.145 1.752-4.416 3.556-10.186 4.031-5.77.475-10.564-.56-10.708-2.312-.145-1.751 4.416-3.556 10.186-4.03 5.77-.476 10.565.56 10.709 2.311z"/><path fill="#f5f5f7" d="M280.096 359.804c.083 1.002-3.465 2.111-7.924 2.478-4.458.367-8.139-.148-8.221-1.15-.082-1.001 3.465-2.11 7.923-2.477 4.459-.367 8.14.148 8.222 1.15z"/><path fill="#23d87d" d="M75.535 403.861a6.497 6.497 0 007.346 5.475l218.017-31.813a6.497 6.497 0 005.475-7.346z"/><path fill="#16b260" d="M230.606 381.239a7.469 7.469 0 008.26 5.342l62.089-9.06a6.498 6.498 0 005.475-7.347z"/><path fill="#23d87d" d="M227.412 384.124L81.934 405.353a13.978 13.978 0 01-14.836-9.523l-29.322-96.757a9.735 9.735 0 018.051-12.862l145.479-21.229a13.978 13.978 0 0114.836 9.523l29.322 96.757a9.734 9.734 0 01-8.052 12.862z"/><path fill="#33ff9d" d="M224.105 384.607L78.627 405.835a13.977 13.977 0 01-14.836-9.522l-29.323-96.757a9.735 9.735 0 018.052-12.862l145.478-21.229a13.978 13.978 0 0114.836 9.523l29.323 96.756a9.735 9.735 0 01-8.052 12.863z"/><path fill="#fff" d="M77.458 401.737a8.933 8.933 0 01-9.505-6.102l-29.32-96.757a6.338 6.338 0 01.615-5.319 6.2 6.2 0 014.441-2.768l145.473-21.229a8.929 8.929 0 019.505 6.104l29.325 96.757a6.34 6.34 0 01-.616 5.318 6.196 6.196 0 01-4.44 2.768zm-1.096 1.018c.411 0 .822-.03 1.228-.09l145.477-21.228a7.109 7.109 0 005.101-3.194 7.24 7.24 0 00.719-6.091l-29.322-96.757a9.904 9.904 0 00-10.535-6.76L43.553 289.863a7.122 7.122 0 00-5.098 3.194 7.264 7.264 0 00-.721 6.093l29.321 96.757a9.978 9.978 0 009.307 6.848z"/><path fill="#fff" d="M124.612 350.733a17.633 17.633 0 001.405-14.138 23.245 23.245 0 00-9.197-12.289 4.843 4.843 0 01-2.112-4.563 4.744 4.744 0 012.959-3.946 21.65 21.65 0 015.09-1.377c12.897-1.461 25.044 6.348 29.068 18.69a19.524 19.524 0 01-1.903 16.37 19.072 19.072 0 01-13.667 8.52 24.296 24.296 0 01-8.148-.216 5.107 5.107 0 01-3.682-2.887 4.497 4.497 0 01.187-4.165zm8.236 9.389c1.231 0 2.46-.088 3.678-.264a20.919 20.919 0 0014.98-9.371 21.375 21.375 0 002.116-17.923c-4.328-13.203-17.329-21.556-31.137-20.003a23.535 23.535 0 00-5.53 1.5 6.597 6.597 0 00-4.114 5.484 6.69 6.69 0 002.915 6.309 21.37 21.37 0 018.464 11.285 15.79 15.79 0 01-1.228 12.648v.002a6.338 6.338 0 00-.276 5.885 6.986 6.986 0 005.032 3.953 26.86 26.86 0 005.1.495z"/><path fill="#33ff9d" d="M81.877 209.012c0 15.357-12.45 27.806-27.806 27.806-15.357 0-27.806-12.45-27.806-27.807 0-15.356 12.45-27.805 27.805-27.805 15.35.017 27.79 12.456 27.807 27.806zM54.07 237.756c15.868-.017 28.727-12.876 28.746-28.744 0-15.875-12.87-28.745-28.745-28.745-15.875 0-28.744 12.87-28.744 28.745 0 15.875 12.869 28.744 28.743 28.744z"/><path fill="#fff" d="M31.307 102.524c0 8.586-6.96 15.547-15.546 15.547-8.587 0-15.547-6.96-15.547-15.547 0-8.586 6.96-15.546 15.547-15.546 8.585 0 15.546 6.96 15.546 15.546zM813.93 231.513c8.321.011 15.064 6.755 15.075 15.076 0 8.328-6.75 15.08-15.077 15.08s-15.078-6.75-15.078-15.077c-.001-8.328 6.75-15.08 15.08-15.08zm0 31.094c8.84-.011 16.003-7.176 16.014-16.016 0-8.846-7.17-16.017-16.016-16.017-8.846 0-16.017 7.17-16.017 16.016 0 8.846 7.17 16.017 16.019 16.017z"/><path fill="#252f5a" d="M359.931 862.494a9.154 9.154 0 11-18.307-.001 9.154 9.154 0 0118.307.001z"/><path fill="#ffa76c" d="M652.047 79.8l-14.99 25.969h29.984zM167.076 205.282l-20.055 20.051-7.337-27.392zm1.24.088l.571-.576-30.53-8.18 7.967 29.748.213.786z"/><path fill="#252f5a" d="M810.463 338.628l-18.054-18.054 18.054-18.054 18.054 18.054z"/><path fill="#33ff9d" d="M806.772 82.582l-.668-.665 40.625-40.625.669.66z"/><path fill="#ffa76c" d="M45.776 436.428L5.149 395.8l.663-.663 40.627 40.626z"/><path fill="#252f5a" d="M585.266 898.687l-40.627-40.626.667-.668 40.627 40.627z"/></svg>