<svg xmlns="http://www.w3.org/2000/svg" width="370" height="259" viewBox="0 0 370 259"><defs><linearGradient id="qykqa" x1="249.41" x2="191.85" y1="300.43" y2="201.49" gradientUnits="userSpaceOnUse"><stop offset="0" stop-color="#97cbec"/><stop offset=".69" stop-color="#ccc2f5"/></linearGradient></defs><g><g><g><g><g opacity=".72"><path fill="url(#qykqa)" d="M369.894 249.695c0 4.776-67.156 8.646-149.997 8.646-82.844 0-150.001-3.87-150.001-8.646 0-4.776 67.157-8.65 150-8.65 82.842 0 149.998 3.874 149.998 8.65z"/></g></g><g><path fill="#706865" d="M311.595 230.198V70.311h3.519v159.887z"/></g><g><path fill="#bdafaa" d="M225.432 3.514h94.625c5.831 0 10.559 4.727 10.559 10.558V193.25c0 5.831-4.728 10.558-10.559 10.558H225.43c-5.83 0-10.557-4.726-10.557-10.557V14.072c0-5.831 4.727-10.558 10.559-10.558z"/></g><g><path fill="#fff" d="M228.482 6.739h88.525c5.761 0 10.431 4.67 10.431 10.432v168.378c0 5.762-4.67 10.433-10.433 10.433h-88.523c-5.761 0-10.432-4.67-10.432-10.432V17.17c0-5.76 4.67-10.431 10.432-10.431z"/></g><g><path fill="#706865" d="M255.5 9.783V1.995h34.49v7.788z"/></g><g><path fill="#b5deff" d="M240.896 47.238c.018-16.317 13.241-29.54 29.558-29.557v1.323a28.207 28.207 0 1 0 27.929 24.092l1.31-.194a29.559 29.559 0 1 1-58.797 4.336z"/></g><g><path fill="#eea886" d="M203.36 140.398a6.89 6.89 0 0 1 .893 2.363c.24.973.606 1.91 1.091 2.788a26.75 26.75 0 0 1 1.325 4.649 21.173 21.173 0 0 0-.625 3.11c.106.673.49 2.008-.114 2.097-.605.088-1.29-1.006-1.29-1.006a.89.89 0 0 1-.453.857 1.504 1.504 0 0 1-1.522.055s-.366.681-.827.773c-.51.15-1.06.076-1.513-.204-.33.249-.735.379-1.149.369a1.506 1.506 0 0 1-1.274-.793s-1.137.228-1.466-.3a5.082 5.082 0 0 1-.409-1.577 18.353 18.353 0 0 1 1.44-7.944 7.04 7.04 0 0 0-.376-6.173z"/></g><g><path fill="#db9c7c" d="M204.801 153.993s.1-3.895-.925-4.722c-1.024-.831-1.14.575-1.14.575s.14-1.387-.982-1.577c-1.12-.186-1.167 1.464-1.167 1.464a1.082 1.082 0 0 0-1.358-.851c-1.177.218-.896 1.585-.896 1.585s-1.125-1.34-1.853-.05a5.93 5.93 0 0 0-.113 4.763s.398.617 1.518.328a1.575 1.575 0 0 0 2.447.448s1.732.947 2.357-.567c0 0 2.031.793 2.112-1.396z"/></g><g><path fill="#ffc655" d="M216.568 84.314s-6.665 22.215-8.917 30.407c-.706 2.57-2.416 27.111-2.717 28.1-.303.987-8.757 2.343-8.757 2.343s1.025-30.703 1.12-32.377c.096-1.674 9.328-35.96 12.013-37.182 2.011-.917 3.074-.159 5.609 1.723 3.557 2.64 1.649 6.986 1.649 6.986z"/></g><g><path fill="#4da8f2" d="M282.305 54.325l-.741-1.133 15.26-9.977.74 1.133z"/></g><g><path fill="#efaa88" d="M299.19 48.953c-.065.421-.198.83-.393 1.208 0 0-.5.595-.83 1.04a3.967 3.967 0 0 0-.237.355 7.352 7.352 0 0 1-1.26 1.959c-.73.735-3.557 3.079-3.557 3.079l-2.426-2.056-2.517-1.129a47.216 47.216 0 0 1 2.008-6.891c.059-.075.12-.146.18-.21a9.566 9.566 0 0 1 1.58-1.086c.122-.102 1.417-1.035 1.878-.914.53.101.97.468 1.166.97a3.723 3.723 0 0 1 1.722 1.11c.689.206 1.242.72 1.499 1.392 0 0 1.136.45 1.187 1.173z"/></g><g><path fill="#424773" d="M211.16 235.985s-.608 4.218-.684 4.85c-.076.634-6.758-.371-6.758-.371l-.542-5.02s7.148-.053 7.984.541z"/></g><g><path fill="#292c47" d="M210.547 240.3a18.072 18.072 0 0 0 4.165 3.65c2.048 1.106 5.266 1.545 6.477 2.692.875.827 3.183 4.39-5.322 4.318-8.504-.072-12.605.504-13.516-.861-.912-1.367 1.318-10.085 1.318-10.085 2.253.537 4.588.634 6.878.287z"/></g><g><path fill="#424773" d="M259.041 235.985s-.607 4.218-.683 4.85c-.076.634-6.758-.371-6.758-.371l-.542-5.02s7.148-.053 7.983.541z"/></g><g><path fill="#292c47" d="M258.43 240.3a18.094 18.094 0 0 0 4.163 3.65c2.049 1.106 9.585 2.017 10.796 3.164.874.828 2.328 4.16-9.639 3.846-8.502-.22-12.606.504-13.517-.861-.912-1.367 1.317-10.085 1.317-10.085s1.9.775 6.88.287z"/></g><g><path fill="#292c47" d="M216.695 127.626s-6.28 9.977-5.812 18.995c.469 9.018-2.278 18.863-3.221 28.283-1.052 10.502-5.354 35.365-5.51 40.984-.157 5.615.668 23.554.668 23.554l8.614.199s7.235-43.465 9.11-47.901c1.872-4.435 11.164-36.054 11.478-39.601.312-3.549-15.327-24.513-15.327-24.513z"/></g><g><path fill="#292c47" d="M249.75 128.978s4.73 24.716 5.354 30.236c.625 5.52 1.042 26.71 1.353 30.16.312 3.45 2.92 45.038 3.749 50.267h-11.014s-8.454-30.308-8.454-44.648c0-14.34-6.532-31.175-10.746-40.638-4.217-9.46-13.866-9.684-16.458-27.238 0 0 32.706-3.706 36.215 1.861z"/></g><g><path fill="#eea886" d="M227.172 43.753s8.428-3.15 12.314 3.266c3.886 6.417 3.511 19.26-.737 20.84-4.25 1.579-10.63.754-12.804-3.263-2.176-4.012-4.14-9.817-4.045-13.695.094-3.878 3.058-6.029 5.272-7.148z"/></g><g><path fill="#eea886" d="M237.835 68.152a7.27 7.27 0 0 0 .228 3.396c.58 1.12-10.919 1.15-10.919 1.15a75.598 75.598 0 0 0-2.703-11.247c-1.77-5.153 13.394 6.701 13.394 6.701z"/></g><g><path fill="#292c47" d="M224.44 61.451s.793 1.308 4.033.8c3.24-.507 7.192-4.818 8.545-5.291 1.353-.473 1.367-1.268 1.367-1.268l.846 1.239 1.436.09s-1.31-3.856.667-5.429c1.977-1.572-2.052-12.478-12.441-8.847 0 0-7.98 2.199-7.69 6.737.29 4.538 1.452 9.707 3.238 11.97z"/></g><g><path fill="#e2d2ca" d="M238.745 71.414s-.037-2.143-1.007-2.347c-.971-.206-10.715-1.144-11.907-.674v2.495s2.295 1.412 12.914.526z"/></g><g><path fill="#eea886" d="M238.169 54.042c-.182-.762-2.118-2.938-2.858-.608-.742 2.33 1.12 5.462 2.158 5.193 1.037-.267 1.16-2.655.7-4.585z"/></g><g><path fill="#ffc655" d="M254.863 74.656c-6.68-.88-16.118-3.242-16.118-3.242l-12.914-.528s-11.852 2.61-16.52 4.72c-.444.199-.445 10.572-1.66 13.292l3.87 8.167s2.236 16.172 2.7 23.364c.212 3.301-4.611 30.964-4.611 30.964a88.986 88.986 0 0 0 13.98 2.493c8.817.972 30.839-.351 30.977-1.392.139-1.042-4.264-38.764-4.46-40.718-.298-2.997 1.035-18.93 1.035-18.93 2.035-1.579 19.902-9.874 24.776-14.193 1.305-1.16 6.81-6.52 8.375-8.372a150.464 150.464 0 0 0 10.64-13.387c.628-.69-6.228-4.408-6.833-4.61-.528-.175-7.813 9.637-10.696 12.76a81.138 81.138 0 0 1-6.63 5.28s-11.731 4.574-15.911 4.332z"/></g><g><path fill="#292c47" d="M224.771 44.51s-10.746.84-.33 16.941"/></g><g><path fill="#dfe1e8" d="M297.563 44.345l.882-1.345-1.624.21z"/></g><g><path fill="#202338" d="M126.393 240.439a30.204 30.204 0 0 1-2.566 4.047c-1.015 1.15-4.9 3.205-4.922 6.621-.022 3.702 6.55 2.674 9.12 2.539 2.57-.134 2.764-2.114 3.847-4.21 1.082-2.096 2.173-1.742 2.375-3.433a20.002 20.002 0 0 0-1.048-5.564z"/></g><g><path fill="#323657" d="M165.315 141.729s-7.238-16.87-8.11-21.023c-.395-1.881-1.481-6.558-2.169-10.4a76.859 76.859 0 0 1-.581-3.844v-.006c-.644-5.093-.81-9.742-.81-9.742s-3.843-13.176 4.394-13.98c1.042.333 2.056.75 3.032 1.248 1.387 3.24 1.934 11.5 1.982 13.288.038 1.452 2.17 16.1 2.201 16.616.06 1.007 2.25 6.287 3.426 10.203 2.562 8.53 3.912 15.26 3.912 15.26z"/></g><g><path fill="#e2e3ed" d="M148.905 144.932v-32.476h37.127v32.476z"/></g><g><path fill="#aab1e0" d="M173 139.177v-9.986h2.067v9.986z"/></g><g><path fill="#aab1e0" d="M175.872 139.177v-7.361h2.066v7.36z"/></g><g><path fill="#aab1e0" d="M178.726 139.177v-11.233h2.066v11.233z"/></g><g><path fill="#eea886" d="M177.501 142.924s-.214 4.376-2.567 5.136a8.016 8.016 0 0 1-5.996-.583c-1.084-.665-3.81-2.592-2.792-3.803 3.267-3.888 11.355-.75 11.355-.75z"/></g><g><path fill="#eea886" d="M176.302 146.974s2.938.214 2.779-1.03c-.158-1.247-2.274-.763-2.274-.763z"/></g><g><path fill="#aab1e0" d="M164.021 139.177v-7.602h2.066v7.602z"/></g><g><path fill="#aab1e0" d="M166.961 139.177v-8.368h2.067v8.368z"/></g><g><path fill="#aab1e0" d="M169.942 139.177v-6.775h2.065v6.775z"/></g><g><path fill="#aab1e0" d="M160.977 139.177v-6.775h2.068v6.775z"/></g><g><path fill="#aab1e0" d="M153.695 127.393a.871.871 0 0 0 .058.083l-.085.055-2.214 1.495-.055-.084 2.214-1.494z"/></g><g><path fill="#aab1e0" d="M161.682 127.82a.638.638 0 0 0-.011.099l-.1-.01-6.34-.754-.1-.013a.758.758 0 0 0 .013-.098l.1.01 6.338.754z"/></g><g><path fill="#aab1e0" d="M167.908 123.079l-.074.066-4.705 4.265-.074.067a1.56 1.56 0 0 0-.066-.074l.074-.067 4.704-4.266.075-.065c.02.024.043.05.066.074z"/></g><g><path fill="#aab1e0" d="M175.594 122.52l.001.05h-6.37c.002-.017.002-.033.002-.05 0-.015 0-.034-.002-.05h6.37l-.001.05z"/></g><g><path fill="#aab1e0" d="M181.08 117.462L177 121.91l-.068.074a.728.728 0 0 0-.073-.069l.067-.074 4.078-4.446z"/></g><g><path fill="#aab1e0" d="M155.131 127.142a.777.777 0 1 1 .013-.141v.043a.757.757 0 0 1-.013.098zm-.764-1.019a.878.878 0 1 0 .864 1.032c.007-.035.01-.067.013-.1l.002-.054a.878.878 0 0 0-.88-.878z"/></g><g><path fill="#aab1e0" d="M162.447 128.74a.778.778 0 0 1-.777-.777l.001-.044a.779.779 0 0 1 1.554.044.778.778 0 0 1-.778.776zm.682-1.33a.877.877 0 0 0-1.547.398c-.004.034-.01.066-.01.1-.002.018-.002.036-.002.055a.877.877 0 1 0 1.56-.553z"/></g><g><path fill="#aab1e0" d="M168.45 123.297a.78.78 0 0 1-.608-.292.778.778 0 1 1 1.383-.535c.002.016.002.035.002.05 0 .017 0 .033-.002.05a.777.777 0 0 1-.775.727zm.875-.827a.877.877 0 1 0 0 .1c.002-.017.002-.033.002-.05 0-.015 0-.034-.002-.05z"/></g><g><path fill="#aab1e0" d="M176.371 123.297a.778.778 0 0 1-.776-.727l-.001-.05.001-.05a.776.776 0 1 1 .776.828zm.63-1.388a.87.87 0 0 0-.629-.267.88.88 0 0 0-.878.828l-.001.05.001.05a.878.878 0 1 0 1.506-.661z"/></g><g><path fill="#eea886" d="M106.684 142.348s-1.276 2.226-2.79 2.182a9.151 9.151 0 0 0-3.537 1.042c-.71.338-3.275.628-2.855 1.459.418.833 4.245-.286 5.092-.372.849-.084-1.358 2.886-1.315 3.713.042.83 5.375 3.833 6.644 1.637 1.268-2.195 1.104-5.284 1.409-5.631.36-.502.69-1.026.988-1.567z"/></g><g><path fill="#eea886" d="M101.448 149.797s-3.416 6.953-3.236 7.584c.18.63.585.77.934.132.348-.636 3.504-6.635 3.504-6.635s-2.591 8.826-2.566 9.377c.015.322.784.638 1.003.31.22-.326 3.315-8.95 3.315-8.95s-2.403 8.243-2.235 8.694a.638.638 0 0 0 1.157-.088c.224-.6 2.91-8.145 2.91-8.145s-1.352 6.092-.967 6.386c.234.181.884.483 1.18-1.099.297-1.58 1.41-5.252 1.41-5.252z"/></g><g><path fill="#202338" d="M165.517 240.101s3.168 3.537 6.383 4.277c3.216.74 5.465 1.686 5.488 3.715.026 2.03-9.252 3.367-12.932 1.32-5.491-3.051-6.05-2.132-6.658-3.656-.61-1.527.732-5.608.692-6.095-.05-.597 7.027.439 7.027.439z"/></g><g><path fill="#81807e" d="M165.162 238.41c.152.556.27 1.12.355 1.691-.062.036-7.244.892-7.027-.439.175-1.078.427-2.247.427-2.247z"/></g><g><path fill="#81807e" d="M133.11 239.321c.113.534.193 1.074.242 1.618-.058.038-7.283 1.33-7.242.017a6.298 6.298 0 0 1 .667-2.257z"/></g><g><path fill="#292c47" d="M158.631 139.247s2.612 25.37 3.971 34.056c1.588 10.153 2.127 18.543 2.57 23.8.557 6.61.665 39.129 1.055 41.063.389 1.932-8.654.533-8.654.533s-4.448-42.49-6.109-49.53c-1.544-6.555-7.279-34.779-8.69-32.987-1.41 1.788-3.159 32.934-4.202 38.104-1.045 5.17-4.22 45.647-4.22 45.647s-7.199 1.434-9.113-.186c0 0-.87-34.884-.206-44.578.254-3.693-4.327-44.29 1.547-60.637 3.105-8.638 32.051 4.715 32.051 4.715z"/></g><g><path fill="#dbd8e3" d="M107.644 142.817s1.963 2.27 3.808 1.931c1.848-.34 9.566-23.873 9.639-28.584a120.095 120.095 0 0 1 2.145-13.906l.003.017.004.012.001.017c.208.755 3.03 11.222 3.127 16.251.103 5.219-.311 23.174-.311 23.174l6.99 1.871 22.327.208 5.097-2.08s-.558-5.773-.765-9.828c-.128-2.576-.628-7.192-.5-11.685a41.434 41.434 0 0 1 .389-6.78c.05-9.005.595-17.924.595-17.924.303-4.085.514-7.906.634-11.463a92.98 92.98 0 0 0-3.118-1.582c-2.934-1.397-7.02-3.276-9.642-4.48a36.568 36.568 0 0 0-3.038-1.22s-10.481-1.003-11.331-.952a26.753 26.753 0 0 0-3.297 1.13 119.83 119.83 0 0 0-12.023 5.101c-1.674 1.198-5.21 29.665-5.371 31.656-.288 3.592-5.363 29.116-5.363 29.116z"/></g><g><path fill="#1d2033" d="M159.8 139.822c-9.575.745-19.194.745-28.77 0v4.409s20.005 1.91 29.444-.84z"/></g><g><path fill="#323657" d="M146.72 77.406s2.494 5.862 4.366 18.964c.72 5.03 2.054 13.5 3.02 22.144v.005c.766 6.813 2.509 13.807 3.063 19.023.574 5.404 2.302 21.325 2.302 21.325l4.195-2.643c.6-.554 1.44-1.275 1.195-2.052a225.225 225.225 0 0 1-4.664-26.772l-.004-.022c-.06-.519-.123-1.03-.181-1.54-.004-.025-.005-.051-.008-.08a165.517 165.517 0 0 1-.598-6.088 19.184 19.184 0 0 1 .189-4.234c.584-9.633.875-19.79.875-19.79.308-4.157.483-8.044.6-11.664 0 0-13.16-6.22-14.35-6.576z"/></g><g><path fill="#323657" d="M121.41 116.38c-.326 4.37-8.321 29.889-9.383 29.776a78.713 78.713 0 0 1-8.139-2.171s7.724-25.944 7.997-28.675c.197-1.991 3.365-31.842 5.04-33.04.965-.693 8.124-3.231 11.636-4.616.643-.253 2.76-1.05 3.335-1.268.746.83 5.955 6.47 7.77 27.884.306 3.61-.66 11.252-1.305 17.491-.687 6.656-1.45 11.85-2.008 17.414-1.1 10.969-1.87 19.692-1.87 19.692l-10.912-4.857c-1.766-.886-4.212-4.51-3.548-6.369 2.523-7.067 5.7-19.14 5.704-25.34 0 0-1.218-15.183-2.182-18.52a93.51 93.51 0 0 0-2.134 12.598z"/></g><g><path fill="#eea886" d="M140.187 49.177s10.94-4.048 10.257 10.492c-.684 14.539-3.249 16.015-10.445 13.986-7.198-2.031-7.801-11.208-8.738-15.621-.938-4.415 5.347-8.223 8.926-8.857z"/></g><g><path fill="#434343" d="M132.781 65.245s-.03-3.884 1.585-4.243c1.615-.357 2.447 1.89 2.447 1.89l1.301-.07s-1.163-3.936.377-4.84c1.539-.901 10.752-.11 11.907-1.433 1.156-1.325-.52-9.196-3.033-9.967-2.513-.774-9.379-2.34-13.739 1.542 0 0-3.792.073-3.944 3.16-.152 3.087 1.784 11.855 3.1 13.96z"/></g><g><path fill="#eea886" d="M136.193 59.354c-.483-1.281-3.21-1.12-2.932.911.28 2.032 2.535 5.16 3.44 4.573.906-.586.16-3.716-.508-5.484z"/></g><g><path fill="#eea987" d="M134.665 76.931s.966-.797-.42-8.076c-.37-1.949 10.272 2.324 10.272 2.324s-.085 1.597-.076 3.198c.003.717.027 1.432.088 2.01.077.48.207.95.389 1.403.482 1.11-6.318 1.957-10.253-.859z"/></g><g><path fill="#a77860" d="M144.529 76.386a9.093 9.093 0 0 1-8.503-5.092 11.866 11.866 0 0 0 8.415 3.083c.003.717.027 1.432.088 2.01z"/></g><g><path fill="#5282fc" d="M141.957 80.7l1.937 2.6a2.345 2.345 0 0 1-3.15.398z"/></g><g><path fill="#5282fc" d="M143.341 83.405s7.183 27.656 5.702 49.185l-2.416 4.258-2.263-4.462s-.62-38.505-2.589-49.05z"/></g><g><path fill="#eea987" d="M144.031 78.274l-2.074 2.426s-3.328-.646-4.306-2.384c-.977-1.739 6.38-.042 6.38-.042z"/></g><g><path fill="#c4c1cc" d="M144.506 76.15a9.998 9.998 0 0 1-2.549 4.55l2.52 3.384 1.364-7.021z"/></g><g><path fill="#c4c1cc" d="M134.974 74.259s3.618 5.11 6.983 6.441l-1.564 3.87-7.151-8.644z"/></g></g><g><g><path fill="#23d87d" d="M26.33 149.962c14.116.016 25.556 11.456 25.572 25.573 0 14.123-11.45 25.571-25.573 25.571-14.122 0-25.571-11.449-25.571-25.572s11.449-25.572 25.571-25.572zm0 52.008c14.592-.017 26.418-11.842 26.435-26.436 0-14.6-11.835-26.435-26.435-26.435-14.6 0-26.435 11.836-26.435 26.435 0 14.6 11.835 26.436 26.434 26.436z"/></g><g><path fill="#252f5a" d="M289.737 210.328a8.419 8.419 0 1 1-16.837-.002 8.419 8.419 0 0 1 16.837.002z"/></g><g><path fill="#ffa76c" d="M169.129 163.774l-13.786 23.883h27.575z"/></g><g><path fill="#23d87d" d="M356.283 74.485l-18.443 18.44-6.749-25.191zm1.14.081l.526-.53-28.078-7.523 7.328 27.359.195.723z"/></g><g><path fill="#252f5a" d="M75.403 33.856L58.799 17.253 75.403.65l16.603 16.603z"/></g><g><path fill="#252f5a" d="M163.305 66.923L125.942 29.56l.613-.614 37.363 37.363z"/></g></g></g></g></svg>