<svg xmlns="http://www.w3.org/2000/svg" width="1160" height="552" viewBox="0 0 1160 552"><defs><linearGradient id="3q34a" x1="146.92" x2="107.84" y1="218.1" y2="218.1" gradientUnits="userSpaceOnUse"><stop offset="0" stop-color="#86005b"/><stop offset="1" stop-color="#d41747"/></linearGradient><linearGradient id="3q34b" x1="103.96" x2="87.83" y1="186.01" y2="298.33" gradientUnits="userSpaceOnUse"><stop offset="0" stop-color="#d41747"/><stop offset="1" stop-color="#86005b"/></linearGradient><linearGradient id="3q34c" x1="107.95" x2="68.87" y1="216.6" y2="216.6" gradientUnits="userSpaceOnUse"><stop offset="0" stop-color="#86005b"/><stop offset="1" stop-color="#d41747"/></linearGradient></defs><g><g><g><g opacity=".5"><path fill="#d7d7d7" d="M0 536.785c0 8.32 88.75 15.068 198.222 15.068 109.48 0 198.23-6.748 198.23-15.068 0-8.33-88.75-15.077-198.23-15.077C88.75 521.708 0 528.456 0 536.785z"/></g><g opacity=".5"><path fill="#d7d7d7" d="M195.248 486.987c0 2.47 26.336 4.472 58.821 4.472 32.488 0 58.823-2.003 58.823-4.472 0-2.471-26.335-4.474-58.823-4.474-32.485 0-58.82 2.003-58.82 4.474z"/></g><g opacity=".5"><path fill="#d7d7d7" d="M48.398 492.779c0 2.469 26.336 4.471 58.821 4.471 32.488 0 58.824-2.002 58.824-4.471 0-2.472-26.336-4.474-58.824-4.474-32.485 0-58.82 2.002-58.82 4.474z"/></g><g opacity=".4"><path fill="#dc3667" d="M110.505.328H193.6a8.197 8.197 0 0 1 8.206 8.193v44.892a8.197 8.197 0 0 1-8.206 8.193h-4.473v20.54l-20.54-20.54h-58.082a8.197 8.197 0 0 1-8.207-8.193V8.521a8.198 8.198 0 0 1 8.207-8.193z"/></g><g><path fill="#fff" d="M181.938 44.303h-19.604a2.738 2.738 0 1 0 0 5.476h19.604a2.738 2.738 0 0 0 0-5.476z"/></g><g><path fill="#fff" d="M181.938 30.59h-36.124a2.738 2.738 0 0 0 0 5.476h36.124a2.738 2.738 0 1 0 0-5.476z"/></g><g><path fill="#fff" d="M181.938 17.26h-62.104a2.738 2.738 0 0 0 0 5.476h62.104a2.738 2.738 0 1 0 0-5.476z"/></g><g><path fill="#a7a2f4" d="M162.016 385.531H65.797c-19.308 0-35.521-14.532-37.627-33.725L14.293 207.378h96.168l1.964 83.742z"/></g><g><path fill="#3a1a7e" d="M162.016 384.175c-24.719-.864-49.437-1.244-74.156-1.59l-18.538-.128c-1.504-.033-3.182.03-4.543-.083l-2.126-.113c-.704-.078-1.402-.205-2.103-.302a36.55 36.55 0 0 1-4.147-.897 39.418 39.418 0 0 1-3.984-1.447 35.108 35.108 0 0 1-20.556-25.254c-.5-2.642-.744-5.857-1.051-8.91l-.902-9.224-1.804-18.448c-1.163-12.302-2.492-24.588-3.779-36.879a5678.44 5678.44 0 0 0-8.118-73.707 1.924 1.924 0 1 0-3.832.369 4703.18 4703.18 0 0 0 6.067 73.924c1.078 12.314 2.113 24.634 3.313 36.936l1.743 18.46.871 9.23c.311 3.095.486 6.053 1.107 9.495a40.76 40.76 0 0 0 24.464 29.913 45.666 45.666 0 0 0 4.745 1.645c1.618.429 3.26.762 4.918.999.83.105 1.657.237 2.488.317l2.505.103c1.723.097 3.139.009 4.724.022l18.538-.127c24.719-.347 49.437-.728 74.156-1.59a1.358 1.358 0 0 0 0-2.714z"/></g><g><path fill="none" stroke="#3a1a7e" stroke-miterlimit="20" stroke-width="2.5" d="M106.997 388.26v102"/></g><g><path fill="#3a1a7e" d="M88.83 297.525V292.7h310.167v4.825z"/></g><g><path fill="#e3bc9a" d="M125.41 509.514l-3.294 11.8 16.026 4.857 5.016-14.57z"/></g><g><path fill="#e3bc9a" d="M222.172 500.949v9.476H207.98l-1.584-9.476z"/></g><g><path fill="#d8ac89" d="M113.181 226.85l21.433 52.901.476 1.176a8.09 8.09 0 0 0 7.53 5.035l61.028-.437a4.468 4.468 0 0 0 .614-8.89l-60.39-8.818 8.006 6.21-14.427-55.226c-1.789-6.846-8.788-10.946-15.634-9.158-6.845 1.789-10.945 8.788-9.157 15.634.143.534.317 1.059.522 1.572z"/></g><g><path fill="#d8ac89" d="M197.018 275.578l20.84-.431c5.437.308 9.605 4.95 9.328 10.39h-30.434z"/></g><g><path fill="url(#3q34a)" d="M146.925 233.288l-33.369 8.148-5.475-29.74a14.405 14.405 0 0 1 12.277-16.773 14.668 14.668 0 0 1 15.897 9.34z"/></g><g><path fill="#9e7e3e" d="M112.425 291.12l102.811 52.174a26.897 26.897 0 0 1 14.68 25.56L222.17 500.95h-15.774l-21.282-141.336-80.044-56.2z"/></g><g><path fill="#d41747" d="M130.566 110.707s-28.57-9.713-43.58 17.342a27.344 27.344 0 0 1-2.99 4.458c-3.049 3.6-9.404 10.23-16.412 12.38-27.804 8.531-45.4 61.107 9.946 65.786 69.259 5.855 88.926-7.803 79.018-35.413-7.067-19.69-.757-33.669-.757-33.669z"/></g><g><path fill="url(#3q34b)" d="M107.759 181.269l14.783 6.577a24.12 24.12 0 0 1 14.336 22.311c-.228 19.41-4.632 67.604-21.03 86.046H65.865c-7.74-34.145-3.28-86.62-3.28-86.62-.5-12.867 8.962-23.961 21.746-25.498z"/></g><g><path fill="#ddb28d" d="M106.383 197.184a9.57 9.57 0 0 0 10.598-8.291l4.067-31.768-19.014-2.211-4.038 31.549a9.57 9.57 0 0 0 8.387 10.721z"/></g><g><path fill="#e3bc9a" d="M122.082 180.832l.759.1c12.672 1.651 24.283-7.282 25.935-19.954l3.609-27.681-46.648-6.081-3.608 27.681c-1.652 12.672 7.28 24.283 19.953 25.935z"/></g><g><path fill="#d41747" d="M100.617 144.265l3.977 8.252s5.3 4.591 6.802-6.948c1.273-9.775 8.366-8.077 8.366-8.077s24.308 18.389 38.586 5.77c11.27-9.958-6.942-28.185-27.781-32.555l-27.335 11.941z"/></g><g><path fill="#e3bc9a" d="M107.349 152.85a7.714 7.714 0 1 1-15.317-1.853 7.714 7.714 0 0 1 15.317 1.853z"/></g><g><path fill="#fff" d="M101.07 155.53a1.39 1.39 0 1 1-2.76-.333 1.39 1.39 0 0 1 2.76.334z"/></g><g><path fill="#fff" d="M140.492 167.43l-13.093-2.785s-.63 5.688 6.54 6.714a5.317 5.317 0 0 0 6.553-3.928z"/></g><g><path fill="#ecb334" d="M65.865 296.203h49.983l79.961 48.315c9.428 5.696 13.164 17.505 8.728 27.588l-61.38 139.496-17.747-2.088 32.99-134.611c-27.687-1.17-79.1-5.353-92.535-20.325-22.735-25.34 0-58.375 0-58.375z"/></g><g><path fill="#a7a2f4" d="M236.33 208.671l-28.52 76.645h92.687l26.385-72.197a3.31 3.31 0 0 0-3.11-4.448z"/></g><g><path fill="#8c8cdd" d="M236.33 208.671h-4.437a5.69 5.69 0 0 0-5.339 3.722l-26.892 72.923h8.148z"/></g><g><path fill="#9595e8" d="M300.242 285.316H207.81v7.384h85.741a6.691 6.691 0 0 0 6.691-6.691v-.693z"/></g><g><path fill="#8b8bd8" d="M207.81 292.7h-57.2a3.692 3.692 0 1 1 0-7.384h57.2z"/></g><g><path fill="#ecf2f5" d="M259.548 246.768c-1.754 5.296.362 10.76 4.725 12.205 4.363 1.444 9.322-1.678 11.075-6.973 1.754-5.296-.362-10.76-4.725-12.205-4.363-1.444-9.321 1.677-11.075 6.973z"/></g><g><path fill="#e3bc9a" d="M74.07 225.403l21.471 53.916.474 1.191a8.161 8.161 0 0 0 7.61 5.125l61.038-.401a4.51 4.51 0 0 0 .63-8.974l-60.38-8.938 8.084 6.314-14.389-56.222c-1.77-6.918-8.813-11.091-15.731-9.32-6.918 1.77-11.09 8.813-9.32 15.73.14.536.312 1.063.513 1.58z"/></g><g><path fill="#e3bc9a" d="M158.04 275.142l20.84-.439c5.489.368 9.653 5.092 9.329 10.583h-30.434z"/></g><g><path fill="url(#3q34c)" d="M107.947 232.065l-33.368 8.3-5.475-30.293a14.637 14.637 0 0 1 12.276-17.085 14.638 14.638 0 0 1 15.897 9.513z"/></g><g><path fill="#d41747" d="M148.548 514.85l7.786 7.687 17.495 4.258a5.48 5.48 0 0 1 3.875 3.51l.89 2.532a1.91 1.91 0 0 1-1.843 2.542l-56.316-1.368a3.183 3.183 0 0 1-3.106-3.44l4.44-15.953 8.51 2.035c2.845.946 5.96.623 8.552-.886l3.026-1.763a5.549 5.549 0 0 1 6.691.846z"/></g><g><path fill="#70263b" d="M229.377 503.785l7.786 7.687 17.495 4.258a5.482 5.482 0 0 1 3.875 3.51l.89 2.532a1.91 1.91 0 0 1-1.844 2.543l-50.973-1.076a3.184 3.184 0 0 1-3.106-3.44l1.323-16.299 6.284 2.088c2.846.946 5.961.623 8.553-.886l3.026-1.763a5.55 5.55 0 0 1 6.69.846z"/></g><g><path fill="#d41747" d="M347.058 269.472s-23.583.084-18.683-24.19"/></g><g><path fill="#d41747" d="M350.014 268.17s23.875.085 18.915-24.489"/></g><g><path fill="#70263b" d="M348.918 268.254s17.387-17.52-3.118-32.963"/></g><g><path fill="#f0c459" d="M329.842 266.2h38.153l-6.076 26.49h-25.517z"/></g><g><path fill="none" stroke="#3a1a7e" stroke-miterlimit="20" stroke-width="2" d="M254.027 297.525v186.83"/></g></g></g><g><g><g opacity=".43"><path fill="#d3e3eb" d="M600 536.258c0-6.097 125.36-11.039 280-11.039s280 4.942 280 11.039c0 6.096-125.36 11.038-280 11.038s-280-4.942-280-11.038z"/></g><g><path fill="#b0c4cb" d="M971.366 525.274V403.461h12.738v121.813z"/></g><g><path fill="#91adb7" d="M971.366 420.585v-17.124h12.738v17.124z"/></g><g><path fill="#b0c4cb" d="M1029.13 525.316H922.337a7.38 7.38 0 0 0-7.38 7.38v3.799h121.555v-3.799a7.38 7.38 0 0 0-7.38-7.38z"/></g><g><path fill="#b0c4cb" d="M1007.933 403.582H919.66c32.12-11.535 19.694-120.201 13.757-161.393a13.768 13.768 0 0 1 13.637-15.724h58.797c12.034-.007 22.226 8.869 23.874 20.789 5.16 37.426 13.29 115.035-2.814 145.08a21.496 21.496 0 0 1-18.978 11.248z"/></g><g><path fill="#82bbf1" d="M1075.401 45.557H969.803c-5.414 0-9.803 4.389-9.803 9.803v47.576c0 5.414 4.39 9.803 9.803 9.803h7.375v11.504a1.844 1.844 0 0 0 3.08 1.37l14.277-12.874h80.866c5.415 0 9.804-4.39 9.803-9.804V55.36c0-5.415-4.389-9.804-9.803-9.803z"/></g><g><path fill="#476488" d="M1001.246 79.87a4.318 4.318 0 1 1-8.635 0 4.318 4.318 0 0 1 8.635 0z"/></g><g><path fill="#476488" d="M1027.806 79.87a4.317 4.317 0 1 1-8.635 0 4.317 4.317 0 0 1 8.635 0z"/></g><g><path fill="#476488" d="M1043.958 79.87a4.317 4.317 0 1 1 8.635 0 4.317 4.317 0 0 1-8.635 0z"/></g><g><path fill="#83b6ec" d="M1050.254 286.38c0-11.645 8.223-23.314 18.368-23.314 10.144 0 18.367 11.67 18.367 23.313 0 11.645-8.223 21.084-18.367 21.084-10.145 0-18.368-9.44-18.368-21.084z"/></g><g opacity=".25"><path fill="#476488" d="M1068.622 263.066c1.611.013 3.208.313 4.714.887-7.855 2.897-13.653 12.656-13.653 22.426 0 9.77 5.798 17.964 13.653 20.357a16.13 16.13 0 0 1-4.714.727c-10.145 0-18.368-9.44-18.368-21.084s8.223-23.313 18.368-23.313z"/></g><g><path fill="#d3e3eb" d="M1089.555 300.156l-3.292 29.803a7.353 7.353 0 0 1-7.308 6.545h-18.998a7.353 7.353 0 0 1-7.309-6.545l-3.291-29.803a2.739 2.739 0 0 1 2.722-3.04h34.754a2.738 2.738 0 0 1 2.722 3.04z"/></g><g><path fill="#b0c4cb" d="M1086.833 301.57h-34.754a2.693 2.693 0 0 0-2.398 1.527l-.324-2.941a2.739 2.739 0 0 1 2.722-3.04h34.754a2.738 2.738 0 0 1 2.722 3.04l-.325 2.94a2.692 2.692 0 0 0-2.397-1.526z"/></g><g><path fill="#b0c4cb" d="M1052.079 297.117h12.05a2.738 2.738 0 0 0-2.722 3.039l3.292 29.803a7.352 7.352 0 0 0 7.308 6.545h-12.05a7.353 7.353 0 0 1-7.309-6.545l-3.291-29.803a2.739 2.739 0 0 1 2.722-3.04z"/></g><g><path fill="#e3bd78" d="M899.874 507.294l1.245 8.613-6.554 8.387-16.621-8.139-1.8-7.876 20.69-3.128z"/></g><g><path fill="#2c3c4d" d="M886.457 535.013l-1.716-2.125a.8.8 0 0 0-1.232-.016l-1.723 2.02a3.594 3.594 0 0 1-2.796 1.262l-38.62-.658a2.073 2.073 0 0 1-.067-2.92c5.66-5.712 36.125-15.588 37.64-16.42 1.517-.833 10.834 6.406 23.177-.25a130.752 130.752 0 0 1 2.29 15.933 4.41 4.41 0 0 1-4.46 4.655l-9.801-.167a3.538 3.538 0 0 1-2.692-1.314z"/></g><g><path fill="#2c3c4d" d="M970.749 361.742s16.035 17.726-13.329 36.99c-20.6 13.516-36.835 9.387-49.765 17.579a10.89 10.89 0 0 0-5.551 8.364l-.657 82.872-1.563.776a28.472 28.472 0 0 1-24.763.27l-11.694-94.556c-.418-6.517 3.104-12.013 7.14-17.147 22.452-28.562 62.21-38.24 72.273-39.89 13.082-2.146 27.909 4.742 27.909 4.742z"/></g><g><path fill="#e3bd78" d="M963.733 507.284l1.365 8.596-6.44 8.474-16.731-7.908-1.909-7.853 20.646-3.41z"/></g><g><path fill="#2c3c4d" d="M950.697 535.184l-1.745-2.1a.8.8 0 0 0-1.231 0l-1.695 2.044a3.597 3.597 0 0 1-2.78 1.3l-38.625-.13a2.074 2.074 0 0 1-.107-2.918c5.582-5.79 35.908-16.082 37.413-16.934 1.504-.853 10.92 6.257 23.17-.566a130.755 130.755 0 0 1 2.507 15.899 4.41 4.41 0 0 1-4.396 4.715l-9.802-.032a3.537 3.537 0 0 1-2.709-1.278z"/></g><g><path fill="#2c3c4d" d="M1019.495 346.286s19.43 21.656-8.665 46.116c-19.71 17.161-37.397 9.823-49.81 20.288a11.552 11.552 0 0 0-4.633 9.587l8.872 84.296-.669.434a26.705 26.705 0 0 1-25.906 1.766l-21.968-88.828c-1.376-6.789 1.537-13.07 5.042-19.045 19.496-33.24 50.108-53.051 60.447-56.23 13.44-4.132 37.29 1.616 37.29 1.616z"/></g><g><path fill="#1f2e40" d="M912.301 413.937a38.551 38.551 0 0 1 4.526-1.572 38.66 38.66 0 0 1 4.935-11.472 152.137 152.137 0 0 1 33.38-39.132c-7.04-1.195-10.624-2.703-12.572-4.684a132.358 132.358 0 0 0-21.091 5.721c-9.555 15.967-9.524 41.898-9.178 51.139z"/></g><g><path fill="#d3e3eb" d="M967.18 231.682s28.024-3.737 39.67 18.099c11.646 21.835 29.037 107.434 13.83 110.037-6.733 1.153-24.687 5.672-44.583 4.216-27.353-2.002-33.3-4.519-35.272-9.721l-17.426-79.77a33.732 33.732 0 0 1 13.229-28.163 95.012 95.012 0 0 1 30.553-14.698z"/></g><g><path fill="#b0c4cb" d="M923.508 267.53s-.364 48.04-15.467 50.951c-15.104 2.912-55.32 2.002-55.32 2.002v15.285h86.254z"/></g><g><path fill="#d4904f" d="M944.392 245.736l-3.398-16.991 22.037-16.785 4.223 20.029s-6.951 30.584-22.862 13.747z"/></g><g><path fill="#2c3c4d" d="M916.279 196.362s11.53 5.61 28.422-4.683c0 0 3.918 7.043 15.237 13.334 0 0 5.882-9.862 9.268-2.472a15.612 15.612 0 0 1 1.557 6.03c10.603-13.692 3.127-31.734-6.76-41.459-9.366-9.23-29.645-5.56-42.311-.47-13.445 5.413-15.917-4.003-15.917-4.003-16.991 23.936 10.504 33.723 10.504 33.723z"/></g><g><path fill="#e3bd78" d="M959.942 205.008s5.883-9.86 9.268-2.471c4.107 8.963-.527 14.584-6.088 14.584 0 0-4.416 23.312-25.835 21.664-21.42-1.647-24.51-36.042-21.008-42.427 0 0 11.534 5.613 28.422-4.685 0 0 3.914 7.053 15.241 13.335z"/></g><g><path fill="#d3e3eb" d="M774.288 259.534h89.407a9.273 9.273 0 0 1 9.086 7.419l11.902 58.34H776.35l-11.146-54.632a9.273 9.273 0 0 1 9.085-11.127z"/></g><g><path fill="#8ba6af" d="M924.452 325.3H776.694a4.413 4.413 0 0 0-4.413 4.412v1.43a4.413 4.413 0 0 0 4.413 4.412h147.758a4.413 4.413 0 0 0 4.413-4.413v-1.429a4.413 4.413 0 0 0-4.413-4.413z"/></g><g><path fill="#b0c4cb" d="M776.694 325.299h109.175a4.414 4.414 0 0 0-4.413 4.413v1.43a4.413 4.413 0 0 0 4.413 4.412H776.694a4.413 4.413 0 0 1-4.413-4.413v-1.429a4.414 4.414 0 0 1 4.413-4.413z"/></g><g><path fill="#d3e3eb" d="M919.687 322.17c17.407-2.027 66.239-7.009 74.607-7.875 10.555-1.091-12.374-43.672-14.921-58.23-2.548-14.557 8.552-15.103 8.552-15.103 6.266-.783 13.102 0 18.925 8.819 11.918 18.05 25.193 70.813 18.197 83.84a4.714 4.714 0 0 1-4.163 2.465H919.687z"/></g><g><path fill="#b0c4cb" d="M919.687 322.171s62.87-4.327 76.427-6.147c10.516-1.411-11.404-45.037-13.951-59.595-2.547-14.557 8.734-13.95 8.734-13.95a27.012 27.012 0 0 1 9.817.921 18.194 18.194 0 0 0-12.796-2.445s-11.093.553-8.545 15.11c2.547 14.558 22.2 56.23 15.558 57.867-8.17 2.014-57.833 6.216-75.244 8.24z"/></g><g><path fill="#e3bd78" d="M919.687 336.314h-23.452a2.215 2.215 0 0 1-1.86-3.424c2.197-3.375 5.666-8.142 8.206-8.95 1.517-.482 12.92-.057 17.106.387z"/></g><g opacity=".67"><path fill="#d4904f" d="M916.279 196.358c1.696.7 3.485 1.146 5.311 1.325.285 1.587.796 4.638 1.071 7.53.393 4.125-1.67 16.894-.392 16.992a37.24 37.24 0 0 0 3.929-.098s1.964 18.466 20.43 15.52c.175-.029.313-.047.479-.073a23.342 23.342 0 0 1-9.82 1.231c-21.42-1.647-24.51-36.042-21.008-42.427z"/></g><g><path fill="#83b6ec" d="M647.452 464.674s-29.455-14.61-21.443-36.76c8.012-22.15 12.96-23.093-2.357-35.582-15.316-12.49-37.466-43.83-9.425-46.186 28.04-2.357 26.627 34.875 49.956 40.059 23.329 5.184 36.053 102.74-16.73 78.469z"/></g><g opacity=".25"><path fill="#476488" d="M670.635 466.869c-5.657 2.623-13.262 2.366-23.183-2.195 0 0-29.455-14.61-21.443-36.76 8.012-22.151 12.96-23.094-2.357-35.582-15.316-12.49-37.466-43.83-9.425-46.186a25.777 25.777 0 0 1 7.475.4c-7.891 3.278-15.742 9.781-5.596 21.815 16.895 20.038 25.931 27.11 23.967 40.076-1.916 12.643-.827 41.347 30.562 58.432z"/></g><g><path fill="#83b6ec" d="M697.408 463.967s25.921-.943 24.507-19.559c-1.414-18.615-2.134-19.345 14.139-25.214 28.748-10.367 5.989-65.584-17.438-30.868-16.26 24.094-23.328 18.674-33.932 20.56-10.604 1.885-33.697 63.328 12.724 55.08z"/></g><g opacity=".29"><path fill="#476488" d="M684.684 408.885c10.604-1.885 17.673 3.535 33.932-20.56 12.262-18.17 24.327-11.691 28.933.088-6.9-2.112-17.377-3.382-18.682 7.844-1.694 14.565-35.768 38.48-35.071 68.208-.454.049-.89.08-1.329.114-4.957-13.074-11.501-30.032-17.102-44.481 2.997-6.23 6.573-10.725 9.319-11.213z"/></g><g><path fill="#476488" d="M691.4 463.142s32.165-31.458 21.207-36.76c-10.957-5.302-32.518 12.018-20.5-6.716 12.017-18.734 26.01-47.914 9.398-43.319-16.613 4.595-17.816 9.643-15.76-12.175 2.658-28.222-13.079-42.769-27.924-33.579-14.846 9.19 12.724 71.4 2.474 64.684-10.25-6.716-18.734-12.371-20.855-4.242-2.12 8.13 29.347 40.05 17.674 34.64-14.492-6.716-16.613 5.302-12.018 12.725 4.595 7.422 23.682 51.605 46.303 24.742z"/></g><g opacity=".48"><path fill="#2c3c4d" d="M645.096 438.4c-4.595-7.423-2.474-19.44 12.018-12.725 11.673 5.41-19.794-26.51-17.674-34.64 2.121-8.13 10.604-2.474 20.855 4.242 10.25 6.716-17.32-55.494-2.474-64.684a15.15 15.15 0 0 1 19.327 1.623c-7.685 1.88-13.838 8.06-9.573 24.752 9.037 35.36 14.537 64.827-1.964 56.183-15.544-8.142 18.052 29.38 18.394 56.42-19.288 11.023-34.825-24.574-38.91-31.171z"/></g><g><path fill="#d3e3eb" d="M713.672 466.831l-6.225 56.361a13.904 13.904 0 0 1-13.82 12.378h-35.929a13.905 13.905 0 0 1-13.82-12.378l-6.225-56.361a5.179 5.179 0 0 1 5.147-5.747h65.724a5.179 5.179 0 0 1 5.148 5.747z"/></g><g><path fill="#b0c4cb" d="M642.8 461.084h22.788a5.179 5.179 0 0 0-5.147 5.747l6.224 56.361a13.905 13.905 0 0 0 13.821 12.378h-22.788a13.905 13.905 0 0 1-13.82-12.378l-6.225-56.361a5.179 5.179 0 0 1 5.147-5.747z"/></g><g><path fill="#5d8ac8" d="M1097.896 336.132H712.67a7.83 7.83 0 0 0-7.83 7.83v2.537a7.83 7.83 0 0 0 7.83 7.83h385.225a7.83 7.83 0 0 0 7.83-7.83v-2.537a7.83 7.83 0 0 0-7.83-7.83z"/></g><g><path fill="#4772a6" d="M712.67 336.132h385.226a7.83 7.83 0 0 1 7.83 7.83v2.537a7.75 7.75 0 0 1-.406 2.37 7.803 7.803 0 0 0-7.424-5.459H712.67a7.804 7.804 0 0 0-7.425 5.46 7.748 7.748 0 0 1-.405-2.37v-2.538a7.83 7.83 0 0 1 7.83-7.83z"/></g><g><path fill="#476488" d="M976.138 535.843h12.874l89.573-181.424h-12.875z"/></g><g><path fill="#476488" d="M1117.891 535.843h-12.876l-89.571-181.424h12.874z"/></g><g><path fill="#476488" d="M698.816 535.843h12.874l89.573-181.424h-12.874z"/></g><g><path fill="#476488" d="M840.57 535.843h-12.877l-89.57-181.424h12.874z"/></g><g><path fill="#293951" d="M1062.161 361.607l3.55-7.188h12.874l-3.55 7.188z"/></g><g><path fill="#293951" d="M1018.991 361.607l-3.547-7.188h12.874l3.55 7.188z"/></g><g><path fill="#293951" d="M784.84 361.607l3.549-7.188h12.874l-3.547 7.188z"/></g><g><path fill="#293951" d="M741.67 361.607l-3.548-7.188h12.875l3.549 7.188z"/></g></g></g></g></svg>