<svg xmlns="http://www.w3.org/2000/svg" width="936" height="461" viewBox="0 0 936 461"><defs><clipPath id="kg18a"><path fill="#fff" d="M-90.64 460v-50.582H950.64V460z"/></clipPath><radialGradient id="kg18c" cx="3.63" cy="414.99" r="0" gradientUnits="userSpaceOnUse"><stop offset="0"/><stop offset="1" stop-opacity="0"/></radialGradient><clipPath id="kg18d"><path fill="#fff" d="M266.797 73c-6.628 0-12-5.373-12-12s5.372-12 12-12h383c6.627 0 12 5.373 12 12s-5.373 12-12 12z"/></clipPath><radialGradient id="kg18e" cx="0" cy="460" r="0" gradientUnits="userSpaceOnUse"><stop offset="0" stop-color="#fff"/><stop offset="1" stop-color="#fff" stop-opacity="0"/></radialGradient><clipPath id="kg18b"><path d="M-90.64 460v-50.582H950.64V460z"/></clipPath></defs><g><g><g><g><path fill="#fff" d="M-90.64 460v-50.582H950.64V460z"/><path fill="none" stroke="#707070" stroke-miterlimit="20" stroke-width="2" d="M-90.64 460v0-50.582 0H950.64V460z" clip-path="url(&quot;#kg18a&quot;)"/></g><g clip-path="url(#kg18b)"><path fill="url(#kg18c)" d="M3.632 460.677c0-25.233 194.09-45.689 433.51-45.689s433.51 20.456 433.51 45.69c0 25.233-194.09 45.688-433.51 45.688S3.632 485.911 3.632 460.677z"/></g></g><g><path fill="#fff" d="M150.797 460V24c0-13.255 10.745-24 24-24h511c13.255 0 24 10.745 24 24v436z"/></g><g opacity=".06"><path fill="none" stroke="#000" stroke-miterlimit="20" d="M150.797 42.5H710"/></g><g opacity=".06"><path fill="none" stroke="#000" stroke-miterlimit="20" d="M150.797 79.5H710"/></g><g><path fill="#e64053" d="M166.797 22a6 6 0 1 1 12 0 6 6 0 0 1-12 0z"/></g><g><path fill="#ffc655" d="M186.797 22a6 6 0 1 1 12 0 6 6 0 0 1-12 0z"/></g><g><path fill="#23d87d" d="M206.797 22a6 6 0 1 1 12 0 6 6 0 0 1-12 0z"/></g><g opacity=".1"><path fill="none" stroke="#000" stroke-miterlimit="20" stroke-width="2" d="M266.797 73c-6.628 0-12-5.373-12-12v0c0-6.627 5.372-12 12-12h383c6.627 0 12 5.373 12 12v0c0 6.627-5.373 12-12 12z" clip-path="url(&quot;#kg18d&quot;)"/></g><g opacity=".1"><path d="M681.797 73c-6.628 0-12-5.373-12-12s5.372-12 12-12c6.627 0 12 5.373 12 12s-5.373 12-12 12z"/></g><g opacity=".1"><g opacity=".1"/><g opacity=".1"><path d="M186.797 61h-12.17l5.59-5.59-1.42-1.41-8 8 8 8 1.41-1.41-5.58-5.59h12.17z"/></g></g><g opacity=".1"><g opacity=".1"/><g opacity=".1"><path d="M198.797 61h12.17l-5.59-5.59 1.42-1.41 8 8-8 8-1.41-1.41 5.58-5.59h-12.17z"/></g></g><g opacity=".1"><g opacity=".1"><path d="M240.447 56.35a7.958 7.958 0 0 0-5.65-2.35c-4.42 0-7.99 3.58-7.99 8s3.57 8 7.99 8c3.73 0 6.84-2.55 7.73-6h-2.08a5.99 5.99 0 0 1-5.65 4c-3.31 0-6-2.69-6-6s2.69-6 6-6c1.66 0 3.14.69 4.22 1.78l-3.22 3.22h7v-7z"/></g><g opacity=".1"/></g><g opacity=".1"><path fill="none" stroke="#000" stroke-miterlimit="20" d="M334.297 12.5v18"/></g><g><g><path fill="#23d87d" d="M137.232 307.962c14.116.016 25.557 11.456 25.572 25.573 0 14.122-11.449 25.571-25.572 25.571s-25.572-11.45-25.572-25.572c0-14.123 11.45-25.572 25.572-25.572zm0 52.007c14.593-.016 26.419-11.842 26.435-26.435 0-14.6-11.835-26.435-26.435-26.435-14.6 0-26.435 11.835-26.435 26.435 0 14.6 11.835 26.435 26.435 26.435z"/></g><g><path fill="#252f5a" d="M935.797 401A8.419 8.419 0 1 1 918.96 401a8.419 8.419 0 0 1 16.837.002z"/></g><g><path fill="#ffa76c" d="M85.031 109.773l-13.785 23.884H98.82z"/></g><g><path fill="#23d87d" d="M761.186 282.485l-18.444 18.44-6.748-25.192zm1.14.08l.526-.529-28.079-7.523 7.328 27.358.196.723z"/></g><g><path fill="#252f5a" d="M629.305 94.856l-16.603-16.603 16.603-16.604 16.603 16.604z"/></g><g><path fill="#252f5a" d="M466.207 211.923l-37.363-37.363.614-.614 37.363 37.363z"/></g></g><g opacity=".5"><path fill="url(#kg18e)" d="M0 461v-1h860v1z"/></g></g></g></svg>