<svg xmlns="http://www.w3.org/2000/svg" width="95" height="87" viewBox="0 0 95 87"><defs><clipPath id="t294a"><path fill="#fff" d="M32.333 57.67h53.334c.736 0 1.333.597 1.333 1.333L95 71c0 .737-.597 1.333-1.333 1.333H24.333A1.333 1.333 0 0 1 23 71l8-11.997c0-.736.597-1.333 1.333-1.333z"/></clipPath><clipPath id="t294b"><path fill="#fff" d="M31.998 61.656a1 1 0 0 1-1-1V20a1 1 0 0 1 1-1h54.004a1 1 0 0 1 1 1v40.656a1 1 0 0 1-1 1z"/></clipPath><clipPath id="t294c"><path fill="#fff" d="M40 76c0-6.075 4.925-11 11-11s11 4.925 11 11-4.925 11-11 11-11-4.925-11-11z"/></clipPath></defs><g><g><g><g><g><path fill="none" stroke="#252f5a" stroke-linecap="round" stroke-linejoin="round" stroke-miterlimit="20" stroke-width="6" d="M32.333 57.67v0h53.334c.736 0 1.333.597 1.333 1.333L95 71c0 .737-.597 1.333-1.333 1.333H24.333A1.333 1.333 0 0 1 23 71l8-11.997c0-.736.597-1.333 1.333-1.333z" clip-path="url(&quot;#t294a&quot;)"/></g><g><path fill="none" stroke="#252f5a" stroke-miterlimit="20" stroke-width="6" d="M31.998 61.656a1 1 0 0 1-1-1V20a1 1 0 0 1 1-1h54.004a1 1 0 0 1 1 1v40.656a1 1 0 0 1-1 1z" clip-path="url(&quot;#t294b&quot;)"/></g></g><g><path fill="#252f5a" d="M48 50a1 1 0 0 1-1-1v-6a1 1 0 0 1 1-1h1a1 1 0 0 1 1 1v6a1 1 0 0 1-1 1z"/></g><g><path fill="#252f5a" d="M55 50a1 1 0 0 1-1-1V39a1 1 0 0 1 1-1h1a1 1 0 0 1 1 1v10a1 1 0 0 1-1 1z"/></g><g><path fill="#252f5a" d="M62 50a1 1 0 0 1-1-1V35a1 1 0 0 1 1-1h1a1 1 0 0 1 1 1v14a1 1 0 0 1-1 1z"/></g><g><path fill="#252f5a" d="M69 50a1 1 0 0 1-1-1V31a1 1 0 0 1 1-1h1a1 1 0 0 1 1 1v18a1 1 0 0 1-1 1z"/></g></g></g><g><g><path fill="none" stroke="#ffe07d" stroke-miterlimit="20" d="M27.389 8.485L8.945 26.925 2.197 1.733zm1.14.08l.526-.529L.976.513 8.304 27.87l.196.723z"/></g><g><path fill="#252f5a" d="M90.41 52.923L53.047 15.56l.614-.614 37.363 37.363z"/></g><g><path fill="none" stroke="#462be2" stroke-miterlimit="20" stroke-width="2" d="M40 76c0-6.075 4.925-11 11-11s11 4.925 11 11-4.925 11-11 11-11-4.925-11-11z" clip-path="url(&quot;#t294c&quot;)"/></g></g></g></svg>