<svg xmlns="http://www.w3.org/2000/svg" width="99" height="104" viewBox="0 0 99 104"><defs><clipPath id="1i1ja"><path fill="#fff" d="M21 83.35a2 2 0 0 1-2-2v-64a2 2 0 0 1 2-2h50a2 2 0 0 1 2 2v64a2 2 0 0 1-2 2z"/></clipPath><clipPath id="1i1jb"><path fill="#fff" d="M46 67.35a9 9 0 1 1 18 0 9 9 0 0 1-18 0z"/></clipPath><clipPath id="1i1jc"><path fill="#fff" d="M50.48 73.35H59v18.743l-4.25-4.645-4.27 4.645z"/></clipPath><clipPath id="1i1jd"><path fill="#fff" d="M77.112 81.35c0-6.074 4.924-11 11-11 6.075 0 11 4.926 11 11 0 6.076-4.925 11-11 11-6.076 0-11-4.924-11-11z"/></clipPath></defs><g><g><g><path fill="none" stroke="#252f5a" stroke-miterlimit="20" stroke-width="6" d="M21 83.35a2 2 0 0 1-2-2v-64a2 2 0 0 1 2-2h50a2 2 0 0 1 2 2v64a2 2 0 0 1-2 2z" clip-path="url(&quot;#1i1ja&quot;)"/></g><g><path fill="none" stroke="#252f5a" stroke-miterlimit="20" stroke-width="6" d="M46 67.35a9 9 0 1 1 18 0 9 9 0 0 1-18 0z" clip-path="url(&quot;#1i1jb&quot;)"/></g><g><path fill="#252f5a" d="M50.48 73.35H59v18.743l-4.25-4.645-4.27 4.645z"/><path fill="none" stroke="#252f5a" stroke-miterlimit="20" stroke-width="4" d="M50.48 73.35v0H59v18.743l-4.25-4.645v0l-4.27 4.645v0z" clip-path="url(&quot;#1i1jc&quot;)"/></g></g><g><g><path fill="none" stroke="#ffa76c" stroke-miterlimit="20" d="M34.207 17.603v0L17.603 34.207v0L1 17.603v0L17.603 1v0z"/></g><g><path fill="#252f5a" d="M42.064 65.91L4.701 103.273l-.613-.613L41.45 65.297z"/></g><g><path fill="none" stroke="#462be2" stroke-miterlimit="20" stroke-width="2" d="M77.112 81.35c0-6.074 4.924-11 11-11 6.075 0 11 4.926 11 11 0 6.076-4.925 11-11 11-6.076 0-11-4.924-11-11z" clip-path="url(&quot;#1i1jd&quot;)"/></g></g></g></svg>