<svg xmlns="http://www.w3.org/2000/svg" width="99" height="104" viewBox="0 0 99 104"><defs><clipPath id="i63ja"><path fill="#fff" d="M46.671 38.022a1 1 0 0 1 1-1h6.09c.044-1.33.112-2.269.203-2.364.39-.39 1.023-.39 1.415 0l5.656 5.657a1 1 0 0 1 0 1.414l-5.656 5.657c-.392.39-1.024.39-1.415 0-.093-.096-.161-1.036-.204-2.364h-6.088a1 1 0 0 1-1-1z"/></clipPath><clipPath id="i63jb"><path fill="#fff" d="M52.328 48.022a1 1 0 0 0-1-1h-6.09c-.043-1.33-.111-2.269-.203-2.364a1.001 1.001 0 0 0-1.414 0l-5.656 5.657a.999.999 0 0 0 0 1.414l5.656 5.657c.391.39 1.024.39 1.414 0 .094-.096.162-1.036.205-2.364h6.088a1 1 0 0 0 1-1z"/></clipPath><clipPath id="i63jc"><path fill="#fff" d="M23.333 63.67h53.334c.736 0 1.333.597 1.333 1.333L86 77c0 .737-.597 1.333-1.333 1.333H15.333A1.333 1.333 0 0 1 14 77l8-11.997c0-.736.597-1.333 1.333-1.333z"/></clipPath><clipPath id="i63jd"><path fill="#fff" d="M22.998 67.656a1 1 0 0 1-1-1V26a1 1 0 0 1 1-1h54.004a1 1 0 0 1 1 1v40.656a1 1 0 0 1-1 1z"/></clipPath><clipPath id="i63je"><path fill="#fff" d="M77.112 81.35c0-6.074 4.924-11 11-11 6.075 0 11 4.926 11 11 0 6.076-4.925 11-11 11-6.076 0-11-4.924-11-11z"/></clipPath></defs><g><g><g><path fill="none" stroke="#252f5a" stroke-miterlimit="20" stroke-width="4" d="M46.671 38.022a1 1 0 0 1 1-1h6.09c.044-1.33.112-2.269.203-2.364.39-.39 1.023-.39 1.415 0l5.656 5.657a1 1 0 0 1 0 1.414l-5.656 5.657c-.392.39-1.024.39-1.415 0-.093-.096-.161-1.036-.204-2.364h-6.088a1 1 0 0 1-1-1z" clip-path="url(&quot;#i63ja&quot;)"/></g><g><path fill="none" stroke="#252f5a" stroke-miterlimit="20" stroke-width="4" d="M52.328 48.022a1 1 0 0 0-1-1h-6.09c-.043-1.33-.111-2.269-.203-2.364a1.001 1.001 0 0 0-1.414 0l-5.656 5.657a.999.999 0 0 0 0 1.414l5.656 5.657c.391.39 1.024.39 1.414 0 .094-.096.162-1.036.205-2.364h6.088a1 1 0 0 0 1-1z" clip-path="url(&quot;#i63jb&quot;)"/></g><g><g><path fill="none" stroke="#252f5a" stroke-linecap="round" stroke-linejoin="round" stroke-miterlimit="20" stroke-width="6" d="M23.333 63.67v0h53.334c.736 0 1.333.597 1.333 1.333L86 77c0 .737-.597 1.333-1.333 1.333H15.333A1.333 1.333 0 0 1 14 77l8-11.997c0-.736.597-1.333 1.333-1.333z" clip-path="url(&quot;#i63jc&quot;)"/></g><g><path fill="none" stroke="#252f5a" stroke-miterlimit="20" stroke-width="6" d="M22.998 67.656a1 1 0 0 1-1-1V26a1 1 0 0 1 1-1h54.004a1 1 0 0 1 1 1v40.656a1 1 0 0 1-1 1z" clip-path="url(&quot;#i63jd&quot;)"/></g></g></g><g><g><path fill="none" stroke="#ffa76c" stroke-miterlimit="20" d="M34.207 17.603v0L17.603 34.207v0L1 17.603v0L17.603 1v0z"/></g><g><path fill="#252f5a" d="M42.064 65.91L4.701 103.273l-.613-.613L41.45 65.297z"/></g><g><path fill="none" stroke="#462be2" stroke-miterlimit="20" stroke-width="2" d="M77.112 81.35c0-6.074 4.924-11 11-11 6.075 0 11 4.926 11 11 0 6.076-4.925 11-11 11-6.076 0-11-4.924-11-11z" clip-path="url(&quot;#i63je&quot;)"/></g></g></g></svg>