<svg xmlns="http://www.w3.org/2000/svg" width="91" height="81" viewBox="0 0 91 81"><defs><clipPath id="24oka"><path fill="#fff" d="M51.24 44.35c-.69 0-1.252-.448-1.252-.999v-6.758c-2.006-.057-3.455-.153-3.593-.287a1.35 1.35 0 0 1 0-1.911l7.65-7.65a1.35 1.35 0 0 1 1.91 0l7.65 7.65a1.35 1.35 0 0 1 0 1.911c-.14.136-1.59.233-3.592.29v6.755c0 .551-.562 1-1.254 1z"/></clipPath><clipPath id="24okb"><path fill="#fff" d="M28.333 55.67h53.334c.736 0 1.333.597 1.333 1.333L91 69c0 .737-.597 1.333-1.333 1.333H20.333A1.333 1.333 0 0 1 19 69l8-11.997c0-.736.597-1.333 1.333-1.333z"/></clipPath><clipPath id="24okc"><path fill="#fff" d="M27.998 59.656a1 1 0 0 1-1-1V18a1 1 0 0 1 1-1h54.004a1 1 0 0 1 1 1v40.656a1 1 0 0 1-1 1z"/></clipPath><clipPath id="24okd"><path fill="#fff" d="M0 11.35c0-6.075 4.925-11 11-11s11 4.925 11 11c0 6.076-4.925 11-11 11s-11-4.924-11-11z"/></clipPath></defs><g><g><g><g><path fill="#252f5a" d="M47 49.35a1 1 0 0 1-1-1v-1a1 1 0 0 1 1-1h16a1 1 0 0 1 1 1v1a1 1 0 0 1-1 1z"/></g><g><path fill="none" stroke="#252f5a" stroke-miterlimit="20" stroke-width="6" d="M51.24 44.35c-.69 0-1.252-.448-1.252-.999v-6.758c-2.006-.057-3.455-.153-3.593-.287a1.35 1.35 0 0 1 0-1.911l7.65-7.65a1.35 1.35 0 0 1 1.91 0l7.65 7.65a1.35 1.35 0 0 1 0 1.911c-.14.136-1.59.233-3.592.29v6.755c0 .551-.562 1-1.254 1z" clip-path="url(&quot;#24oka&quot;)"/></g><g><g><path fill="none" stroke="#252f5a" stroke-linecap="round" stroke-linejoin="round" stroke-miterlimit="20" stroke-width="6" d="M28.333 55.67v0h53.334c.736 0 1.333.597 1.333 1.333L91 69c0 .737-.597 1.333-1.333 1.333H20.333A1.333 1.333 0 0 1 19 69l8-11.997c0-.736.597-1.333 1.333-1.333z" clip-path="url(&quot;#24okb&quot;)"/></g><g><path fill="none" stroke="#252f5a" stroke-miterlimit="20" stroke-width="6" d="M27.998 59.656a1 1 0 0 1-1-1V18a1 1 0 0 1 1-1h54.004a1 1 0 0 1 1 1v40.656a1 1 0 0 1-1 1z" clip-path="url(&quot;#24okc&quot;)"/></g></g></g></g><g><g><path fill="none" stroke="#ffa76c" stroke-miterlimit="20" d="M31.235 56.124v0L17.449 80.007v0h27.575v0z"/></g><g><path fill="#252f5a" d="M82.41 49.273L45.047 11.91l.614-.613L83.024 48.66z"/></g><g><path fill="none" stroke="#462be2" stroke-miterlimit="20" stroke-width="2" d="M0 11.35c0-6.075 4.925-11 11-11s11 4.925 11 11c0 6.076-4.925 11-11 11s-11-4.924-11-11z" clip-path="url(&quot;#24okd&quot;)"/></g></g></g></svg>