<svg xmlns="http://www.w3.org/2000/svg" width="105" height="72" viewBox="0 0 105 72"><defs><clipPath id="gmeaa"><path fill="#fff" d="M42.333 11h53.334c.736 0 1.406 1.333 1.333 1.364l8 12.272c0 .753-.597 1.364-1.333 1.364H34.333C33.597 26 33 25.39 33 24.636l8-12.272c.125-.053.597-1.364 1.333-1.364z"/></clipPath><clipPath id="gmeab"><path fill="#fff" d="M0 30c0-6.075 4.925-11 11-11s11 4.925 11 11-4.925 11-11 11S0 36.075 0 30z"/></clipPath></defs><g><g><g><g><path fill="none" stroke="#252f5a" stroke-linecap="round" stroke-linejoin="round" stroke-miterlimit="20" stroke-width="6" d="M42.333 11v0h53.334c.736 0 1.406 1.333 1.333 1.364l8 12.272c0 .753-.597 1.364-1.333 1.364H34.333C33.597 26 33 25.39 33 24.636l8-12.272c.125-.053.597-1.364 1.333-1.364z" clip-path="url(&quot;#gmeaa&quot;)"/></g><g><path fill="#252f5a" d="M34 33a1 1 0 0 1-1-1v-1a1 1 0 0 1 1-1h70a1 1 0 0 1 1 1v1a1 1 0 0 1-1 1z"/></g><g><path fill="#252f5a" d="M34 40a1 1 0 0 1-1-1v-1a1 1 0 0 1 1-1h70a1 1 0 0 1 1 1v1a1 1 0 0 1-1 1z"/></g><g><path fill="#252f5a" d="M34 47a1 1 0 0 1-1-1v-1a1 1 0 0 1 1-1h70a1 1 0 0 1 1 1v1a1 1 0 0 1-1 1z"/></g><g><path fill="#252f5a" d="M34 54a1 1 0 0 1-1-1v-1a1 1 0 0 1 1-1h70a1 1 0 0 1 1 1v1a1 1 0 0 1-1 1z"/></g></g></g><g><g><path fill="none" stroke="#ffa76c" stroke-miterlimit="20" d="M84.235 46.773v0L70.449 70.657v0h27.575v0z"/></g><g><path fill="#252f5a" d="M97.41 37.923L60.047.56l.614-.614 37.363 37.363z"/></g><g><path fill="none" stroke="#462be2" stroke-miterlimit="20" stroke-width="2" d="M0 30c0-6.075 4.925-11 11-11s11 4.925 11 11-4.925 11-11 11S0 36.075 0 30z" clip-path="url(&quot;#gmeab&quot;)"/></g></g></g></svg>