<svg xmlns="http://www.w3.org/2000/svg" width="486" height="323" viewBox="0 0 486 323"><defs><linearGradient id="hghsa" x1="77.95" x2="109.45" y1="228.22" y2="228.22" gradientUnits="userSpaceOnUse"><stop offset=".11" stop-color="#fff"/><stop offset="1" stop-color="#f8f9f8"/></linearGradient></defs><g><g><g opacity=".2"><path fill="#252f5a" d="M360.424 82.7a6.809 6.809 0 0 1 6.174-.006 1.894 1.894 0 0 1 .02 3.582 6.81 6.81 0 0 1-6.174-.006 1.886 1.886 0 0 1-.02-3.57zm16.022 9.688a2.872 2.872 0 0 1 2.61 0l24.163 13.95a.799.799 0 0 1 .009 1.513c-.82.418-1.79.418-2.61 0L376.453 93.9a.799.799 0 0 1-.008-1.512zm22.901.29a3.625 3.625 0 0 1 3.296 0 1.008 1.008 0 0 1 .01 1.908 3.641 3.641 0 0 1-3.295 0 1.01 1.01 0 0 1-.01-1.909zm72.214 53.642c10.712-6.225 10.655-16.37-.127-22.594L348.816 52.932c-10.782-6.225-28.295-6.225-39.006 0l-3.543 2.06-6.154 3.575L25.812 217.974l-6.154 3.576-5.85 3.4c-10.71 6.224-10.654 16.368.128 22.593l122.618 70.794c10.782 6.225 28.295 6.224 39.006 0l5.85-3.4 6.153-3.576 274.302-159.406 6.153-3.577z"/></g><g><path fill="#23d87d" d="M423.334 27.485l-18.444 18.44-6.748-25.192zm1.14.08l.526-.529-28.078-7.523 7.328 27.358.195.723z"/></g><g><path fill="#23d87d" d="M248.564 228.962c14.117.016 25.557 11.456 25.573 25.573 0 14.122-11.45 25.571-25.573 25.571-14.123 0-25.571-11.45-25.571-25.572 0-14.123 11.449-25.572 25.571-25.572zm0 52.007c14.593-.016 26.42-11.842 26.436-26.435 0-14.6-11.836-26.435-26.435-26.435-14.6 0-26.436 11.835-26.436 26.435 0 14.6 11.836 26.435 26.435 26.435z"/></g><g><path fill="#252f5a" d="M475.53 77.345L352.913 6.552c-13.084-7.555-34.224-7.555-47.224-.001l-3.544 2.06-6.154 3.576L21.689 171.593l-6.154 3.576-5.85 3.4c-6.664 3.873-9.878 8.976-9.672 14.048.219 4.186.222 8.38.009 12.566-.324 5.195 2.945 10.454 9.817 14.422l10.435 6.025 112.184 64.769c13.084 7.554 34.226 7.554 47.225 0l5.85-3.4 6.154-3.576L371.546 178.9l94.442-54.883 6.154-3.577 2.176-1.264 1.366-.794c6.664-3.873 9.879-8.976 9.672-14.049-.218-4.186-.22-8.38-.008-12.566.323-5.195-2.946-10.454-9.817-14.422z"/></g><g><path fill="#fff" d="M184.643 259.935L38.64 175.641l260.38-151.316 146 84.294zm-77.87-24.17c-7.17 4.167-18.841 4.161-26.057-.005-7.215-4.166-7.253-10.921-.085-15.087 7.178-4.171 18.84-4.171 26.057-.006 7.215 4.166 7.262 10.927.085 15.099zM360.424 38.7a6.809 6.809 0 0 1 6.174-.006 1.894 1.894 0 0 1 .02 3.582 6.81 6.81 0 0 1-6.174-.006 1.886 1.886 0 0 1-.02-3.57zm16.022 9.688a2.872 2.872 0 0 1 2.61 0l24.163 13.95a.799.799 0 0 1 .009 1.513c-.82.418-1.79.418-2.61 0L376.453 49.9a.799.799 0 0 1-.008-1.512zm22.901.29a3.625 3.625 0 0 1 3.296 0 1.008 1.008 0 0 1 .01 1.908 3.641 3.641 0 0 1-3.295 0 1.01 1.01 0 0 1-.01-1.909zm72.214 53.642c10.712-6.225 10.655-16.37-.127-22.594L348.816 8.932c-10.782-6.225-28.295-6.225-39.006 0l-3.543 2.06-6.154 3.575L25.812 173.974l-6.154 3.576-5.85 3.4c-10.71 6.224-10.654 16.368.128 22.593l122.618 70.794c10.782 6.225 28.295 6.224 39.006 0l5.85-3.4 6.153-3.576 274.302-159.406 6.153-3.577z"/></g><g><path fill="#cbddff" d="M38.64 175.641l146.003 84.294 260.38-151.316L299.02 24.326z"/></g><g><path fill="#fff" d="M361.065 39.07a5.398 5.398 0 0 1 4.896-.006 1.501 1.501 0 0 1 .016 2.842 5.382 5.382 0 0 1-4.896-.006 1.495 1.495 0 0 1-.016-2.83zm-.62 3.2a6.81 6.81 0 0 0 6.173.006 1.894 1.894 0 0 0-.02-3.582 6.809 6.809 0 0 0-6.174.006 1.886 1.886 0 0 0 .02 3.57z"/></g><g><path fill="#252f5a" d="M361.08 41.9a5.382 5.382 0 0 0 4.897.006 1.501 1.501 0 0 0-.016-2.842 5.398 5.398 0 0 0-4.896.006 1.495 1.495 0 0 0 .016 2.83z"/></g><g><path fill="#fff" d="M399.69 48.876a2.892 2.892 0 0 1 2.62-.006.802.802 0 0 1 0 1.517c-.82.419-1.79.419-2.61 0a.799.799 0 0 1-.01-1.511zm-.332 1.71a3.64 3.64 0 0 0 3.295 0 1.008 1.008 0 0 0-.01-1.909 3.625 3.625 0 0 0-3.296 0 1.01 1.01 0 0 0 .011 1.909z"/></g><g><path fill="#252f5a" d="M399.7 50.387c.82.419 1.79.419 2.61 0a.802.802 0 0 0 0-1.517 2.892 2.892 0 0 0-2.62.006.798.798 0 0 0 .01 1.511z"/></g><g><path fill="#252f5a" d="M376.454 49.9l24.163 13.95c.82.419 1.79.419 2.61 0a.798.798 0 0 0-.008-1.512l-24.163-13.95a2.872 2.872 0 0 0-2.61 0 .799.799 0 0 0 .008 1.512z"/></g><g><path fill="#252f5a" d="M104.869 234.666c-6.126 3.56-16.105 3.56-22.27 0-6.167-3.56-6.2-9.34-.073-12.9 6.135-3.565 16.104-3.56 22.27 0s6.208 9.335.073 12.9zm1.819-13.999c-7.216-4.166-18.879-4.166-26.057.006-7.168 4.166-7.13 10.922.085 15.087 7.216 4.166 18.888 4.172 26.057.006 7.177-4.172 7.13-10.933-.085-15.099z"/></g><g><path fill="url(#hghsa)" d="M104.796 221.767c-6.166-3.56-16.135-3.566-22.27 0-6.127 3.56-6.094 9.34.072 12.9 6.166 3.56 16.145 3.56 22.27 0 6.136-3.566 6.095-9.34-.072-12.9z"/></g><g><path fill="#ffe07d" d="M77.949 252.246l.003-1.296a1.555 1.555 0 0 0-.713-1.235l-12.11-6.991c-.398-.23-.715-.05-.716.409l-.004 1.296-.004 1.297c.027.501.292.96.713 1.234l6.055 3.496 6.054 3.496c.4.23.716.04.718-.409z"/></g><g><path fill="#252f5a" d="M85 49.328a8.419 8.419 0 1 1-16.837-.002A8.419 8.419 0 0 1 85 49.328z"/></g><g><path fill="#ffa76c" d="M261.21 74.773l-13.785 23.884H275z"/></g><g><path fill="#252f5a" d="M441.603 224.856L425 208.253l16.603-16.604 16.604 16.604z"/></g><g><path fill="#252f5a" d="M63.305 185.923L25.942 148.56l.613-.614 37.363 37.363z"/></g></g></g></svg>