<svg xmlns="http://www.w3.org/2000/svg" width="370" height="275" viewBox="0 0 370 275"><defs><linearGradient id="2uwka" x1="249.49" x2="191.88" y1="316.1" y2="217.11" gradientUnits="userSpaceOnUse"><stop offset="0" stop-color="#97cbec"/><stop offset=".69" stop-color="#ccc2f5"/></linearGradient></defs><g><g><g><g><g opacity=".72"><path fill="url(#2uwka)" d="M370.01 265.35c0 4.994-67.182 9.042-150.056 9.042-82.873 0-150.06-4.048-150.06-9.043 0-4.995 67.187-9.046 150.06-9.046 82.874 0 150.056 4.051 150.056 9.046z"/></g></g><g><path fill="#4a3e46" d="M261.454 250.921a3.206 3.206 0 1 0 6.412-.001 3.206 3.206 0 0 0-6.412.001z"/></g><g><path fill="#4a3e46" d="M333.662 247.743l-.811 2.285-34.314-10.632 1.647-4.624z"/></g><g><path fill="#4a3e46" d="M301.261 196.346v41.423h-3.9v-41.423z"/></g><g><path fill="#4a3e46" d="M264.658 247.743l.811 2.285 34.315-10.632-1.507-4.916z"/></g><g><path fill="#4a3e46" d="M288.834 249.783v2.658l10.95-13.045-1.507-4.916z"/></g><g><path fill="#4a3e46" d="M288.562 250.921a3.206 3.206 0 1 0 6.412-.002 3.206 3.206 0 0 0-6.412.002z"/></g><g><path fill="#b07042" d="M250.357 239.767a20.791 20.791 0 0 1-.743 4.71c-.52 1.858-1.559 9.052-2.887 10.058-1.327 1.008-5.61 3.675-4.98 6.412.629 2.74 1.16 4.652 5.785 3.03 4.625-1.623 7.716-2.55 8.604-6.608a25.474 25.474 0 0 1 3.418-7.756l3.342 8.315 1.762-.709s-2.661-8.979-2.434-9.779c.229-.802-1.223-7.935-6.815-9.703-5.592-1.767-5.052 2.03-5.052 2.03z"/></g><g><path fill="#b07042" d="M219.469 242.389a20.875 20.875 0 0 1-2.448 4.092c-1.174 1.53-4.82 7.82-6.427 8.255-1.607.44-6.576 1.316-7.016 4.093-.438 2.777-.657 4.75 4.24 4.967 4.893.221 8.109.512 10.445-2.922a25.438 25.438 0 0 1 6.065-5.917v8.958h1.9s.877-9.324 1.39-9.982c.511-.657 1.825-7.818-2.703-11.544-4.531-3.727-5.446 0-5.446 0z"/></g><g><path fill="#eea886" d="M269.247 120.635s-1.086-3.859-1.195-4.36a8.065 8.065 0 0 0-2.42-2.547 9.415 9.415 0 0 0-3.753-1.797 1.453 1.453 0 0 0-1.034.621 2.8 2.8 0 0 0-.513 1.314c-.512.273-.85.787-.897 1.364-.502.323-.76.915-.656 1.502a1.233 1.233 0 0 0-.602 1.218c.478.455.914.952 1.305 1.484a23.505 23.505 0 0 0 5.037 3.943s3.163 2.337 4.728-2.742z"/></g><g><path fill="#cf8c6c" d="M264.509 117.578a8.32 8.32 0 0 0-.366 2.146c.097.523-3.712.599-3.712.599s2.092-3.262 4.078-2.745z"/></g><g><path fill="#d88a51" d="M307.389 127.27c-1.537-2.49-3.59-3.612-10.106.895s-4.984 3.623-6.545 5.053a72.636 72.636 0 0 1-8.395 5 61.096 61.096 0 0 1-5.91-6.788c-2.159-3.18-6.664-11.671-6.664-11.671l-6.318 4.704s12.274 22.253 14.836 23.897c2.564 1.645 10.293-1.106 14.314-2.8 4.02-1.696 8.276-3.888 10.113-4.342 1.835-.457 8.686-7.453 4.675-13.948z"/></g><g><path fill="#eb4747" d="M263.001 115.609l-3.084-13.942 1.178-.26 3.084 13.941z"/></g><g><path fill="#db9c7c" d="M262.229 112.193s3.182 2.725 2.809 3.292a1.08 1.08 0 0 1-.859.55l.802 1.715s-.11 1.437-1.644.895c0 0 .038 1.353-1.38.655 0 0-.376.904-1.091.695a14.01 14.01 0 0 1-2.689-2.045s-.29-.587.561-1.23a1.467 1.467 0 0 1 .67-1.505c.002-.59.34-1.126.87-1.384 0 0 .093-1.792 1.601-1.9 0 0 .214.145.35.262z"/></g><g><path fill="#eea886" d="M268.007 116.316a14.208 14.208 0 0 0-3.759-2.472c-.372-.123-.75-.174-1.001.12-.255.297-.145 1.038.737 1.922.649.73 1.192 1.547 1.615 2.426 0 0 1.172.644 2.408-1.996z"/></g><g><path fill="#bd7947" d="M277.018 140.788a14.622 14.622 0 0 1 .228-8.25c-.31 2.183.058 4.41 1.055 6.377 1.183 1.919-1.283 1.873-1.283 1.873z"/></g><g><path fill="#eddad3" d="M253.739 141.508s-3.442-25.486-9.435-36.6h8.816s9.877 17.405 8.025 34.982z"/></g><g><path fill="#eea886" d="M251.625 122.426s-1.005-1.875-1.249-2.486c-.242-.613-1.228.45-1.079 1.236.148.787 2.328 1.25 2.328 1.25z"/></g><g><path fill="#eea886" d="M243.807 126.69c.123.449.318.875.578 1.261 0 0 .617.584 1.029 1.026.107.113.21.23.305.354a7.902 7.902 0 0 0 1.612 1.968c.88.708 4.24 2.895 4.24 2.895l2.375-2.536 1.904-1.974s-1.611-6.035-2.353-6.791a2.52 2.52 0 0 0-.226-.203 10.205 10.205 0 0 0-1.843-.98c-.15-.095-1.67-.945-2.158-.758-.56.178-.99.63-1.139 1.2a4.082 4.082 0 0 0-1.731 1.419 2.526 2.526 0 0 0-1.453 1.696s-1.178.631-1.14 1.422z"/></g><g><path fill="#eea886" d="M228.192 192.5l9.99 22.469c.696 1.574 1.347 3.042 1.918 4.32.67 1.504 1.221 2.747 1.602 3.605 2.646 5.957 9.16 18.946 9.16 18.946s4.9.186 5.184-3.975c0 0-4.702-9.014-4.702-15.349 0-6.334-.847-24.995-6.9-29.026-7.381-4.922-12.172-5.852-16.252-.99z"/></g><g><path fill="#eea886" d="M282.073 167.582a6.765 6.765 0 0 1-2.27 1.512c-1.037.285-18.433 1.608-26.471 4.255-8.036 2.648-18.72 4.35-20.706 6.618-1.986 2.271-5.294 14.751-5.2 17.114.094 2.365-7.064 42.198-7.957 45.308-.47 1.647 6.475 1.016 6.475 1.016s9.866-23.538 11.975-27.885c3.872-7.99 4.067-17.776 5.486-19.288 1.417-1.514 17.206-4.917 26.285-4.917 9.076 0 29.406.756 31.578-.474 2.175-1.229 15.792-10.21 10.119-22.22-5.675-12.007-29.314-1.04-29.314-1.04z"/></g><g><path fill="#1d3b54" d="M242.855 176.244l14.357 27.645s4.341-10.282 11.907-12.051c7.568-1.77 37.77-.82 37.77-.82s13.86-17.532 1.989-26.73c-11.868-9.195-25.727 1.446-25.727 1.446s-2.861 3.105-4.246 3.174c-1.386.07-12.479-.215-36.05 7.336z"/></g><g><path fill="#eea886" d="M210.594 254.736s4.385 1.096 6.061 0c1.68-1.094 7.396-10.75 9.289-11.33 0 0-1.835-3.72-6.475-1.017 0 0-7.636 10.74-8.875 12.347z"/></g><g><path fill="#eea886" d="M246.727 254.535s4.479-.617 5.626-2.262c1.15-1.644 2.849-12.734 4.39-13.977 0 0-3.088-2.77-6.386 1.471 0 0-3.078 12.812-3.63 14.768z"/></g><g><path fill="#4a3e46" d="M330.456 250.921a3.206 3.206 0 1 0 6.412-.001 3.206 3.206 0 0 0-6.412.001z"/></g><g><path fill="#eea886" d="M292.468 80.557c-6.335-.345-11.794 4.416-12.315 10.74.177 1.49.47 2.965.878 4.41.599 1.944-1.139 7.668-.684 7.949.752.29 1.531.505 2.325.643 0 0 2.018 6.255 4.213 6.2a18.198 18.198 0 0 0 14.424-9.549c3.914-7.779 5.122-19.716-8.84-20.393z"/></g><g><path fill="#eea886" d="M289.854 107.648s.269.876.575 2.178c.156.663.325 1.439.468 2.263.51 2.211.525 4.507.044 6.725 0 0 4.852 1.683 8.688-5.18 0 0-1.646-7.39.494-11.871 2.137-4.481-10.269 5.885-10.269 5.885z"/></g><g><path fill="#1d3b54" d="M280.153 91.296s5.307 4.765 10.92 4.387c5.701-.384 9.4 6.738 9.4 6.738s8.484-10.646 1.647-19.256c-6.84-8.61-23.18-2.552-21.967 8.131z"/></g><g><path fill="#eea886" d="M293.656 95.64a1.719 1.719 0 0 1 3.002-1.224c1.764 1.476-.61 6.605-2.06 6.102-1.45-.503-.971-3.764-.942-4.878z"/></g><g><path fill="#a77860" d="M290.429 109.826c.156.663.325 1.439.468 2.263a24.078 24.078 0 0 0 6.776-6.339 27.305 27.305 0 0 1-7.244 4.076z"/></g><g><path fill="#d88a51" d="M277.272 136.042c1.022 4.737 3.709 4.985 3.545 8.483-.161 3.498-1.208 3.797.604 9.313.342 1.072.618 2.163.826 3.268a47.302 47.302 0 0 1 .38 2.314 55.46 55.46 0 0 1 .356 3.358 6.962 6.962 0 0 1-1.79 4.822s17.697 10.604 29.85 9.115c0 0-3.147-13.223-4.881-17.763-1.732-4.54-1.207-25.527.068-30.033 1.881-6.645-1.878-16.609-7.016-17.906l-7.966 3.689s-8.02 9.58-9.82 11.027c-1.801 1.448-5.194 5.513-4.156 10.313z"/></g><g><path fill="#d88a51" d="M303.598 116.642c-2.247-1.873-5.502-5.08-10.25 1.263-4.748 6.341-8.205 10.429-9.228 12.278-1.027 1.85-9.951 14.734-9.951 14.734s-4.74-4.402-7.452-6.465c-3.057-2.33-11.386-11.007-11.386-11.007l-5.503 6.102s19.095 21.192 22.047 21.937c2.954.747 11.226-6.695 14.501-9.578 3.273-2.885 12.463-13.388 14.06-14.403 1.595-1.015 9.029-9.976 3.162-14.861z"/></g><g><path fill="#a77860" d="M238.181 214.969c.697 1.574 1.348 3.042 1.92 4.32 2.145-6.888 1.966-18.407 1.966-18.407a65.661 65.661 0 0 1-3.886 14.087z"/></g><g><path fill="#6b5a65" d="M330.456 191.018v6.749h-61.337v-6.75z"/></g><g><path fill="#6b5a65" d="M298.538 169.487s1.548 6.254-5.734 7.673c-7.278 1.422-16.234 3.237-16.234 14.469h25.25z"/></g><g><path fill="#eea886" d="M261.1 101.406l-1.042-1.92-.136 2.179z"/></g><g><path fill="#6b5a65" d="M330.456 197.767l21.443-90.124s-38.766-6.057-43.385 11.352c-4.617 17.41-12.214 69.12-21.453 72.318-9.236 3.198 43.395 6.454 43.395 6.454z"/></g><g><path fill="#bd7947" d="M280.593 150.83s.394 1.652.817 3.022l9.43-12.233z"/></g><g><path fill="#1d3b54" d="M304.24 94.77s-3.732 9.85-2.717 12.54a8.31 8.31 0 0 1-4.756-8.942c1.062-6.452 7.473-3.598 7.473-3.598z"/></g><g><path fill="#d88a51" d="M290.791 115.248v-1.95l8.274-4.03 2.866 3.31z"/></g><g><path fill="#5c5049" d="M199.558 256.7l-9.247-61.508 1.782-.276 9.25 61.511z"/></g><g><path fill="#5c5049" d="M188.27 256.7l-9.253-61.508 1.782-.276 9.246 61.511z"/></g><g><path fill="#5c5049" d="M132.64 256.7l-1.78-.273 9.247-61.511 1.782.276z"/></g><g><path fill="#fab46c" d="M193.206 195.817l7.244-76.221a145.387 145.387 0 0 0-20.326-1.249l-11.508 77.47z"/></g><g><path fill="#fab46c" d="M168.616 195.817v-3.873h24.59v3.873z"/></g><g><path fill="#fab46c" d="M152.528 192.713l-3.842-72.637s32.067-3.481 51.764-.48z"/></g><g><path fill="#fccca2" d="M178.138 96.558s4.95-14.523-4.5-19.025c-9.448-4.501-17.47 2.007-18.988 5.528-1.512 3.521-1.113 9.924.18 14.39 1.292 4.463 1.102 11.262-1.703 13.533a15.756 15.756 0 0 0-6.118 13.736c.108 4.768 18.76-12.196 18.76-12.196z"/></g><g><path fill="#d4c3bd" d="M165.528 252.819s-.294 10.262 1.172 10.88c1.463.617 7.013-2.951 9.46-6.48 2.446-3.53-3.067-11.742-3.973-16.275-.376-1.898-4.688-5.31-6.789-4.332a10.253 10.253 0 0 0-3.635 3.483s5.347 3.666 3.765 12.724z"/></g><g><path fill="#de9673" d="M161.763 240.095a56.7 56.7 0 0 1 2.756 6.22c.937 2.718 1.113 10.241 1.703 10.764.588.524 5.235-1.822 5.855-4.634.618-2.813-1.268-8.439-3.057-11.396a18.332 18.332 0 0 0-3.622-4.437 4.67 4.67 0 0 0-3.635 3.483z"/></g><g><path fill="#d4c3bd" d="M172.187 240.944l4.995 7.29-.945.647-3.861-5.635z"/></g><g><path fill="#de9673" d="M154.21 160.354s2.441 4.123 0 7.126c-2.44 3-18.862 11.248-18.742 16.014.12 4.763 3.13 12.221 4.21 14.113 1.084 1.891 5.07 9.74 7.14 14.333 2.074 4.596 14.054 26.573 16.395 31.527 2.341 4.955.902-19.816.902-19.816l-11.982-35.13 27.99-27.268s-3.386-7.541-25.912-.899z"/></g><g><path fill="#1b4d8f" d="M164.859 113.831s-7.766 1.723-10.848 3.523c-3.083 1.803-9.93 10.09-9.93 13.653 0 3.564 29.94 6.893 29.94 6.893l5.677 20.716s15.128-3.693 16.93-6.755c1.801-3.062-5.959-24.86-7.038-29.455-1.08-4.594-6.744-7.69-13.045-8.575a43.35 43.35 0 0 0-11.686 0z"/></g><g><path fill="#eea886" d="M183.218 161.034s-.543 3.542.902 5.045c1.439 1.5 8.078 10.255 4.563 18.854-3.23 7.898-9.49 7.75-9.49 7.75h-9.687s2.81 14.214 1.905 23.581c-.913 9.37-5.185 30.76-5.273 31.842-.09 1.08-4.097 4.458-5.266 2.747 0 0-.11-12.881-.74-17.745-.632-4.864-3.316-24.32-4.126-27.202-.812-2.882-5.584-11.62-5.584-12.521 0-.9-4.664-15.003 5.514-18.605 10.177-3.603 13.779-13.671 27.282-13.746z"/></g><g><path fill="#e6d3cc" d="M156.046 260.79s-6.68 7.792-5.93 9.193c.748 1.403 7.308 2.115 11.426.91 4.125-1.206 5.003-11.058 7.149-15.15.902-1.712-.304-7.076-2.553-7.637a10.262 10.262 0 0 0-5.02.422s1.855 6.213-5.072 12.262z"/></g><g><path fill="#eea886" d="M161.119 248.528a56.565 56.565 0 0 1-1.769 6.568c-.98 2.7-5.578 8.66-5.449 9.44.13.775 5.22 1.875 7.472.077 2.25-1.797 4.324-7.354 4.786-10.782a18.34 18.34 0 0 0-.021-5.725 4.671 4.671 0 0 0-5.02.422z"/></g><g><path fill="#e6d3cc" d="M168.691 255.744l-.698 8.809-1.145-.093.541-6.808z"/></g><g><path fill="#1b4d8f" d="M188.683 184.933c-3.05 8.004-9.49 7.75-9.49 7.75h-9.687s-4.043-6.405-13.942-7.507a29.318 29.318 0 0 0-7.561.191c-13.15 1.95-10.61 6.776-10.57 6.902a23.595 23.595 0 0 1-1.965-9.197c1.262-10.407 16.301-12.591 18.743-15.592 2.44-3.003 0-7.126 0-7.126 22.526-6.642 25.913.9 25.913.9.987-.138 3.517-1.596 4.595-1.6 0 0 1.125 2.459 1.919 4.681.703 1.962 5.351 11.916 2.045 20.598z"/></g><g><path fill="#ded1c5" d="M179.335 127.63l3.334 30.987h-43.868l-3.332-30.987z"/></g><g><path fill="#ded1c5" d="M178.833 158.616v-2.787h7.325v2.787z"/></g><g><path fill="#bc8551" d="M108.57 162.835v-4.219h139.71v4.22z"/></g><g><path fill="#eea886" d="M169.715 80.01s9.828 2.908 8.423 16.548c-1.406 13.637-7.824 12.937-8.423 13.036-.604.1-8.226.6-10.631-15.946-2.407-16.546 10.631-13.638 10.631-13.638z"/></g><g><path fill="#eea886" d="M174.399 107.085a22.526 22.526 0 0 0 .346 7.325c.87 2.808-11.447 2.886-11.44.575.011-2.623 1.261-4.813.078-9.31-1.178-4.496 11.016 1.41 11.016 1.41z"/></g><g><path fill="#fccca2" d="M167.179 86.091s5.336 8.496 10.959 10.467c0 0 3.07-14.256-9.606-17.242-12.675-2.986-10.69 14.398-9.744 19.033a37.64 37.64 0 0 1 8.39-12.258z"/></g><g><path fill="#a77860" d="M164.844 107.661a6.653 6.653 0 0 0 8.863.424s-.413 2.588-3.99 2.924a4.983 4.983 0 0 1-4.873-3.348z"/></g><g><path fill="#23344a" d="M160.013 84.81s2.811-5.442 7.557-5.686A9.39 9.39 0 0 1 175.144 83a8.077 8.077 0 0 0-7.566-4.636c-5.711 0-7.565 6.447-7.565 6.447z"/></g><g><path fill="#eea886" d="M176.005 113.761s-.176 9.438-7.662 9.718c-7.485.28-5.929-9.053-5.929-9.053a26.011 26.011 0 0 1 13.591-.665z"/></g><g><path fill="#807066" d="M245.177 269.318V162.835h3.104v106.483z"/></g><g><path fill="#807066" d="M108.57 269.318V162.835h3.104v106.483z"/></g><g><g><g><path fill="#518afa" d="M348.573 18h-49.305V61.264l7.527-7.528h41.778z"/></g></g></g><g><g><g><path fill="#518afa" d="M93.475 54.443h49.305V97.707l-7.527-7.528H93.475z"/></g></g></g></g><g><g><path fill="#23d87d" d="M52.007 139.094c0 14.123-11.449 25.571-25.572 25.571S.863 153.216.863 139.093s11.45-25.571 25.572-25.571c14.116.015 25.557 11.455 25.572 25.572zm-25.572 26.435c14.593-.017 26.419-11.842 26.436-26.435 0-14.6-11.836-26.436-26.436-26.436S0 124.494 0 139.094s11.835 26.435 26.435 26.435z"/></g><g><path fill="#252f5a" d="M99.952 242.22a8.419 8.419 0 1 1-16.837-.001 8.419 8.419 0 0 1 16.837.002z"/></g><g><path fill="#ffa76c" d="M175.748-.239l-13.786 23.884h27.575z"/></g><g><path fill="#23d87d" d="M352.616 106.378l-18.443 18.44-6.748-25.192zm1.14.08l.526-.529-28.078-7.524 7.328 27.36.196.722z"/></g><g><path fill="#252f5a" d="M220.783 250.487l-16.603-16.603 16.603-16.604 16.604 16.604z"/></g><g><path fill="#252f5a" d="M159.638 98.815l-37.363-37.362.614-.614 37.363 37.363z"/></g></g></g></g></svg>